%TF.GenerationSoftware,KiCad,Pcbnew,(6.0.0-0)*%
%TF.CreationDate,2022-11-27T15:34:26-08:00*%
%TF.ProjectId,Tap_Photosensor_PCB,5461705f-5068-46f7-946f-73656e736f72,rev?*%
%TF.SameCoordinates,Original*%
%TF.FileFunction,Copper,L2,Bot*%
%TF.FilePolarity,Positive*%
%FSLAX46Y46*%
G04 Gerber Fmt 4.6, Leading zero omitted, Abs format (unit mm)*
G04 Created by KiCad (PCBNEW (6.0.0-0)) date 2022-11-27 15:34:26*
%MOMM*%
%LPD*%
G01*
G04 APERTURE LIST*
G04 Aperture macros list*
%AMRoundRect*
0 Rectangle with rounded corners*
0 $1 Rounding radius*
0 $2 $3 $4 $5 $6 $7 $8 $9 X,Y pos of 4 corners*
0 Add a 4 corners polygon primitive as box body*
4,1,4,$2,$3,$4,$5,$6,$7,$8,$9,$2,$3,0*
0 Add four circle primitives for the rounded corners*
1,1,$1+$1,$2,$3*
1,1,$1+$1,$4,$5*
1,1,$1+$1,$6,$7*
1,1,$1+$1,$8,$9*
0 Add four rect primitives between the rounded corners*
20,1,$1+$1,$2,$3,$4,$5,0*
20,1,$1+$1,$4,$5,$6,$7,0*
20,1,$1+$1,$6,$7,$8,$9,0*
20,1,$1+$1,$8,$9,$2,$3,0*%
G04 Aperture macros list end*
%TA.AperFunction,ComponentPad*%
%ADD10R,1.310000X1.310000*%
%TD*%
%TA.AperFunction,ComponentPad*%
%ADD11C,1.310000*%
%TD*%
%TA.AperFunction,ComponentPad*%
%ADD12RoundRect,0.250000X-0.625000X0.350000X-0.625000X-0.350000X0.625000X-0.350000X0.625000X0.350000X0*%
%TD*%
%TA.AperFunction,ComponentPad*%
%ADD13O,1.750000X1.200000*%
%TD*%
%TA.AperFunction,ViaPad*%
%ADD14C,0.800000*%
%TD*%
%TA.AperFunction,Conductor*%
%ADD15C,0.250000*%
%TD*%
G04 APERTURE END LIST*
D10*
%TO.P,U1,1,ANODE*%
%TO.N,Net-(R1-Pad2)*%
X108335000Y-66770000D03*
D11*
%TO.P,U1,2,CATHODE*%
%TO.N,GND*%
X108335000Y-64230000D03*
%TO.P,U1,3,VCC*%
%TO.N,+5V*%
X116465000Y-63595000D03*
%TO.P,U1,4,OUTPUT*%
%TO.N,SIG*%
X116465000Y-65500000D03*
%TO.P,U1,5,GROUND*%
%TO.N,GND*%
X116465000Y-67405000D03*
%TD*%
D12*
%TO.P,J1,1,Pin_1*%
%TO.N,Vin*%
X112925000Y-56900000D03*
D13*
%TO.P,J1,2,Pin_2*%
%TO.N,SIG*%
X112925000Y-58900000D03*
%TO.P,J1,3,Pin_3*%
%TO.N,GND*%
X112925000Y-60900000D03*
%TD*%
D14*
%TO.N,+5V*%
X120725000Y-57975000D03*
%TD*%
D15*
%TO.N,SIG*%
X115485489Y-60910489D02*
X113550000Y-58975000D01*
X115485489Y-64520489D02*
X116465000Y-65500000D01*
X113550000Y-58975000D02*
X112900000Y-58975000D01*
X115485489Y-60910489D02*
X115485489Y-64520489D01*
%TO.N,+5V*%
X120305000Y-63595000D02*
X116465000Y-63595000D01*
X122675000Y-59925000D02*
X122675000Y-61225000D01*
X122675000Y-61225000D02*
X120305000Y-63595000D01*
X120725000Y-57975000D02*
X122675000Y-59925000D01*
%TD*%
%TA.AperFunction,Conductor*%
%TO.N,GND*%
G36*
X118843355Y-54953002D02*
G01*
X118872614Y-54979043D01*
X120467014Y-56920861D01*
X120494783Y-56986201D01*
X120482819Y-57056182D01*
X120434919Y-57108586D01*
X120420883Y-57115925D01*
X120274278Y-57181197D01*
X120274276Y-57181198D01*
X120268248Y-57183882D01*
X120113747Y-57296134D01*
X120109326Y-57301044D01*
X120109325Y-57301045D01*
X120106980Y-57303650D01*
X119985960Y-57438056D01*
X119890473Y-57603444D01*
X119831458Y-57785072D01*
X119811496Y-57975000D01*
X119831458Y-58164928D01*
X119890473Y-58346556D01*
X119985960Y-58511944D01*
X119990378Y-58516851D01*
X119990379Y-58516852D01*
X120097904Y-58636271D01*
X120113747Y-58653866D01*
X120268248Y-58766118D01*
X120274276Y-58768802D01*
X120274278Y-58768803D01*
X120436681Y-58841109D01*
X120442712Y-58843794D01*
X120536112Y-58863647D01*
X120623056Y-58882128D01*
X120623061Y-58882128D01*
X120629513Y-58883500D01*
X120685406Y-58883500D01*
X120753527Y-58903502D01*
X120774501Y-58920405D01*
X122004595Y-60150499D01*
X122038621Y-60212811D01*
X122041500Y-60239594D01*
X122041500Y-60910406D01*
X122021498Y-60978527D01*
X122004595Y-60999501D01*
X120079500Y-62924595D01*
X120017188Y-62958621D01*
X119990405Y-62961500D01*
X117507311Y-62961500D01*
X117439190Y-62941498D01*
X117406353Y-62910889D01*
X117336807Y-62817755D01*
X117336806Y-62817754D01*
X117333354Y-62813131D01*
X117329118Y-62809215D01*
X117180570Y-62671899D01*
X117180568Y-62671897D01*
X117176329Y-62667979D01*
X117091521Y-62614469D01*
X117000361Y-62556951D01*
X117000360Y-62556951D01*
X116995481Y-62553872D01*
X116796868Y-62474634D01*
X116587140Y-62432916D01*
X116581365Y-62432840D01*
X116581361Y-62432840D01*
X116474214Y-62431438D01*
X116373322Y-62430117D01*
X116367625Y-62431096D01*
X116367624Y-62431096D01*
X116266327Y-62448502D01*
X116195803Y-62440325D01*
X116140895Y-62395318D01*
X116118989Y-62324322D01*
X116118989Y-60989256D01*
X116119516Y-60978073D01*
X116121191Y-60970580D01*
X116119051Y-60902489D01*
X116118989Y-60898532D01*
X116118989Y-60870633D01*
X116118485Y-60866642D01*
X116117552Y-60854800D01*
X116116412Y-60818525D01*
X116116163Y-60810600D01*
X116113951Y-60802986D01*
X116113950Y-60802981D01*
X116110512Y-60791148D01*
X116106501Y-60771784D01*
X116104956Y-60759553D01*
X116103963Y-60751692D01*
X116101046Y-60744325D01*
X116101045Y-60744320D01*
X116087687Y-60710581D01*
X116083843Y-60699354D01*
X116079064Y-60682905D01*
X116071507Y-60656896D01*
X116061196Y-60639461D01*
X116052501Y-60621713D01*
X116045041Y-60602872D01*
X116019053Y-60567102D01*
X116012537Y-60557182D01*
X115994069Y-60525954D01*
X115994067Y-60525951D01*
X115990031Y-60519127D01*
X115975710Y-60504806D01*
X115962869Y-60489772D01*
X115955620Y-60479795D01*
X115950961Y-60473382D01*
X115916884Y-60445191D01*
X115908105Y-60437201D01*
X114341238Y-58870333D01*
X114307212Y-58808021D01*
X114304468Y-58787064D01*
X114302710Y-58749091D01*
X114302433Y-58743101D01*
X114252875Y-58537466D01*
X114243503Y-58516852D01*
X114167806Y-58350368D01*
X114165326Y-58344913D01*
X114042946Y-58172389D01*
X114038619Y-58168247D01*
X114038614Y-58168241D01*
X113947683Y-58081194D01*
X113912306Y-58019639D01*
X113915825Y-57948730D01*
X113957121Y-57890979D01*
X113968504Y-57883035D01*
X114024348Y-57848478D01*
X114149305Y-57723303D01*
X114153146Y-57717072D01*
X114238275Y-57578968D01*
X114238276Y-57578966D01*
X114242115Y-57572738D01*
X114297797Y-57404861D01*
X114308500Y-57300400D01*
X114308500Y-56499600D01*
X114297526Y-56393834D01*
X114241550Y-56226054D01*
X114148478Y-56075652D01*
X114023303Y-55950695D01*
X114017072Y-55946854D01*
X113878968Y-55861725D01*
X113878966Y-55861724D01*
X113872738Y-55857885D01*
X113712254Y-55804655D01*
X113711389Y-55804368D01*
X113711387Y-55804368D01*
X113704861Y-55802203D01*
X113698025Y-55801503D01*
X113698022Y-55801502D01*
X113654969Y-55797091D01*
X113600400Y-55791500D01*
X112249600Y-55791500D01*
X112246354Y-55791837D01*
X112246350Y-55791837D01*
X112150692Y-55801762D01*
X112150688Y-55801763D01*
X112143834Y-55802474D01*
X112137298Y-55804655D01*
X112137296Y-55804655D01*
X112005194Y-55848728D01*
X111976054Y-55858450D01*
X111825652Y-55951522D01*
X111700695Y-56076697D01*
X111607885Y-56227262D01*
X111552203Y-56395139D01*
X111541500Y-56499600D01*
X111541500Y-57300400D01*
X111552474Y-57406166D01*
X111608450Y-57573946D01*
X111701522Y-57724348D01*
X111826697Y-57849305D01*
X111832927Y-57853145D01*
X111832928Y-57853146D01*
X111878236Y-57881074D01*
X111925729Y-57933846D01*
X111937153Y-58003918D01*
X111908879Y-58069042D01*
X111889955Y-58087418D01*
X111882080Y-58093604D01*
X111878148Y-58098135D01*
X111878145Y-58098138D01*
X111809474Y-58177275D01*
X111743448Y-58253363D01*
X111740448Y-58258549D01*
X111740445Y-58258553D01*
X111646661Y-58420665D01*
X111637527Y-58436454D01*
X111568139Y-58636271D01*
X111567278Y-58642206D01*
X111567278Y-58642208D01*
X111539206Y-58835820D01*
X111537787Y-58845604D01*
X111547567Y-59056899D01*
X111597125Y-59262534D01*
X111684674Y-59455087D01*
X111807054Y-59627611D01*
X111959850Y-59773881D01*
X111964881Y-59777130D01*
X111964888Y-59777135D01*
X111992607Y-59795033D01*
X112038984Y-59848789D01*
X112048937Y-59919085D01*
X112019304Y-59983602D01*
X112002091Y-59999970D01*
X111887143Y-60090262D01*
X111878494Y-60098499D01*
X111747788Y-60249123D01*
X111740853Y-60258847D01*
X111640990Y-60431467D01*
X111636016Y-60442331D01*
X111570593Y-60630727D01*
X111570352Y-60631716D01*
X111571820Y-60642008D01*
X111585385Y-60646000D01*
X114272905Y-60646000D01*
X114341026Y-60666002D01*
X114361998Y-60682902D01*
X114589501Y-60910406D01*
X114815085Y-61135990D01*
X114849110Y-61198302D01*
X114851989Y-61225085D01*
X114851989Y-64441722D01*
X114851462Y-64452905D01*
X114849787Y-64460398D01*
X114850036Y-64468324D01*
X114850036Y-64468325D01*
X114851927Y-64528475D01*
X114851989Y-64532434D01*
X114851989Y-64560345D01*
X114852486Y-64564279D01*
X114852486Y-64564280D01*
X114852494Y-64564345D01*
X114853427Y-64576182D01*
X114854816Y-64620378D01*
X114860467Y-64639828D01*
X114864476Y-64659189D01*
X114867015Y-64679286D01*
X114869934Y-64686657D01*
X114869934Y-64686659D01*
X114883293Y-64720401D01*
X114887138Y-64731631D01*
X114899471Y-64774082D01*
X114903504Y-64780901D01*
X114903506Y-64780906D01*
X114909782Y-64791517D01*
X114918477Y-64809265D01*
X114925937Y-64828106D01*
X114930599Y-64834522D01*
X114930599Y-64834523D01*
X114951925Y-64863876D01*
X114958441Y-64873796D01*
X114967710Y-64889468D01*
X114980947Y-64911851D01*
X114995268Y-64926172D01*
X115008108Y-64941205D01*
X115020017Y-64957596D01*
X115026123Y-64962647D01*
X115054094Y-64985787D01*
X115062873Y-64993777D01*
X115279268Y-65210172D01*
X115313294Y-65272484D01*
X115315300Y-65314077D01*
X115311615Y-65345216D01*
X115296915Y-65469413D01*
X115310901Y-65682791D01*
X115312322Y-65688387D01*
X115312323Y-65688392D01*
X115335145Y-65778251D01*
X115363538Y-65890048D01*
X115365955Y-65895291D01*
X115416386Y-66004684D01*
X115453062Y-66084242D01*
X115456395Y-66088958D01*
X115531364Y-66195036D01*
X115576477Y-66258870D01*
X115729649Y-66408083D01*
X115907447Y-66526885D01*
X115912750Y-66529164D01*
X115912755Y-66529166D01*
X115936345Y-66539301D01*
X115952967Y-66546442D01*
X115992325Y-66573114D01*
X116452189Y-67032979D01*
X116466132Y-67040592D01*
X116467966Y-67040461D01*
X116474580Y-67036210D01*
X116934897Y-66575892D01*
X116962421Y-66555057D01*
X117126837Y-66462979D01*
X117291244Y-66326244D01*
X117427979Y-66161837D01*
X117532464Y-65975266D01*
X117601200Y-65772777D01*
X117603210Y-65758919D01*
X117624453Y-65612402D01*
X117631884Y-65561154D01*
X117633485Y-65500000D01*
X117613919Y-65287061D01*
X117609268Y-65270569D01*
X117557445Y-65086817D01*
X117557443Y-65086812D01*
X117555875Y-65081252D01*
X117482857Y-64933186D01*
X117463851Y-64894647D01*
X117461297Y-64889468D01*
X117333354Y-64718131D01*
X117324671Y-64710104D01*
X117249852Y-64640943D01*
X117213407Y-64580015D01*
X117215688Y-64509055D01*
X117254812Y-64451544D01*
X117286806Y-64424935D01*
X117291244Y-64421244D01*
X117413762Y-64273931D01*
X117472699Y-64234347D01*
X117510636Y-64228500D01*
X120011241Y-64228500D01*
X120079362Y-64248502D01*
X120125855Y-64302158D01*
X120135959Y-64372432D01*
X120118673Y-64420335D01*
X120059320Y-64517190D01*
X120059316Y-64517198D01*
X120057073Y-64520858D01*
X120055347Y-64524791D01*
X120055346Y-64524792D01*
X120011302Y-64625127D01*
X119941517Y-64784102D01*
X119940342Y-64788229D01*
X119940341Y-64788230D01*
X119936699Y-64801016D01*
X119862756Y-65060594D01*
X119822249Y-65345216D01*
X119822227Y-65349505D01*
X119822226Y-65349512D01*
X119820830Y-65616029D01*
X119820743Y-65632703D01*
X119821302Y-65636947D01*
X119821302Y-65636951D01*
X119835706Y-65746358D01*
X119858268Y-65917734D01*
X119859401Y-65921874D01*
X119859401Y-65921876D01*
X119864197Y-65939406D01*
X119934129Y-66195036D01*
X119935813Y-66198984D01*
X120024058Y-66405869D01*
X120046923Y-66459476D01*
X120088632Y-66529166D01*
X120183558Y-66687776D01*
X120194561Y-66706161D01*
X120374313Y-66930528D01*
X120391397Y-66946740D01*
X120516537Y-67065493D01*
X120582851Y-67128423D01*
X120816317Y-67296186D01*
X120820112Y-67298195D01*
X120820113Y-67298196D01*
X120841869Y-67309715D01*
X121070392Y-67430712D01*
X121340373Y-67529511D01*
X121621264Y-67590755D01*
X121649841Y-67593004D01*
X121844282Y-67608307D01*
X121844291Y-67608307D01*
X121846739Y-67608500D01*
X122002271Y-67608500D01*
X122004407Y-67608354D01*
X122004418Y-67608354D01*
X122212548Y-67594165D01*
X122212554Y-67594164D01*
X122216825Y-67593873D01*
X122221020Y-67593004D01*
X122221022Y-67593004D01*
X122463859Y-67542715D01*
X122498342Y-67535574D01*
X122769343Y-67439607D01*
X123024812Y-67307750D01*
X123028313Y-67305289D01*
X123028317Y-67305287D01*
X123239811Y-67156646D01*
X123260023Y-67142441D01*
X123433482Y-66981253D01*
X123467479Y-66949661D01*
X123467481Y-66949658D01*
X123470622Y-66946740D01*
X123652713Y-66724268D01*
X123802927Y-66479142D01*
X123848421Y-66375505D01*
X123916757Y-66219830D01*
X123918483Y-66215898D01*
X123997244Y-65939406D01*
X124037751Y-65654784D01*
X124037845Y-65636951D01*
X124039235Y-65371583D01*
X124039235Y-65371576D01*
X124039257Y-65367297D01*
X124037982Y-65357607D01*
X124002292Y-65086522D01*
X124001732Y-65082266D01*
X123995841Y-65060730D01*
X123949530Y-64891446D01*
X123925871Y-64804964D01*
X123881247Y-64700346D01*
X123814763Y-64544476D01*
X123814761Y-64544472D01*
X123813077Y-64540524D01*
X123712476Y-64372432D01*
X123667643Y-64297521D01*
X123667640Y-64297517D01*
X123665439Y-64293839D01*
X123485687Y-64069472D01*
X123355021Y-63945475D01*
X123280258Y-63874527D01*
X123280255Y-63874525D01*
X123277149Y-63871577D01*
X123043683Y-63703814D01*
X123021843Y-63692250D01*
X122894663Y-63624912D01*
X122789608Y-63569288D01*
X122519627Y-63470489D01*
X122238736Y-63409245D01*
X122207685Y-63406801D01*
X122015718Y-63391693D01*
X122015709Y-63391693D01*
X122013261Y-63391500D01*
X121857729Y-63391500D01*
X121855593Y-63391646D01*
X121855582Y-63391646D01*
X121706567Y-63401805D01*
X121637243Y-63386483D01*
X121587209Y-63336113D01*
X121572349Y-63266689D01*
X121597381Y-63200252D01*
X121608902Y-63187002D01*
X123067247Y-61728657D01*
X123075537Y-61721113D01*
X123082018Y-61717000D01*
X123128659Y-61667332D01*
X123131413Y-61664491D01*
X123151134Y-61644770D01*
X123153612Y-61641575D01*
X123161318Y-61632553D01*
X123186158Y-61606101D01*
X123191586Y-61600321D01*
X123201346Y-61582568D01*
X123212199Y-61566045D01*
X123219753Y-61556306D01*
X123224613Y-61550041D01*
X123242176Y-61509457D01*
X123247383Y-61498827D01*
X123268695Y-61460060D01*
X123270666Y-61452383D01*
X123270668Y-61452378D01*
X123273732Y-61440442D01*
X123280138Y-61421730D01*
X123285033Y-61410419D01*
X123288181Y-61403145D01*
X123289421Y-61395317D01*
X123289423Y-61395310D01*
X123295099Y-61359476D01*
X123297505Y-61347856D01*
X123306528Y-61312711D01*
X123306528Y-61312710D01*
X123308500Y-61305030D01*
X123308500Y-61284776D01*
X123310051Y-61265065D01*
X123311980Y-61252886D01*
X123313220Y-61245057D01*
X123309059Y-61201038D01*
X123308500Y-61189181D01*
X123308500Y-60733513D01*
X123328502Y-60665392D01*
X123382158Y-60618899D01*
X123452432Y-60608795D01*
X123517012Y-60638289D01*
X123531878Y-60653554D01*
X125088284Y-62549100D01*
X125095320Y-62558536D01*
X125114648Y-62587161D01*
X125114651Y-62587164D01*
X125119674Y-62594603D01*
X125135038Y-62607345D01*
X125150831Y-62622994D01*
X125280874Y-62776884D01*
X125381552Y-62896026D01*
X125388728Y-62905371D01*
X125610015Y-63223297D01*
X125616286Y-63233273D01*
X125806888Y-63570447D01*
X125812201Y-63580963D01*
X125970493Y-63934507D01*
X125974792Y-63945455D01*
X126099367Y-64312242D01*
X126102625Y-64323546D01*
X126192389Y-64700346D01*
X126194581Y-64711922D01*
X126248757Y-65095467D01*
X126249857Y-65107199D01*
X126267967Y-65494109D01*
X126267967Y-65505891D01*
X126249857Y-65892801D01*
X126248757Y-65904533D01*
X126194581Y-66288078D01*
X126192389Y-66299654D01*
X126102625Y-66676454D01*
X126099367Y-66687758D01*
X125974792Y-67054545D01*
X125970493Y-67065493D01*
X125812201Y-67419037D01*
X125806888Y-67429553D01*
X125616286Y-67766727D01*
X125610015Y-67776703D01*
X125388728Y-68094629D01*
X125381552Y-68103974D01*
X125302667Y-68197326D01*
X125243421Y-68236447D01*
X125206427Y-68242000D01*
X117544285Y-68242000D01*
X117476164Y-68221998D01*
X117429671Y-68168342D01*
X117419567Y-68098068D01*
X117434351Y-68054434D01*
X117529181Y-67885104D01*
X117533863Y-67874589D01*
X117598855Y-67683129D01*
X117601539Y-67671946D01*
X117630848Y-67469801D01*
X117631478Y-67462419D01*
X117632885Y-67408704D01*
X117632642Y-67401305D01*
X117613953Y-67197906D01*
X117611856Y-67186592D01*
X117556973Y-66991992D01*
X117552851Y-66981253D01*
X117463423Y-66799912D01*
X117459425Y-66793388D01*
X117449168Y-66785690D01*
X117436751Y-66792461D01*
X116554095Y-67675116D01*
X116491783Y-67709141D01*
X116420967Y-67704076D01*
X116375905Y-67675116D01*
X115492815Y-66792026D01*
X115480437Y-66785268D01*
X115474472Y-66789733D01*
X115388617Y-66952916D01*
X115384212Y-66963551D01*
X115324254Y-67156646D01*
X115321862Y-67167900D01*
X115298097Y-67368691D01*
X115297796Y-67380192D01*
X115311020Y-67581945D01*
X115312821Y-67593315D01*
X115362590Y-67789280D01*
X115366431Y-67800127D01*
X115451080Y-67983746D01*
X115456828Y-67993702D01*
X115491866Y-68043279D01*
X115514847Y-68110454D01*
X115497863Y-68179389D01*
X115446306Y-68228198D01*
X115388969Y-68242000D01*
X99540393Y-68242000D01*
X99472272Y-68221998D01*
X99444842Y-68198134D01*
X99375507Y-68117473D01*
X99368560Y-68108620D01*
X99365239Y-68103974D01*
X99277649Y-67981462D01*
X99153642Y-67808013D01*
X99147514Y-67798578D01*
X99126785Y-67763310D01*
X99113560Y-67731530D01*
X99107669Y-67709141D01*
X98561238Y-65632703D01*
X100760743Y-65632703D01*
X100761302Y-65636947D01*
X100761302Y-65636951D01*
X100775706Y-65746358D01*
X100798268Y-65917734D01*
X100799401Y-65921874D01*
X100799401Y-65921876D01*
X100804197Y-65939406D01*
X100874129Y-66195036D01*
X100875813Y-66198984D01*
X100964058Y-66405869D01*
X100986923Y-66459476D01*
X101028632Y-66529166D01*
X101123558Y-66687776D01*
X101134561Y-66706161D01*
X101314313Y-66930528D01*
X101331397Y-66946740D01*
X101456537Y-67065493D01*
X101522851Y-67128423D01*
X101756317Y-67296186D01*
X101760112Y-67298195D01*
X101760113Y-67298196D01*
X101781869Y-67309715D01*
X102010392Y-67430712D01*
X102280373Y-67529511D01*
X102561264Y-67590755D01*
X102589841Y-67593004D01*
X102784282Y-67608307D01*
X102784291Y-67608307D01*
X102786739Y-67608500D01*
X102942271Y-67608500D01*
X102944407Y-67608354D01*
X102944418Y-67608354D01*
X103152548Y-67594165D01*
X103152554Y-67594164D01*
X103156825Y-67593873D01*
X103161020Y-67593004D01*
X103161022Y-67593004D01*
X103403859Y-67542715D01*
X103438342Y-67535574D01*
X103614666Y-67473134D01*
X107171500Y-67473134D01*
X107178255Y-67535316D01*
X107229385Y-67671705D01*
X107316739Y-67788261D01*
X107433295Y-67875615D01*
X107569684Y-67926745D01*
X107631866Y-67933500D01*
X109038134Y-67933500D01*
X109100316Y-67926745D01*
X109236705Y-67875615D01*
X109353261Y-67788261D01*
X109440615Y-67671705D01*
X109491745Y-67535316D01*
X109498500Y-67473134D01*
X109498500Y-66066866D01*
X109491745Y-66004684D01*
X109440615Y-65868295D01*
X109353261Y-65751739D01*
X109236705Y-65664385D01*
X109100316Y-65613255D01*
X109038134Y-65606500D01*
X108661488Y-65606500D01*
X108593367Y-65586498D01*
X108546874Y-65532842D01*
X108536770Y-65462568D01*
X108566264Y-65397988D01*
X108620987Y-65361187D01*
X108804589Y-65298863D01*
X108815104Y-65294181D01*
X108943440Y-65222309D01*
X108953304Y-65212231D01*
X108950349Y-65204560D01*
X108347811Y-64602021D01*
X108333868Y-64594408D01*
X108332034Y-64594539D01*
X108325420Y-64598790D01*
X107724604Y-65199607D01*
X107718411Y-65210949D01*
X107728293Y-65223438D01*
X107772880Y-65253231D01*
X107782997Y-65258725D01*
X107968771Y-65338539D01*
X107979704Y-65342091D01*
X108048275Y-65357607D01*
X108110302Y-65392150D01*
X108143806Y-65454743D01*
X108138152Y-65525514D01*
X108095133Y-65581994D01*
X108028408Y-65606249D01*
X108020467Y-65606500D01*
X107631866Y-65606500D01*
X107569684Y-65613255D01*
X107433295Y-65664385D01*
X107316739Y-65751739D01*
X107229385Y-65868295D01*
X107178255Y-66004684D01*
X107171500Y-66066866D01*
X107171500Y-67473134D01*
X103614666Y-67473134D01*
X103709343Y-67439607D01*
X103964812Y-67307750D01*
X103968313Y-67305289D01*
X103968317Y-67305287D01*
X104179811Y-67156646D01*
X104200023Y-67142441D01*
X104373482Y-66981253D01*
X104407479Y-66949661D01*
X104407481Y-66949658D01*
X104410622Y-66946740D01*
X104592713Y-66724268D01*
X104742927Y-66479142D01*
X104788421Y-66375505D01*
X104856757Y-66219830D01*
X104858483Y-66215898D01*
X104937244Y-65939406D01*
X104977751Y-65654784D01*
X104977845Y-65636951D01*
X104979235Y-65371583D01*
X104979235Y-65371576D01*
X104979257Y-65367297D01*
X104977982Y-65357607D01*
X104942292Y-65086522D01*
X104941732Y-65082266D01*
X104935841Y-65060730D01*
X104889530Y-64891446D01*
X104865871Y-64804964D01*
X104821247Y-64700346D01*
X104754763Y-64544476D01*
X104754761Y-64544472D01*
X104753077Y-64540524D01*
X104652476Y-64372432D01*
X104607643Y-64297521D01*
X104607640Y-64297517D01*
X104605439Y-64293839D01*
X104534419Y-64205192D01*
X107167796Y-64205192D01*
X107181020Y-64406945D01*
X107182821Y-64418315D01*
X107232590Y-64614280D01*
X107236431Y-64625127D01*
X107321080Y-64808746D01*
X107326831Y-64818707D01*
X107341324Y-64839214D01*
X107351914Y-64847603D01*
X107365213Y-64840576D01*
X107962979Y-64242811D01*
X107969356Y-64231132D01*
X108699408Y-64231132D01*
X108699539Y-64232966D01*
X108703790Y-64239580D01*
X109305649Y-64841438D01*
X109318024Y-64848195D01*
X109324604Y-64843269D01*
X109399181Y-64710104D01*
X109403863Y-64699589D01*
X109468855Y-64508129D01*
X109471539Y-64496946D01*
X109500848Y-64294801D01*
X109501478Y-64287419D01*
X109502885Y-64233704D01*
X109502642Y-64226305D01*
X109483953Y-64022906D01*
X109481856Y-64011592D01*
X109426973Y-63816992D01*
X109422851Y-63806253D01*
X109333423Y-63624912D01*
X109329425Y-63618388D01*
X109319168Y-63610690D01*
X109306750Y-63617461D01*
X108707021Y-64217189D01*
X108699408Y-64231132D01*
X107969356Y-64231132D01*
X107970592Y-64228868D01*
X107970461Y-64227034D01*
X107966210Y-64220420D01*
X107362813Y-63617024D01*
X107350438Y-63610267D01*
X107344472Y-63614733D01*
X107258617Y-63777916D01*
X107254212Y-63788551D01*
X107194254Y-63981646D01*
X107191862Y-63992900D01*
X107168097Y-64193691D01*
X107167796Y-64205192D01*
X104534419Y-64205192D01*
X104425687Y-64069472D01*
X104295021Y-63945475D01*
X104220258Y-63874527D01*
X104220255Y-63874525D01*
X104217149Y-63871577D01*
X103983683Y-63703814D01*
X103961843Y-63692250D01*
X103834663Y-63624912D01*
X103729608Y-63569288D01*
X103459627Y-63470489D01*
X103178736Y-63409245D01*
X103147685Y-63406801D01*
X102955718Y-63391693D01*
X102955709Y-63391693D01*
X102953261Y-63391500D01*
X102797729Y-63391500D01*
X102795593Y-63391646D01*
X102795582Y-63391646D01*
X102587452Y-63405835D01*
X102587446Y-63405836D01*
X102583175Y-63406127D01*
X102578980Y-63406996D01*
X102578978Y-63406996D01*
X102442416Y-63435277D01*
X102301658Y-63464426D01*
X102030657Y-63560393D01*
X101775188Y-63692250D01*
X101771687Y-63694711D01*
X101771683Y-63694713D01*
X101761594Y-63701804D01*
X101539977Y-63857559D01*
X101524892Y-63871577D01*
X101362043Y-64022906D01*
X101329378Y-64053260D01*
X101147287Y-64275732D01*
X100997073Y-64520858D01*
X100995347Y-64524791D01*
X100995346Y-64524792D01*
X100951302Y-64625127D01*
X100881517Y-64784102D01*
X100880342Y-64788229D01*
X100880341Y-64788230D01*
X100876699Y-64801016D01*
X100802756Y-65060594D01*
X100762249Y-65345216D01*
X100762227Y-65349505D01*
X100762226Y-65349512D01*
X100760830Y-65616029D01*
X100760743Y-65632703D01*
X98561238Y-65632703D01*
X98472803Y-65296651D01*
X98469211Y-65252757D01*
X98498593Y-64941206D01*
X98502757Y-64897057D01*
X98504311Y-64885917D01*
X98511417Y-64847603D01*
X98571700Y-64522548D01*
X98574239Y-64511609D01*
X98673779Y-64155702D01*
X98677280Y-64145042D01*
X98787097Y-63855096D01*
X98808176Y-63799441D01*
X98812628Y-63789106D01*
X98973831Y-63456573D01*
X98979187Y-63446677D01*
X99098148Y-63248547D01*
X107717660Y-63248547D01*
X107721146Y-63256935D01*
X108322189Y-63857979D01*
X108336132Y-63865592D01*
X108337966Y-63865461D01*
X108344580Y-63861210D01*
X108945161Y-63260628D01*
X108951918Y-63248253D01*
X108945888Y-63240197D01*
X108870139Y-63192403D01*
X108859888Y-63187180D01*
X108672094Y-63112258D01*
X108661057Y-63108989D01*
X108462753Y-63069543D01*
X108451308Y-63068340D01*
X108249143Y-63065694D01*
X108237663Y-63066597D01*
X108038401Y-63100837D01*
X108027281Y-63103817D01*
X107837587Y-63173799D01*
X107827209Y-63178749D01*
X107727258Y-63238214D01*
X107717660Y-63248547D01*
X99098148Y-63248547D01*
X99169410Y-63129861D01*
X99175628Y-63120481D01*
X99212773Y-63069543D01*
X99371136Y-62852378D01*
X99387834Y-62833707D01*
X99390192Y-62831547D01*
X99390193Y-62831546D01*
X99396814Y-62825481D01*
X99401495Y-62817755D01*
X99408214Y-62806666D01*
X99420039Y-62790278D01*
X100801747Y-61167399D01*
X111574712Y-61167399D01*
X111596194Y-61256537D01*
X111600083Y-61267832D01*
X111682629Y-61449382D01*
X111688576Y-61459724D01*
X111803968Y-61622397D01*
X111811761Y-61631425D01*
X111955831Y-61769342D01*
X111965196Y-61776738D01*
X112132741Y-61884921D01*
X112143345Y-61890417D01*
X112328312Y-61964961D01*
X112339770Y-61968355D01*
X112536928Y-62006857D01*
X112545791Y-62007934D01*
X112548500Y-62008000D01*
X112652885Y-62008000D01*
X112668124Y-62003525D01*
X112669329Y-62002135D01*
X112671000Y-61994452D01*
X112671000Y-61989885D01*
X113179000Y-61989885D01*
X113183475Y-62005124D01*
X113184865Y-62006329D01*
X113192548Y-62008000D01*
X113249832Y-62008000D01*
X113255808Y-62007715D01*
X113404494Y-61993529D01*
X113416228Y-61991270D01*
X113607599Y-61935128D01*
X113618675Y-61930698D01*
X113795978Y-61839381D01*
X113806024Y-61832931D01*
X113962857Y-61709738D01*
X113971506Y-61701501D01*
X114102212Y-61550877D01*
X114109147Y-61541153D01*
X114209010Y-61368533D01*
X114213984Y-61357669D01*
X114279407Y-61169273D01*
X114279648Y-61168284D01*
X114278180Y-61157992D01*
X114264615Y-61154000D01*
X113197115Y-61154000D01*
X113181876Y-61158475D01*
X113180671Y-61159865D01*
X113179000Y-61167548D01*
X113179000Y-61989885D01*
X112671000Y-61989885D01*
X112671000Y-61172115D01*
X112666525Y-61156876D01*
X112665135Y-61155671D01*
X112657452Y-61154000D01*
X111589598Y-61154000D01*
X111576067Y-61157973D01*
X111574712Y-61167399D01*
X100801747Y-61167399D01*
X105369407Y-55802474D01*
X106071938Y-54977319D01*
X106131328Y-54938417D01*
X106167876Y-54933000D01*
X118775234Y-54933000D01*
X118843355Y-54953002D01*
G37*
%TD.AperFunction*%
%TD*%
M02*
