%TF.GenerationSoftware,KiCad,Pcbnew,(7.0.0-0)*%
%TF.CreationDate,2023-03-02T14:09:57-08:00*%
%TF.ProjectId,Tap_Photosensor_PCB,5461705f-5068-46f7-946f-73656e736f72,rev?*%
%TF.SameCoordinates,Original*%
%TF.FileFunction,Copper,L2,Bot*%
%TF.FilePolarity,Positive*%
%FSLAX46Y46*%
G04 Gerber Fmt 4.6, Leading zero omitted, Abs format (unit mm)*
G04 Created by KiCad (PCBNEW (7.0.0-0)) date 2023-03-02 14:09:57*
%MOMM*%
%LPD*%
G01*
G04 APERTURE LIST*
G04 Aperture macros list*
%AMRoundRect*
0 Rectangle with rounded corners*
0 $1 Rounding radius*
0 $2 $3 $4 $5 $6 $7 $8 $9 X,Y pos of 4 corners*
0 Add a 4 corners polygon primitive as box body*
4,1,4,$2,$3,$4,$5,$6,$7,$8,$9,$2,$3,0*
0 Add four circle primitives for the rounded corners*
1,1,$1+$1,$2,$3*
1,1,$1+$1,$4,$5*
1,1,$1+$1,$6,$7*
1,1,$1+$1,$8,$9*
0 Add four rect primitives between the rounded corners*
20,1,$1+$1,$2,$3,$4,$5,0*
20,1,$1+$1,$4,$5,$6,$7,0*
20,1,$1+$1,$6,$7,$8,$9,0*
20,1,$1+$1,$8,$9,$2,$3,0*%
%AMHorizOval*
0 Thick line with rounded ends*
0 $1 width*
0 $2 $3 position (X,Y) of the first rounded end (center of the circle)*
0 $4 $5 position (X,Y) of the second rounded end (center of the circle)*
0 Add line between two ends*
20,1,$1,$2,$3,$4,$5,0*
0 Add two circle primitives to create the rounded ends*
1,1,$1,$2,$3*
1,1,$1,$4,$5*%
%AMFreePoly0*
4,1,19,0.550000,-0.750000,0.000000,-0.750000,0.000000,-0.744911,-0.071157,-0.744911,-0.207708,-0.704816,-0.327430,-0.627875,-0.420627,-0.520320,-0.479746,-0.390866,-0.500000,-0.250000,-0.500000,0.250000,-0.479746,0.390866,-0.420627,0.520320,-0.327430,0.627875,-0.207708,0.704816,-0.071157,0.744911,0.000000,0.744911,0.000000,0.750000,0.550000,0.750000,0.550000,-0.750000,0.550000,-0.750000,
$1*%
%AMFreePoly1*
4,1,19,0.000000,0.744911,0.071157,0.744911,0.207708,0.704816,0.327430,0.627875,0.420627,0.520320,0.479746,0.390866,0.500000,0.250000,0.500000,-0.250000,0.479746,-0.390866,0.420627,-0.520320,0.327430,-0.627875,0.207708,-0.704816,0.071157,-0.744911,0.000000,-0.744911,0.000000,-0.750000,-0.550000,-0.750000,-0.550000,0.750000,0.000000,0.750000,0.000000,0.744911,0.000000,0.744911,
$1*%
G04 Aperture macros list end*
%TA.AperFunction,ComponentPad*%
%ADD10RoundRect,0.250000X-0.625000X0.350000X-0.625000X-0.350000X0.625000X-0.350000X0.625000X0.350000X0*%
%TD*%
%TA.AperFunction,ComponentPad*%
%ADD11O,1.750000X1.200000*%
%TD*%
%TA.AperFunction,ComponentPad*%
%ADD12R,1.782000X0.958000*%
%TD*%
%TA.AperFunction,ComponentPad*%
%ADD13O,1.782000X0.958000*%
%TD*%
%TA.AperFunction,ComponentPad*%
%ADD14HorizOval,0.955000X0.279101X-0.263011X-0.279101X0.263011X0*%
%TD*%
%TA.AperFunction,ComponentPad*%
%ADD15HorizOval,0.955000X0.279101X0.263011X-0.279101X-0.263011X0*%
%TD*%
%TA.AperFunction,SMDPad,CuDef*%
%ADD16FreePoly0,90.000000*%
%TD*%
%TA.AperFunction,SMDPad,CuDef*%
%ADD17R,1.500000X1.000000*%
%TD*%
%TA.AperFunction,SMDPad,CuDef*%
%ADD18FreePoly1,90.000000*%
%TD*%
%TA.AperFunction,ViaPad*%
%ADD19C,0.800000*%
%TD*%
%TA.AperFunction,Conductor*%
%ADD20C,0.250000*%
%TD*%
G04 APERTURE END LIST*
%TO.C,JP1*%
G36*
X109550000Y-59650000D02*
G01*
X108950000Y-59650000D01*
X108950000Y-59150000D01*
X109550000Y-59150000D01*
X109550000Y-59650000D01*
G37*
%TD*%
D10*
%TO.P,J1,1,Pin_1*%
%TO.N,Vin*%
X112675000Y-56925000D03*
D11*
%TO.P,J1,2,Pin_2*%
%TO.N,SIG*%
X112674999Y-58924999D03*
%TO.P,J1,3,Pin_3*%
%TO.N,GND*%
X112674999Y-60924999D03*
%TD*%
D12*
%TO.P,U1,1,ANODE*%
%TO.N,Net-(U1-ANODE)*%
X108067999Y-66769999D03*
D13*
%TO.P,U1,2,CATHODE*%
%TO.N,GND*%
X108067999Y-64229999D03*
D14*
%TO.P,U1,3,VCC*%
%TO.N,+5V*%
X116731999Y-63846999D03*
D13*
%TO.P,U1,4,OUTPUT*%
%TO.N,SIG*%
X116731999Y-65499999D03*
D15*
%TO.P,U1,5,GROUND*%
%TO.N,GND*%
X116731999Y-67152999D03*
%TD*%
D16*
%TO.P,JP1,1,A*%
%TO.N,/fb*%
X109250000Y-60050000D03*
D17*
%TO.P,JP1,2,C*%
%TO.N,+5V*%
X109249999Y-58749999D03*
D18*
%TO.P,JP1,3,B*%
%TO.N,Vcc*%
X109250000Y-57450000D03*
%TD*%
D19*
%TO.N,GND*%
X118500000Y-63300000D03*
X102900000Y-61000000D03*
X111003608Y-57275500D03*
X106925000Y-55925000D03*
X106200000Y-67800000D03*
X122857350Y-60363974D03*
X118600000Y-68200000D03*
%TO.N,+5V*%
X109250000Y-58750000D03*
X109250000Y-61375000D03*
%TO.N,/fb*%
X121500000Y-61300000D03*
X120100000Y-56500000D03*
X115150000Y-57150000D03*
%TO.N,Vcc*%
X107042872Y-57649500D03*
X116752458Y-56250989D03*
%TD*%
D20*
%TO.N,+5V*%
X109250000Y-61375000D02*
X109250000Y-61500000D01*
X111345000Y-63595000D02*
X116465000Y-63595000D01*
X109250000Y-61500000D02*
X111345000Y-63595000D01*
%TO.N,/fb*%
X115324511Y-56975489D02*
X119424511Y-56975489D01*
X111500000Y-62300000D02*
X120500000Y-62300000D01*
X109250000Y-60050000D02*
X111500000Y-62300000D01*
X119900000Y-56500000D02*
X120100000Y-56500000D01*
X120500000Y-62300000D02*
X121500000Y-61300000D01*
X115150000Y-57150000D02*
X115324511Y-56975489D01*
X119424511Y-56975489D02*
X119900000Y-56500000D01*
%TO.N,Vcc*%
X110699520Y-56000480D02*
X116501949Y-56000480D01*
X107242372Y-57450000D02*
X107042872Y-57649500D01*
X109250000Y-57450000D02*
X110699520Y-56000480D01*
X109250000Y-57450000D02*
X107242372Y-57450000D01*
X116501949Y-56000480D02*
X116752458Y-56250989D01*
%TD*%
%TA.AperFunction,Conductor*%
%TO.N,GND*%
G36*
X119015367Y-54437528D02*
G01*
X119058835Y-54471316D01*
X119626762Y-55159711D01*
X119812562Y-55384924D01*
X119857054Y-55438853D01*
X119882561Y-55490389D01*
X119882513Y-55547892D01*
X119856919Y-55599385D01*
X119811110Y-55634143D01*
X119649286Y-55706192D01*
X119649272Y-55706199D01*
X119643248Y-55708882D01*
X119637907Y-55712762D01*
X119637906Y-55712763D01*
X119494091Y-55817250D01*
X119494083Y-55817256D01*
X119488747Y-55821134D01*
X119484330Y-55826039D01*
X119484325Y-55826044D01*
X119441407Y-55873710D01*
X119360960Y-55963056D01*
X119357661Y-55968769D01*
X119357658Y-55968774D01*
X119268776Y-56122722D01*
X119268773Y-56122726D01*
X119265473Y-56128444D01*
X119263435Y-56134715D01*
X119263431Y-56134725D01*
X119224375Y-56254926D01*
X119198178Y-56300300D01*
X119155790Y-56331096D01*
X119104542Y-56341989D01*
X117788978Y-56341989D01*
X117729825Y-56327240D01*
X117684519Y-56286447D01*
X117663668Y-56229160D01*
X117653082Y-56128444D01*
X117646000Y-56061061D01*
X117586985Y-55879433D01*
X117491498Y-55714045D01*
X117363711Y-55572123D01*
X117358369Y-55568242D01*
X117358366Y-55568239D01*
X117258852Y-55495938D01*
X117209210Y-55459871D01*
X117034746Y-55382195D01*
X117028293Y-55380823D01*
X117028289Y-55380822D01*
X116854401Y-55343861D01*
X116854398Y-55343860D01*
X116847945Y-55342489D01*
X116656971Y-55342489D01*
X116650523Y-55343859D01*
X116650509Y-55343861D01*
X116568883Y-55361211D01*
X116537812Y-55362038D01*
X116537759Y-55363749D01*
X116529833Y-55363499D01*
X116522006Y-55362260D01*
X116514122Y-55363005D01*
X116514114Y-55363005D01*
X116477988Y-55366421D01*
X116466130Y-55366980D01*
X110778287Y-55366980D01*
X110767103Y-55366452D01*
X110759611Y-55364778D01*
X110751685Y-55365027D01*
X110691521Y-55366918D01*
X110687563Y-55366980D01*
X110659664Y-55366980D01*
X110655739Y-55367475D01*
X110655718Y-55367477D01*
X110655644Y-55367487D01*
X110643833Y-55368416D01*
X110607554Y-55369556D01*
X110607546Y-55369557D01*
X110599631Y-55369806D01*
X110592020Y-55372016D01*
X110592013Y-55372018D01*
X110580168Y-55375459D01*
X110560823Y-55379465D01*
X110548592Y-55381010D01*
X110548579Y-55381013D01*
X110540723Y-55382006D01*
X110533359Y-55384921D01*
X110533349Y-55384924D01*
X110499612Y-55398282D01*
X110488385Y-55402126D01*
X110453538Y-55412250D01*
X110453533Y-55412252D01*
X110445927Y-55414462D01*
X110439110Y-55418492D01*
X110439101Y-55418497D01*
X110428480Y-55424778D01*
X110410741Y-55433469D01*
X110399269Y-55438011D01*
X110399266Y-55438012D01*
X110391903Y-55440928D01*
X110385496Y-55445582D01*
X110385492Y-55445585D01*
X110356131Y-55466917D01*
X110346213Y-55473431D01*
X110314985Y-55491899D01*
X110314977Y-55491905D01*
X110308158Y-55495938D01*
X110302556Y-55501538D01*
X110302549Y-55501545D01*
X110293828Y-55510266D01*
X110278807Y-55523095D01*
X110268827Y-55530346D01*
X110268818Y-55530353D01*
X110262413Y-55535008D01*
X110257365Y-55541108D01*
X110257356Y-55541118D01*
X110234220Y-55569084D01*
X110226233Y-55577861D01*
X109404726Y-56399368D01*
X109363852Y-56426680D01*
X109315634Y-56436271D01*
X109076397Y-56436271D01*
X109067408Y-56435950D01*
X109004488Y-56431450D01*
X109000000Y-56431129D01*
X108995512Y-56431450D01*
X108929125Y-56436197D01*
X108929097Y-56436200D01*
X108926888Y-56436358D01*
X108924669Y-56436676D01*
X108924660Y-56436678D01*
X108786807Y-56456498D01*
X108786785Y-56456501D01*
X108784573Y-56456820D01*
X108782386Y-56457295D01*
X108782368Y-56457299D01*
X108717348Y-56471444D01*
X108717344Y-56471444D01*
X108712950Y-56472401D01*
X108708748Y-56473967D01*
X108708735Y-56473972D01*
X108646370Y-56497233D01*
X108646349Y-56497241D01*
X108644273Y-56498016D01*
X108642253Y-56498938D01*
X108642230Y-56498948D01*
X108517584Y-56555873D01*
X108517579Y-56555875D01*
X108513488Y-56557744D01*
X108509708Y-56560172D01*
X108509701Y-56560177D01*
X108394263Y-56634364D01*
X108394252Y-56634371D01*
X108390482Y-56636795D01*
X108387086Y-56639736D01*
X108387084Y-56639739D01*
X108283528Y-56729469D01*
X108283514Y-56729481D01*
X108281821Y-56730949D01*
X108280237Y-56732532D01*
X108280223Y-56732546D01*
X108233173Y-56779596D01*
X108192296Y-56806909D01*
X108144078Y-56816500D01*
X107432338Y-56816500D01*
X107381090Y-56805607D01*
X107331194Y-56783392D01*
X107331189Y-56783390D01*
X107325160Y-56780706D01*
X107318707Y-56779334D01*
X107318703Y-56779333D01*
X107144815Y-56742372D01*
X107144812Y-56742371D01*
X107138359Y-56741000D01*
X106947385Y-56741000D01*
X106940932Y-56742371D01*
X106940928Y-56742372D01*
X106767040Y-56779333D01*
X106767033Y-56779335D01*
X106760584Y-56780706D01*
X106754554Y-56783390D01*
X106754553Y-56783391D01*
X106592150Y-56855697D01*
X106592147Y-56855698D01*
X106586120Y-56858382D01*
X106580779Y-56862262D01*
X106580778Y-56862263D01*
X106436963Y-56966750D01*
X106436955Y-56966756D01*
X106431619Y-56970634D01*
X106427202Y-56975539D01*
X106427197Y-56975544D01*
X106333400Y-57079717D01*
X106303832Y-57112556D01*
X106300533Y-57118269D01*
X106300530Y-57118274D01*
X106234075Y-57233378D01*
X106208345Y-57277944D01*
X106206306Y-57284218D01*
X106206302Y-57284228D01*
X106151369Y-57453294D01*
X106151367Y-57453301D01*
X106149330Y-57459572D01*
X106148640Y-57466133D01*
X106148640Y-57466135D01*
X106139700Y-57551197D01*
X106129368Y-57649500D01*
X106149330Y-57839428D01*
X106151367Y-57845700D01*
X106151369Y-57845705D01*
X106206302Y-58014771D01*
X106206305Y-58014778D01*
X106208345Y-58021056D01*
X106277463Y-58140772D01*
X106281391Y-58147576D01*
X106303832Y-58186444D01*
X106431619Y-58328366D01*
X106586120Y-58440618D01*
X106760584Y-58518294D01*
X106947385Y-58558000D01*
X107131756Y-58558000D01*
X107138359Y-58558000D01*
X107325160Y-58518294D01*
X107499624Y-58440618D01*
X107654125Y-58328366D01*
X107771865Y-58197602D01*
X107821580Y-58163816D01*
X107881292Y-58156907D01*
X107937410Y-58178448D01*
X107977162Y-58223538D01*
X107991500Y-58281913D01*
X107991500Y-59298638D01*
X107991859Y-59301985D01*
X107991860Y-59301988D01*
X107997169Y-59351374D01*
X107997169Y-59351378D01*
X107997543Y-59354856D01*
X107997544Y-59354858D01*
X107998011Y-59359201D01*
X107997765Y-59359227D01*
X107999718Y-59397849D01*
X107988027Y-59486659D01*
X107986271Y-59500000D01*
X107986271Y-60121889D01*
X108007080Y-60266622D01*
X108008348Y-60270940D01*
X108008349Y-60270944D01*
X108046318Y-60400257D01*
X108046320Y-60400263D01*
X108047587Y-60404577D01*
X108049451Y-60408660D01*
X108049455Y-60408669D01*
X108106461Y-60533494D01*
X108108330Y-60537586D01*
X108186062Y-60658540D01*
X108229989Y-60717220D01*
X108281821Y-60769051D01*
X108283515Y-60770519D01*
X108283527Y-60770530D01*
X108383537Y-60857187D01*
X108415471Y-60899704D01*
X108427022Y-60951609D01*
X108416577Y-61001530D01*
X108415473Y-61003444D01*
X108413435Y-61009713D01*
X108413433Y-61009720D01*
X108358497Y-61178794D01*
X108358495Y-61178801D01*
X108356458Y-61185072D01*
X108355768Y-61191633D01*
X108355768Y-61191635D01*
X108355616Y-61193085D01*
X108336496Y-61375000D01*
X108337186Y-61381565D01*
X108353890Y-61540500D01*
X108356458Y-61564928D01*
X108358495Y-61571200D01*
X108358497Y-61571205D01*
X108413430Y-61740271D01*
X108413433Y-61740278D01*
X108415473Y-61746556D01*
X108510960Y-61911944D01*
X108638747Y-62053866D01*
X108793248Y-62166118D01*
X108967712Y-62243794D01*
X109096523Y-62271173D01*
X109130448Y-62283689D01*
X109159421Y-62305325D01*
X110841342Y-63987246D01*
X110848884Y-63995533D01*
X110853000Y-64002018D01*
X110858779Y-64007444D01*
X110858780Y-64007446D01*
X110902667Y-64048658D01*
X110905508Y-64051412D01*
X110925230Y-64071134D01*
X110928414Y-64073604D01*
X110937437Y-64081309D01*
X110969679Y-64111586D01*
X110976628Y-64115406D01*
X110987429Y-64121344D01*
X111003959Y-64132202D01*
X111013694Y-64139754D01*
X111013697Y-64139756D01*
X111019959Y-64144613D01*
X111060536Y-64162172D01*
X111071171Y-64167381D01*
X111109940Y-64188695D01*
X111129566Y-64193734D01*
X111148259Y-64200134D01*
X111166855Y-64208181D01*
X111210518Y-64215095D01*
X111222129Y-64217500D01*
X111264970Y-64228500D01*
X111285231Y-64228500D01*
X111304939Y-64230050D01*
X111324943Y-64233219D01*
X111332835Y-64232473D01*
X111338062Y-64231979D01*
X111368954Y-64229058D01*
X111380811Y-64228500D01*
X115649125Y-64228500D01*
X115695611Y-64237389D01*
X115735538Y-64262801D01*
X115898716Y-64416572D01*
X115930867Y-64465625D01*
X115937328Y-64523918D01*
X115916699Y-64578822D01*
X115873452Y-64618438D01*
X115758552Y-64682212D01*
X115758538Y-64682221D01*
X115752963Y-64685316D01*
X115748120Y-64689473D01*
X115748115Y-64689477D01*
X115605419Y-64811978D01*
X115600576Y-64816136D01*
X115596671Y-64821180D01*
X115596667Y-64821185D01*
X115481556Y-64969897D01*
X115477642Y-64974954D01*
X115474829Y-64980688D01*
X115474825Y-64980695D01*
X115392007Y-65149530D01*
X115392003Y-65149539D01*
X115389194Y-65155267D01*
X115387595Y-65161440D01*
X115387592Y-65161450D01*
X115340453Y-65343513D01*
X115338853Y-65349694D01*
X115338529Y-65356066D01*
X115338529Y-65356072D01*
X115329004Y-65543893D01*
X115329004Y-65543898D01*
X115328681Y-65550274D01*
X115359093Y-65748796D01*
X115361310Y-65754783D01*
X115361312Y-65754789D01*
X115426624Y-65931137D01*
X115426626Y-65931142D01*
X115428845Y-65937132D01*
X115432226Y-65942556D01*
X115529793Y-66099088D01*
X115535082Y-66107572D01*
X115539482Y-66112201D01*
X115539483Y-66112202D01*
X115647347Y-66225675D01*
X115673452Y-66253138D01*
X115678698Y-66256789D01*
X115678699Y-66256790D01*
X115833048Y-66364220D01*
X115833052Y-66364222D01*
X115838293Y-66367870D01*
X115860959Y-66377596D01*
X115910008Y-66415110D01*
X115935343Y-66471424D01*
X115930878Y-66533014D01*
X115897686Y-66585085D01*
X115742972Y-66730880D01*
X115738564Y-66735477D01*
X115646508Y-66841773D01*
X115639200Y-66852177D01*
X115621010Y-66884617D01*
X115618098Y-66895982D01*
X115629433Y-66899000D01*
X117985712Y-66899000D01*
X117998342Y-66895852D01*
X118001053Y-66888423D01*
X118001055Y-66887927D01*
X117982879Y-66701149D01*
X117980375Y-66688693D01*
X117924976Y-66509405D01*
X117920010Y-66497694D01*
X117833968Y-66341078D01*
X117818543Y-66286410D01*
X117828696Y-66230523D01*
X117855577Y-66193995D01*
X117854172Y-66192660D01*
X117858578Y-66188023D01*
X117863424Y-66183864D01*
X117986358Y-66025046D01*
X118074806Y-65844733D01*
X118125147Y-65650306D01*
X118129333Y-65567765D01*
X120075788Y-65567765D01*
X120076290Y-65572332D01*
X120076291Y-65572344D01*
X120104910Y-65832444D01*
X120104911Y-65832453D01*
X120105414Y-65837018D01*
X120106576Y-65841463D01*
X120106577Y-65841468D01*
X120131587Y-65937132D01*
X120173928Y-66099088D01*
X120175725Y-66103318D01*
X120175728Y-66103325D01*
X120237424Y-66248506D01*
X120279870Y-66348390D01*
X120282265Y-66352315D01*
X120282266Y-66352316D01*
X120291758Y-66367870D01*
X120420982Y-66579610D01*
X120594255Y-66787820D01*
X120666082Y-66852177D01*
X120792561Y-66965503D01*
X120792565Y-66965506D01*
X120795998Y-66968582D01*
X121021910Y-67118044D01*
X121267176Y-67233020D01*
X121526569Y-67311060D01*
X121794561Y-67350500D01*
X121995330Y-67350500D01*
X121997631Y-67350500D01*
X122200156Y-67335677D01*
X122464553Y-67276780D01*
X122717558Y-67180014D01*
X122953777Y-67047441D01*
X123168177Y-66881888D01*
X123356186Y-66686881D01*
X123513799Y-66466579D01*
X123637656Y-66225675D01*
X123725118Y-65969305D01*
X123774319Y-65702933D01*
X123784212Y-65432235D01*
X123754586Y-65162982D01*
X123686072Y-64900912D01*
X123580130Y-64651610D01*
X123439018Y-64420390D01*
X123265745Y-64212180D01*
X123169698Y-64126122D01*
X123067438Y-64034496D01*
X123067432Y-64034491D01*
X123064002Y-64031418D01*
X122838090Y-63881956D01*
X122592824Y-63766980D01*
X122588420Y-63765655D01*
X122337843Y-63690267D01*
X122337838Y-63690265D01*
X122333431Y-63688940D01*
X122328874Y-63688269D01*
X122328868Y-63688268D01*
X122070000Y-63650171D01*
X122069996Y-63650170D01*
X122065439Y-63649500D01*
X121862369Y-63649500D01*
X121860098Y-63649666D01*
X121860076Y-63649667D01*
X121664438Y-63663986D01*
X121664427Y-63663987D01*
X121659844Y-63664323D01*
X121655353Y-63665323D01*
X121655349Y-63665324D01*
X121399939Y-63722219D01*
X121399934Y-63722220D01*
X121395447Y-63723220D01*
X121391149Y-63724863D01*
X121391145Y-63724865D01*
X121146746Y-63818339D01*
X121146735Y-63818343D01*
X121142442Y-63819986D01*
X121138434Y-63822235D01*
X121138422Y-63822241D01*
X120910232Y-63950308D01*
X120910221Y-63950314D01*
X120906223Y-63952559D01*
X120902589Y-63955364D01*
X120902586Y-63955367D01*
X120695466Y-64115298D01*
X120695458Y-64115305D01*
X120691823Y-64118112D01*
X120688632Y-64121421D01*
X120688625Y-64121428D01*
X120507011Y-64309802D01*
X120507004Y-64309809D01*
X120503814Y-64313119D01*
X120501136Y-64316861D01*
X120501131Y-64316868D01*
X120348885Y-64529668D01*
X120348878Y-64529677D01*
X120346201Y-64533421D01*
X120344097Y-64537512D01*
X120344091Y-64537523D01*
X120235345Y-64749037D01*
X120222344Y-64774325D01*
X120220856Y-64778684D01*
X120220854Y-64778691D01*
X120136371Y-65026327D01*
X120136367Y-65026341D01*
X120134882Y-65030695D01*
X120134044Y-65035228D01*
X120134044Y-65035231D01*
X120086517Y-65292537D01*
X120086515Y-65292546D01*
X120085681Y-65297067D01*
X120085513Y-65301656D01*
X120085512Y-65301668D01*
X120075956Y-65563161D01*
X120075788Y-65567765D01*
X118129333Y-65567765D01*
X118135319Y-65449726D01*
X118104907Y-65251204D01*
X118035155Y-65062868D01*
X117928918Y-64892428D01*
X117848903Y-64808252D01*
X117820061Y-64759336D01*
X117815626Y-64702722D01*
X117836499Y-64649914D01*
X117879731Y-64587225D01*
X117958012Y-64402603D01*
X117997527Y-64206001D01*
X117996657Y-64005470D01*
X117955439Y-63809219D01*
X117946078Y-63787665D01*
X117936520Y-63765655D01*
X117875559Y-63625283D01*
X117760288Y-63461191D01*
X117431332Y-63151199D01*
X117398870Y-63101269D01*
X117392965Y-63042008D01*
X117414937Y-62986654D01*
X117459877Y-62947575D01*
X117517745Y-62933500D01*
X120421233Y-62933500D01*
X120432416Y-62934027D01*
X120439909Y-62935702D01*
X120507985Y-62933562D01*
X120511945Y-62933500D01*
X120535894Y-62933500D01*
X120539856Y-62933500D01*
X120543856Y-62932994D01*
X120555699Y-62932061D01*
X120599889Y-62930673D01*
X120619333Y-62925023D01*
X120638702Y-62921012D01*
X120658797Y-62918474D01*
X120699915Y-62902193D01*
X120711117Y-62898357D01*
X120753593Y-62886018D01*
X120771039Y-62875699D01*
X120788769Y-62867013D01*
X120807617Y-62859552D01*
X120843387Y-62833561D01*
X120853298Y-62827051D01*
X120891362Y-62804542D01*
X120905688Y-62790215D01*
X120920717Y-62777378D01*
X120937107Y-62765472D01*
X120965298Y-62731393D01*
X120973268Y-62722634D01*
X121450499Y-62245404D01*
X121491377Y-62218091D01*
X121539595Y-62208500D01*
X121588884Y-62208500D01*
X121595487Y-62208500D01*
X121782288Y-62168794D01*
X121956752Y-62091118D01*
X122111253Y-61978866D01*
X122239040Y-61836944D01*
X122334527Y-61671556D01*
X122393542Y-61489928D01*
X122413504Y-61300000D01*
X122393542Y-61110072D01*
X122334527Y-60928444D01*
X122239040Y-60763056D01*
X122111253Y-60621134D01*
X122105911Y-60617253D01*
X122105908Y-60617250D01*
X122001470Y-60541372D01*
X121956752Y-60508882D01*
X121782288Y-60431206D01*
X121775835Y-60429834D01*
X121775831Y-60429833D01*
X121601943Y-60392872D01*
X121601940Y-60392871D01*
X121595487Y-60391500D01*
X121404513Y-60391500D01*
X121398060Y-60392871D01*
X121398056Y-60392872D01*
X121224168Y-60429833D01*
X121224161Y-60429835D01*
X121217712Y-60431206D01*
X121211682Y-60433890D01*
X121211681Y-60433891D01*
X121049278Y-60506197D01*
X121049275Y-60506198D01*
X121043248Y-60508882D01*
X121037907Y-60512762D01*
X121037906Y-60512763D01*
X120894091Y-60617250D01*
X120894083Y-60617256D01*
X120888747Y-60621134D01*
X120884330Y-60626039D01*
X120884325Y-60626044D01*
X120765379Y-60758148D01*
X120760960Y-60763056D01*
X120757661Y-60768769D01*
X120757658Y-60768774D01*
X120682066Y-60899704D01*
X120665473Y-60928444D01*
X120663434Y-60934718D01*
X120663430Y-60934728D01*
X120608497Y-61103794D01*
X120608495Y-61103801D01*
X120606458Y-61110072D01*
X120605768Y-61116631D01*
X120605768Y-61116634D01*
X120589093Y-61275291D01*
X120577509Y-61316364D01*
X120552879Y-61351215D01*
X120274500Y-61629595D01*
X120233622Y-61656909D01*
X120185404Y-61666500D01*
X114019542Y-61666500D01*
X113956542Y-61649619D01*
X113910423Y-61603500D01*
X113893542Y-61540500D01*
X113910423Y-61477500D01*
X113959453Y-61392576D01*
X113964421Y-61381697D01*
X114029700Y-61193085D01*
X114029727Y-61192973D01*
X114028289Y-61182973D01*
X114014759Y-61179000D01*
X111327095Y-61179000D01*
X111278877Y-61169409D01*
X111238000Y-61142095D01*
X110516186Y-60420281D01*
X110483195Y-60362345D01*
X110484386Y-60295685D01*
X110491652Y-60270940D01*
X110492920Y-60266622D01*
X110513729Y-60121889D01*
X110513729Y-59500000D01*
X110500280Y-59397849D01*
X110502236Y-59359227D01*
X110501989Y-59359201D01*
X110501988Y-59359201D01*
X110508500Y-59298638D01*
X110508500Y-58201362D01*
X110501989Y-58140799D01*
X110501989Y-58140798D01*
X110502235Y-58140772D01*
X110500280Y-58102149D01*
X110513729Y-58000000D01*
X110513729Y-57378111D01*
X110492920Y-57233378D01*
X110484384Y-57204310D01*
X110483195Y-57137653D01*
X110516184Y-57079719D01*
X110925020Y-56670884D01*
X110965898Y-56643571D01*
X111014116Y-56633980D01*
X111165500Y-56633980D01*
X111228500Y-56650861D01*
X111274619Y-56696980D01*
X111291500Y-56759980D01*
X111291500Y-57322338D01*
X111291500Y-57322357D01*
X111291501Y-57325544D01*
X111291825Y-57328721D01*
X111291826Y-57328729D01*
X111299430Y-57403168D01*
X111302113Y-57429426D01*
X111304272Y-57435943D01*
X111304274Y-57435950D01*
X111355577Y-57590774D01*
X111355578Y-57590776D01*
X111357885Y-57597738D01*
X111361732Y-57603976D01*
X111361735Y-57603981D01*
X111447116Y-57742404D01*
X111450970Y-57748652D01*
X111576348Y-57874030D01*
X111582596Y-57877883D01*
X111582595Y-57877883D01*
X111628350Y-57906105D01*
X111670435Y-57948834D01*
X111687999Y-58006179D01*
X111677062Y-58065148D01*
X111640101Y-58112381D01*
X111636292Y-58115376D01*
X111636286Y-58115381D01*
X111631568Y-58119092D01*
X111627638Y-58123626D01*
X111627633Y-58123632D01*
X111496867Y-58274543D01*
X111496861Y-58274550D01*
X111492935Y-58279082D01*
X111489933Y-58284281D01*
X111489932Y-58284283D01*
X111390089Y-58457217D01*
X111390086Y-58457223D01*
X111387087Y-58462418D01*
X111385125Y-58468086D01*
X111385123Y-58468091D01*
X111319811Y-58656796D01*
X111319809Y-58656804D01*
X111317847Y-58662473D01*
X111316993Y-58668410D01*
X111316991Y-58668420D01*
X111302886Y-58766526D01*
X111287719Y-58872016D01*
X111297792Y-59083474D01*
X111299207Y-59089307D01*
X111299208Y-59089313D01*
X111321592Y-59181579D01*
X111347702Y-59289204D01*
X111350196Y-59294665D01*
X111433150Y-59476311D01*
X111433152Y-59476315D01*
X111435644Y-59481771D01*
X111558441Y-59654215D01*
X111711654Y-59800303D01*
X111716699Y-59803545D01*
X111716700Y-59803546D01*
X111742249Y-59819966D01*
X111783247Y-59862964D01*
X111799984Y-59919968D01*
X111788741Y-59978305D01*
X111752015Y-60025005D01*
X111636633Y-60115742D01*
X111627986Y-60123987D01*
X111497276Y-60274834D01*
X111490340Y-60284574D01*
X111390546Y-60457424D01*
X111385578Y-60468302D01*
X111320299Y-60656914D01*
X111320272Y-60657026D01*
X111321710Y-60667026D01*
X111335241Y-60671000D01*
X114014216Y-60671000D01*
X114025281Y-60668454D01*
X114025146Y-60657096D01*
X114003238Y-60566792D01*
X113999332Y-60555504D01*
X113916414Y-60373939D01*
X113910439Y-60363591D01*
X113794660Y-60201001D01*
X113786835Y-60191971D01*
X113642384Y-60054237D01*
X113632988Y-60046848D01*
X113607780Y-60030648D01*
X113566781Y-59987649D01*
X113550043Y-59930644D01*
X113561287Y-59872306D01*
X113598012Y-59825607D01*
X113718432Y-59730908D01*
X113857065Y-59570918D01*
X113962913Y-59387582D01*
X114032153Y-59187527D01*
X114062281Y-58977984D01*
X114052208Y-58766526D01*
X114002298Y-58560796D01*
X113914356Y-58368229D01*
X113791559Y-58195785D01*
X113787216Y-58191644D01*
X113787211Y-58191638D01*
X113697819Y-58106403D01*
X113666511Y-58058698D01*
X113659456Y-58002075D01*
X113678101Y-57948146D01*
X113718619Y-57907974D01*
X113773652Y-57874030D01*
X113899030Y-57748652D01*
X113992115Y-57597738D01*
X114047100Y-57431800D01*
X114080878Y-57379186D01*
X114135793Y-57349286D01*
X114198321Y-57349467D01*
X114253062Y-57379686D01*
X114286536Y-57432499D01*
X114313431Y-57515273D01*
X114313432Y-57515277D01*
X114315473Y-57521556D01*
X114410960Y-57686944D01*
X114538747Y-57828866D01*
X114544089Y-57832747D01*
X114544091Y-57832749D01*
X114553284Y-57839428D01*
X114693248Y-57941118D01*
X114867712Y-58018794D01*
X115054513Y-58058500D01*
X115238884Y-58058500D01*
X115245487Y-58058500D01*
X115432288Y-58018794D01*
X115606752Y-57941118D01*
X115761253Y-57828866D01*
X115889040Y-57686944D01*
X115897674Y-57671988D01*
X115943792Y-57625870D01*
X116006793Y-57608989D01*
X119345744Y-57608989D01*
X119356927Y-57609516D01*
X119364420Y-57611191D01*
X119432496Y-57609051D01*
X119436456Y-57608989D01*
X119460405Y-57608989D01*
X119464367Y-57608989D01*
X119468367Y-57608483D01*
X119480210Y-57607550D01*
X119524400Y-57606162D01*
X119543844Y-57600512D01*
X119563213Y-57596501D01*
X119583308Y-57593963D01*
X119624426Y-57577682D01*
X119635628Y-57573846D01*
X119678104Y-57561507D01*
X119695550Y-57551188D01*
X119713280Y-57542502D01*
X119732128Y-57535041D01*
X119767898Y-57509050D01*
X119777809Y-57502540D01*
X119815873Y-57480031D01*
X119830199Y-57465704D01*
X119845228Y-57452867D01*
X119861618Y-57440961D01*
X119866675Y-57434846D01*
X119866975Y-57434566D01*
X119919347Y-57405055D01*
X119979428Y-57403168D01*
X120004513Y-57408500D01*
X120188884Y-57408500D01*
X120195487Y-57408500D01*
X120382288Y-57368794D01*
X120556752Y-57291118D01*
X120711253Y-57178866D01*
X120839040Y-57036944D01*
X120886778Y-56954257D01*
X120928416Y-56910853D01*
X120985436Y-56891696D01*
X121044839Y-56901156D01*
X121093088Y-56937077D01*
X122128101Y-58191638D01*
X123724227Y-60126336D01*
X123778280Y-60191854D01*
X123778649Y-60192304D01*
X124981127Y-61666500D01*
X125475259Y-62272289D01*
X125473591Y-62273649D01*
X125474006Y-62274130D01*
X125475624Y-62272732D01*
X125521305Y-62325576D01*
X125521813Y-62326167D01*
X125597686Y-62415210D01*
X125619756Y-62452685D01*
X126181365Y-63950308D01*
X126191977Y-63978605D01*
X126200000Y-64022847D01*
X126200000Y-67729538D01*
X126184926Y-67789299D01*
X126127354Y-67896163D01*
X126124174Y-67901722D01*
X126036815Y-68045821D01*
X126033356Y-68051213D01*
X125876650Y-68282326D01*
X125874445Y-68285474D01*
X125783189Y-68411600D01*
X125777677Y-68418673D01*
X125626010Y-68599643D01*
X125597517Y-68633643D01*
X125579674Y-68654933D01*
X125536388Y-68688179D01*
X125483104Y-68700000D01*
X99287942Y-68700000D01*
X99286104Y-68699528D01*
X99284487Y-68700000D01*
X99284396Y-68700000D01*
X99222263Y-68683615D01*
X99196453Y-68658412D01*
X99195613Y-68659212D01*
X99187173Y-68650340D01*
X99180645Y-68640082D01*
X99180708Y-68640024D01*
X99180393Y-68639686D01*
X99180369Y-68639648D01*
X99180342Y-68639629D01*
X99148820Y-68602913D01*
X99147988Y-68601934D01*
X98993872Y-68418673D01*
X98902221Y-68309690D01*
X98896704Y-68302631D01*
X98805485Y-68176943D01*
X98803309Y-68173848D01*
X98646483Y-67943230D01*
X98643011Y-67937833D01*
X98555665Y-67794138D01*
X98552486Y-67788595D01*
X98419990Y-67543249D01*
X98418216Y-67539840D01*
X98348641Y-67401005D01*
X98344914Y-67392851D01*
X98309611Y-67307727D01*
X98300000Y-67259461D01*
X98300000Y-65567765D01*
X101015788Y-65567765D01*
X101016290Y-65572332D01*
X101016291Y-65572344D01*
X101044910Y-65832444D01*
X101044911Y-65832453D01*
X101045414Y-65837018D01*
X101046576Y-65841463D01*
X101046577Y-65841468D01*
X101071587Y-65937132D01*
X101113928Y-66099088D01*
X101115725Y-66103318D01*
X101115728Y-66103325D01*
X101177424Y-66248506D01*
X101219870Y-66348390D01*
X101222265Y-66352315D01*
X101222266Y-66352316D01*
X101231758Y-66367870D01*
X101360982Y-66579610D01*
X101534255Y-66787820D01*
X101606082Y-66852177D01*
X101732561Y-66965503D01*
X101732565Y-66965506D01*
X101735998Y-66968582D01*
X101961910Y-67118044D01*
X102207176Y-67233020D01*
X102466569Y-67311060D01*
X102734561Y-67350500D01*
X102935330Y-67350500D01*
X102937631Y-67350500D01*
X103140156Y-67335677D01*
X103310918Y-67297638D01*
X106668500Y-67297638D01*
X106668859Y-67300985D01*
X106668860Y-67300988D01*
X106674168Y-67350367D01*
X106674169Y-67350373D01*
X106675011Y-67358201D01*
X106677762Y-67365578D01*
X106677763Y-67365580D01*
X106722962Y-67486763D01*
X106722964Y-67486766D01*
X106726111Y-67495204D01*
X106731508Y-67502414D01*
X106731510Y-67502417D01*
X106808191Y-67604850D01*
X106813739Y-67612261D01*
X106930796Y-67699889D01*
X107067799Y-67750989D01*
X107128362Y-67757500D01*
X109004269Y-67757500D01*
X109007638Y-67757500D01*
X109068201Y-67750989D01*
X109205204Y-67699889D01*
X109322261Y-67612261D01*
X109409889Y-67495204D01*
X109438658Y-67418072D01*
X115462944Y-67418072D01*
X115481120Y-67604850D01*
X115483624Y-67617306D01*
X115539023Y-67796594D01*
X115543989Y-67808305D01*
X115634341Y-67972766D01*
X115641558Y-67983232D01*
X115763173Y-68126146D01*
X115772351Y-68134946D01*
X115920238Y-68250448D01*
X115931002Y-68257222D01*
X116099118Y-68340593D01*
X116111013Y-68345057D01*
X116292473Y-68392881D01*
X116305037Y-68394861D01*
X116460847Y-68403441D01*
X116474311Y-68400487D01*
X116478000Y-68387209D01*
X116478000Y-68228248D01*
X116986000Y-68228248D01*
X116989075Y-68239558D01*
X117000317Y-68236234D01*
X117050400Y-68205318D01*
X117060489Y-68197578D01*
X117721018Y-67575128D01*
X117725435Y-67570522D01*
X117817491Y-67464226D01*
X117824799Y-67453822D01*
X117842989Y-67421382D01*
X117845901Y-67410017D01*
X117834567Y-67407000D01*
X117002590Y-67407000D01*
X116989506Y-67410506D01*
X116986000Y-67423590D01*
X116986000Y-68228248D01*
X116478000Y-68228248D01*
X116478000Y-67423590D01*
X116474493Y-67410506D01*
X116461410Y-67407000D01*
X115478288Y-67407000D01*
X115465657Y-67410147D01*
X115462946Y-67417576D01*
X115462944Y-67418072D01*
X109438658Y-67418072D01*
X109460989Y-67358201D01*
X109467500Y-67297638D01*
X109467500Y-66242362D01*
X109460989Y-66181799D01*
X109409889Y-66044796D01*
X109395104Y-66025046D01*
X109333353Y-65942556D01*
X109322261Y-65927739D01*
X109219041Y-65850469D01*
X109212417Y-65845510D01*
X109212414Y-65845508D01*
X109205204Y-65840111D01*
X109196766Y-65836964D01*
X109196763Y-65836962D01*
X109075580Y-65791763D01*
X109075578Y-65791762D01*
X109068201Y-65789011D01*
X109060373Y-65788169D01*
X109060367Y-65788168D01*
X109010988Y-65782860D01*
X109010985Y-65782859D01*
X109007638Y-65782500D01*
X107128362Y-65782500D01*
X107125015Y-65782859D01*
X107125011Y-65782860D01*
X107075632Y-65788168D01*
X107075625Y-65788169D01*
X107067799Y-65789011D01*
X107060423Y-65791761D01*
X107060419Y-65791763D01*
X106939236Y-65836962D01*
X106939230Y-65836965D01*
X106930796Y-65840111D01*
X106923588Y-65845506D01*
X106923582Y-65845510D01*
X106820950Y-65922340D01*
X106820946Y-65922343D01*
X106813739Y-65927739D01*
X106808343Y-65934946D01*
X106808340Y-65934950D01*
X106731510Y-66037582D01*
X106731506Y-66037588D01*
X106726111Y-66044796D01*
X106722965Y-66053230D01*
X106722962Y-66053236D01*
X106677763Y-66174419D01*
X106677761Y-66174423D01*
X106675011Y-66181799D01*
X106674169Y-66189625D01*
X106674168Y-66189632D01*
X106668860Y-66239011D01*
X106668500Y-66242362D01*
X106668500Y-67297638D01*
X103310918Y-67297638D01*
X103404553Y-67276780D01*
X103657558Y-67180014D01*
X103893777Y-67047441D01*
X104108177Y-66881888D01*
X104296186Y-66686881D01*
X104453799Y-66466579D01*
X104577656Y-66225675D01*
X104665118Y-65969305D01*
X104714319Y-65702933D01*
X104724212Y-65432235D01*
X104694586Y-65162982D01*
X104626072Y-64900912D01*
X104520130Y-64651610D01*
X104419526Y-64486765D01*
X106701526Y-64486765D01*
X106702845Y-64498287D01*
X106763078Y-64660919D01*
X106768677Y-64672334D01*
X106868099Y-64831842D01*
X106875880Y-64841893D01*
X107005380Y-64978127D01*
X107015022Y-64986404D01*
X107169289Y-65093778D01*
X107180410Y-65099951D01*
X107353131Y-65174071D01*
X107365265Y-65177878D01*
X107549371Y-65215713D01*
X107562025Y-65217000D01*
X107797410Y-65217000D01*
X107810493Y-65213493D01*
X107814000Y-65200410D01*
X108322000Y-65200410D01*
X108325506Y-65213493D01*
X108338590Y-65217000D01*
X108526854Y-65217000D01*
X108533233Y-65216676D01*
X108673352Y-65202428D01*
X108685799Y-65199870D01*
X108865146Y-65143599D01*
X108876823Y-65138588D01*
X109041157Y-65047374D01*
X109051597Y-65040108D01*
X109194217Y-64917674D01*
X109202968Y-64908468D01*
X109318016Y-64759836D01*
X109324747Y-64749037D01*
X109407521Y-64580294D01*
X109411935Y-64568374D01*
X109430165Y-64497967D01*
X109430454Y-64486575D01*
X109419356Y-64484000D01*
X108338590Y-64484000D01*
X108325506Y-64487506D01*
X108322000Y-64500590D01*
X108322000Y-65200410D01*
X107814000Y-65200410D01*
X107814000Y-64500590D01*
X107810493Y-64487506D01*
X107797410Y-64484000D01*
X106712792Y-64484000D01*
X106701526Y-64486765D01*
X104419526Y-64486765D01*
X104379018Y-64420390D01*
X104205745Y-64212180D01*
X104109698Y-64126122D01*
X104007438Y-64034496D01*
X104007432Y-64034491D01*
X104004002Y-64031418D01*
X103916344Y-63973424D01*
X106705545Y-63973424D01*
X106716644Y-63976000D01*
X107797410Y-63976000D01*
X107810493Y-63972493D01*
X107814000Y-63959410D01*
X108322000Y-63959410D01*
X108325506Y-63972493D01*
X108338590Y-63976000D01*
X109423208Y-63976000D01*
X109434473Y-63973234D01*
X109433154Y-63961712D01*
X109372921Y-63799080D01*
X109367322Y-63787665D01*
X109267900Y-63628157D01*
X109260119Y-63618106D01*
X109130619Y-63481872D01*
X109120977Y-63473595D01*
X108966710Y-63366221D01*
X108955589Y-63360048D01*
X108782868Y-63285928D01*
X108770734Y-63282121D01*
X108586628Y-63244286D01*
X108573975Y-63243000D01*
X108338590Y-63243000D01*
X108325506Y-63246506D01*
X108322000Y-63259590D01*
X108322000Y-63959410D01*
X107814000Y-63959410D01*
X107814000Y-63259590D01*
X107810493Y-63246506D01*
X107797410Y-63243000D01*
X107609146Y-63243000D01*
X107602766Y-63243323D01*
X107462647Y-63257571D01*
X107450200Y-63260129D01*
X107270853Y-63316400D01*
X107259176Y-63321411D01*
X107094842Y-63412625D01*
X107084402Y-63419891D01*
X106941782Y-63542325D01*
X106933031Y-63551531D01*
X106817983Y-63700163D01*
X106811252Y-63710962D01*
X106728478Y-63879705D01*
X106724064Y-63891625D01*
X106705834Y-63962032D01*
X106705545Y-63973424D01*
X103916344Y-63973424D01*
X103778090Y-63881956D01*
X103532824Y-63766980D01*
X103528420Y-63765655D01*
X103277843Y-63690267D01*
X103277838Y-63690265D01*
X103273431Y-63688940D01*
X103268874Y-63688269D01*
X103268868Y-63688268D01*
X103010000Y-63650171D01*
X103009996Y-63650170D01*
X103005439Y-63649500D01*
X102802369Y-63649500D01*
X102800098Y-63649666D01*
X102800076Y-63649667D01*
X102604438Y-63663986D01*
X102604427Y-63663987D01*
X102599844Y-63664323D01*
X102595353Y-63665323D01*
X102595349Y-63665324D01*
X102339939Y-63722219D01*
X102339934Y-63722220D01*
X102335447Y-63723220D01*
X102331149Y-63724863D01*
X102331145Y-63724865D01*
X102086746Y-63818339D01*
X102086735Y-63818343D01*
X102082442Y-63819986D01*
X102078434Y-63822235D01*
X102078422Y-63822241D01*
X101850232Y-63950308D01*
X101850221Y-63950314D01*
X101846223Y-63952559D01*
X101842589Y-63955364D01*
X101842586Y-63955367D01*
X101635466Y-64115298D01*
X101635458Y-64115305D01*
X101631823Y-64118112D01*
X101628632Y-64121421D01*
X101628625Y-64121428D01*
X101447011Y-64309802D01*
X101447004Y-64309809D01*
X101443814Y-64313119D01*
X101441136Y-64316861D01*
X101441131Y-64316868D01*
X101288885Y-64529668D01*
X101288878Y-64529677D01*
X101286201Y-64533421D01*
X101284097Y-64537512D01*
X101284091Y-64537523D01*
X101175345Y-64749037D01*
X101162344Y-64774325D01*
X101160856Y-64778684D01*
X101160854Y-64778691D01*
X101076371Y-65026327D01*
X101076367Y-65026341D01*
X101074882Y-65030695D01*
X101074044Y-65035228D01*
X101074044Y-65035231D01*
X101026517Y-65292537D01*
X101026515Y-65292546D01*
X101025681Y-65297067D01*
X101025513Y-65301656D01*
X101025512Y-65301668D01*
X101015956Y-65563161D01*
X101015788Y-65567765D01*
X98300000Y-65567765D01*
X98300000Y-63707304D01*
X98308374Y-63662136D01*
X98317081Y-63639464D01*
X98320118Y-63632243D01*
X98379756Y-63502074D01*
X98381124Y-63499193D01*
X98486887Y-63283874D01*
X98489399Y-63279038D01*
X98563279Y-63144290D01*
X98566045Y-63139504D01*
X98690636Y-62934671D01*
X98692366Y-62931911D01*
X98723699Y-62883394D01*
X98732006Y-62871991D01*
X99874274Y-61475886D01*
X99875772Y-61474092D01*
X105840551Y-54469808D01*
X105883647Y-54437112D01*
X105936481Y-54425500D01*
X118961642Y-54425500D01*
X119015367Y-54437528D01*
G37*
%TD.AperFunction*%
%TD*%
M02*
