%TF.GenerationSoftware,KiCad,Pcbnew,(7.0.0-0)*%
%TF.CreationDate,2023-03-02T14:09:57-08:00*%
%TF.ProjectId,Tap_Photosensor_PCB,5461705f-5068-46f7-946f-73656e736f72,rev?*%
%TF.SameCoordinates,Original*%
%TF.FileFunction,Legend,Bot*%
%TF.FilePolarity,Positive*%
%FSLAX46Y46*%
G04 Gerber Fmt 4.6, Leading zero omitted, Abs format (unit mm)*
G04 Created by KiCad (PCBNEW (7.0.0-0)) date 2023-03-02 14:09:57*
%MOMM*%
%LPD*%
G01*
G04 APERTURE LIST*
G04 Aperture macros list*
%AMRoundRect*
0 Rectangle with rounded corners*
0 $1 Rounding radius*
0 $2 $3 $4 $5 $6 $7 $8 $9 X,Y pos of 4 corners*
0 Add a 4 corners polygon primitive as box body*
4,1,4,$2,$3,$4,$5,$6,$7,$8,$9,$2,$3,0*
0 Add four circle primitives for the rounded corners*
1,1,$1+$1,$2,$3*
1,1,$1+$1,$4,$5*
1,1,$1+$1,$6,$7*
1,1,$1+$1,$8,$9*
0 Add four rect primitives between the rounded corners*
20,1,$1+$1,$2,$3,$4,$5,0*
20,1,$1+$1,$4,$5,$6,$7,0*
20,1,$1+$1,$6,$7,$8,$9,0*
20,1,$1+$1,$8,$9,$2,$3,0*%
%AMHorizOval*
0 Thick line with rounded ends*
0 $1 width*
0 $2 $3 position (X,Y) of the first rounded end (center of the circle)*
0 $4 $5 position (X,Y) of the second rounded end (center of the circle)*
0 Add line between two ends*
20,1,$1,$2,$3,$4,$5,0*
0 Add two circle primitives to create the rounded ends*
1,1,$1,$2,$3*
1,1,$1,$4,$5*%
%AMFreePoly0*
4,1,19,0.550000,-0.750000,0.000000,-0.750000,0.000000,-0.744911,-0.071157,-0.744911,-0.207708,-0.704816,-0.327430,-0.627875,-0.420627,-0.520320,-0.479746,-0.390866,-0.500000,-0.250000,-0.500000,0.250000,-0.479746,0.390866,-0.420627,0.520320,-0.327430,0.627875,-0.207708,0.704816,-0.071157,0.744911,0.000000,0.744911,0.000000,0.750000,0.550000,0.750000,0.550000,-0.750000,0.550000,-0.750000,
$1*%
%AMFreePoly1*
4,1,19,0.000000,0.744911,0.071157,0.744911,0.207708,0.704816,0.327430,0.627875,0.420627,0.520320,0.479746,0.390866,0.500000,0.250000,0.500000,-0.250000,0.479746,-0.390866,0.420627,-0.520320,0.327430,-0.627875,0.207708,-0.704816,0.071157,-0.744911,0.000000,-0.744911,0.000000,-0.750000,-0.550000,-0.750000,-0.550000,0.750000,0.000000,0.750000,0.000000,0.744911,0.000000,0.744911,
$1*%
G04 Aperture macros list end*
%ADD10C,0.150000*%
%ADD11C,0.200000*%
%ADD12C,0.100000*%
%ADD13C,0.120000*%
%ADD14C,0.127000*%
%ADD15RoundRect,0.250000X-0.625000X0.350000X-0.625000X-0.350000X0.625000X-0.350000X0.625000X0.350000X0*%
%ADD16O,1.750000X1.200000*%
%ADD17C,3.200000*%
%ADD18R,1.782000X0.958000*%
%ADD19O,1.782000X0.958000*%
%ADD20HorizOval,0.955000X0.279101X-0.263011X-0.279101X0.263011X0*%
%ADD21HorizOval,0.955000X0.279101X0.263011X-0.279101X-0.263011X0*%
%ADD22FreePoly0,90.000000*%
%ADD23R,1.500000X1.000000*%
%ADD24FreePoly1,90.000000*%
G04 APERTURE END LIST*
D10*
X110725000Y-59400362D02*
X107875000Y-59399638D01*
D11*
G36*
X123324609Y-60469371D02*
G01*
X123343652Y-60470766D01*
X123362816Y-60473424D01*
X123382101Y-60477347D01*
X123401506Y-60482533D01*
X123421031Y-60488984D01*
X123440677Y-60496698D01*
X123460443Y-60505677D01*
X123480329Y-60515919D01*
X123500336Y-60527426D01*
X123520464Y-60540197D01*
X123540712Y-60554231D01*
X123561080Y-60569530D01*
X123581569Y-60586093D01*
X123602178Y-60603920D01*
X123622908Y-60623011D01*
X123643758Y-60643365D01*
X123664728Y-60664984D01*
X123685819Y-60687867D01*
X123707030Y-60712014D01*
X123728362Y-60737425D01*
X123748904Y-60762995D01*
X123768234Y-60788213D01*
X123786351Y-60813079D01*
X123803257Y-60837594D01*
X123818951Y-60861756D01*
X123833432Y-60885567D01*
X123846702Y-60909026D01*
X123858760Y-60932133D01*
X123869605Y-60954888D01*
X123879239Y-60977292D01*
X123887660Y-60999343D01*
X123894869Y-61021043D01*
X123900867Y-61042391D01*
X123905652Y-61063387D01*
X123909226Y-61084032D01*
X123911587Y-61104324D01*
X123912736Y-61124265D01*
X123912673Y-61143854D01*
X123911399Y-61163091D01*
X123908912Y-61181976D01*
X123905213Y-61200509D01*
X123900302Y-61218691D01*
X123894179Y-61236520D01*
X123886844Y-61253998D01*
X123878297Y-61271124D01*
X123868538Y-61287899D01*
X123857567Y-61304321D01*
X123845384Y-61320392D01*
X123831989Y-61336111D01*
X123817382Y-61351477D01*
X123801562Y-61366493D01*
X123784531Y-61381156D01*
X123318960Y-61763580D01*
X123302211Y-61776664D01*
X123285322Y-61788516D01*
X123268294Y-61799135D01*
X123251126Y-61808521D01*
X123233818Y-61816674D01*
X123216370Y-61823595D01*
X123198783Y-61829283D01*
X123181057Y-61833739D01*
X123163190Y-61836961D01*
X123145184Y-61838951D01*
X123127039Y-61839709D01*
X123108753Y-61839233D01*
X123090329Y-61837525D01*
X123071764Y-61834584D01*
X123053060Y-61830411D01*
X123034216Y-61825005D01*
X123015233Y-61818366D01*
X122996110Y-61810494D01*
X122976847Y-61801390D01*
X122957445Y-61791053D01*
X122937903Y-61779483D01*
X122918221Y-61766681D01*
X122898400Y-61752645D01*
X122878439Y-61737378D01*
X122858338Y-61720877D01*
X122838098Y-61703144D01*
X122817718Y-61684178D01*
X122797199Y-61663979D01*
X122776540Y-61642548D01*
X122755741Y-61619884D01*
X122734803Y-61595987D01*
X122713725Y-61570858D01*
X122704279Y-61559235D01*
X122695069Y-61547651D01*
X122686094Y-61536107D01*
X122677354Y-61524601D01*
X122668849Y-61513135D01*
X122660580Y-61501708D01*
X122652547Y-61490320D01*
X122644748Y-61478972D01*
X122629857Y-61456392D01*
X122615907Y-61433970D01*
X122602898Y-61411704D01*
X122590831Y-61389595D01*
X122579705Y-61367643D01*
X122569520Y-61345848D01*
X122560276Y-61324209D01*
X122551974Y-61302727D01*
X122544612Y-61281402D01*
X122538192Y-61260234D01*
X122532714Y-61239223D01*
X122531023Y-61231452D01*
X122673531Y-61231452D01*
X122675033Y-61256820D01*
X122679634Y-61283191D01*
X122683096Y-61296752D01*
X122687332Y-61310563D01*
X122692343Y-61324626D01*
X122698128Y-61338938D01*
X122704688Y-61353502D01*
X122712023Y-61368316D01*
X122720131Y-61383380D01*
X122729015Y-61398695D01*
X122738673Y-61414261D01*
X122749105Y-61430077D01*
X122760312Y-61446144D01*
X122772294Y-61462461D01*
X122785049Y-61479029D01*
X122798580Y-61495847D01*
X122812610Y-61512581D01*
X122826540Y-61528501D01*
X122840369Y-61543607D01*
X122854098Y-61557897D01*
X122867727Y-61571373D01*
X122881255Y-61584035D01*
X122894682Y-61595882D01*
X122908009Y-61606914D01*
X122921236Y-61617132D01*
X122934362Y-61626535D01*
X122947388Y-61635123D01*
X122960314Y-61642897D01*
X122973139Y-61649856D01*
X122985863Y-61656001D01*
X122998487Y-61661330D01*
X123023434Y-61669547D01*
X123047979Y-61674504D01*
X123072123Y-61676203D01*
X123095864Y-61674644D01*
X123119204Y-61669826D01*
X123142142Y-61661750D01*
X123164678Y-61650416D01*
X123186813Y-61635822D01*
X123197729Y-61627304D01*
X123677304Y-61233377D01*
X123683596Y-61228094D01*
X123695485Y-61217408D01*
X123706449Y-61206564D01*
X123716486Y-61195560D01*
X123725598Y-61184397D01*
X123733784Y-61173075D01*
X123744327Y-61155794D01*
X123752787Y-61138155D01*
X123759164Y-61120157D01*
X123763458Y-61101802D01*
X123765668Y-61083089D01*
X123765796Y-61064018D01*
X123763840Y-61044588D01*
X123761487Y-61031351D01*
X123758413Y-61017905D01*
X123754617Y-61004250D01*
X123750099Y-60990385D01*
X123744860Y-60976311D01*
X123738899Y-60962027D01*
X123732216Y-60947534D01*
X123724812Y-60932832D01*
X123716686Y-60917921D01*
X123707838Y-60902800D01*
X123698269Y-60887470D01*
X123687979Y-60871931D01*
X123676967Y-60856182D01*
X123665233Y-60840224D01*
X123652777Y-60824057D01*
X123639600Y-60807680D01*
X123625638Y-60791053D01*
X123611749Y-60775257D01*
X123597934Y-60760293D01*
X123584193Y-60746161D01*
X123570525Y-60732859D01*
X123556931Y-60720389D01*
X123543411Y-60708751D01*
X123529964Y-60697944D01*
X123516591Y-60687969D01*
X123503292Y-60678825D01*
X123490066Y-60670512D01*
X123476914Y-60663031D01*
X123463835Y-60656381D01*
X123450830Y-60650563D01*
X123437899Y-60645576D01*
X123412257Y-60638096D01*
X123386910Y-60633943D01*
X123361858Y-60633115D01*
X123337100Y-60635613D01*
X123312636Y-60641436D01*
X123288468Y-60650586D01*
X123264593Y-60663061D01*
X123252767Y-60670545D01*
X123241014Y-60678862D01*
X123229334Y-60688009D01*
X122749759Y-61081936D01*
X122729576Y-61100289D01*
X122712490Y-61119644D01*
X122698502Y-61140001D01*
X122687612Y-61161360D01*
X122679821Y-61183722D01*
X122675127Y-61207086D01*
X122673531Y-61231452D01*
X122531023Y-61231452D01*
X122528176Y-61218369D01*
X122524825Y-61197759D01*
X122522838Y-61177535D01*
X122522216Y-61157698D01*
X122522959Y-61138246D01*
X122525066Y-61119181D01*
X122528538Y-61100503D01*
X122533375Y-61082210D01*
X122539577Y-61064304D01*
X122547144Y-61046784D01*
X122556075Y-61029650D01*
X122566371Y-61012903D01*
X122578032Y-60996542D01*
X122591058Y-60980567D01*
X122605449Y-60964978D01*
X122621204Y-60949776D01*
X122638324Y-60934959D01*
X123105480Y-60551233D01*
X123123078Y-60537459D01*
X123140797Y-60524949D01*
X123158636Y-60513703D01*
X123176596Y-60503721D01*
X123194676Y-60495003D01*
X123212877Y-60487550D01*
X123231198Y-60481360D01*
X123249639Y-60476434D01*
X123268201Y-60472772D01*
X123286883Y-60470375D01*
X123305686Y-60469241D01*
X123324609Y-60469371D01*
G37*
G36*
X122362311Y-59756827D02*
G01*
X122376392Y-59757861D01*
X122390678Y-59759661D01*
X122405167Y-59762227D01*
X122419723Y-59765596D01*
X122434262Y-59769871D01*
X122448785Y-59775051D01*
X122463291Y-59781137D01*
X122477780Y-59788128D01*
X122492253Y-59796025D01*
X122506709Y-59804828D01*
X122521148Y-59814536D01*
X122535570Y-59825150D01*
X122549976Y-59836669D01*
X122564365Y-59849094D01*
X122578738Y-59862425D01*
X122593094Y-59876662D01*
X122607433Y-59891804D01*
X122621755Y-59907851D01*
X122636061Y-59924804D01*
X122647771Y-59939253D01*
X122658944Y-59953433D01*
X122669581Y-59967345D01*
X122679681Y-59980989D01*
X122689245Y-59994365D01*
X122698272Y-60007473D01*
X122706763Y-60020313D01*
X122714717Y-60032884D01*
X122722135Y-60045188D01*
X122729016Y-60057224D01*
X122741169Y-60080492D01*
X122751176Y-60102687D01*
X122759037Y-60123811D01*
X122764753Y-60143862D01*
X122768322Y-60162841D01*
X122769745Y-60180748D01*
X122769023Y-60197583D01*
X122766154Y-60213346D01*
X122761140Y-60228036D01*
X122753979Y-60241655D01*
X122744673Y-60254201D01*
X122745975Y-60255787D01*
X122826829Y-60189372D01*
X122937520Y-60324129D01*
X121888004Y-61186211D01*
X121776011Y-61049869D01*
X122139326Y-60751439D01*
X122123578Y-60753303D01*
X122109363Y-60752022D01*
X122094155Y-60748164D01*
X122081273Y-60743223D01*
X122067757Y-60736632D01*
X122053604Y-60728393D01*
X122038816Y-60718504D01*
X122031286Y-60713055D01*
X122020074Y-60704533D01*
X122008963Y-60695595D01*
X121997953Y-60686239D01*
X121987043Y-60676466D01*
X121976234Y-60666275D01*
X121965526Y-60655668D01*
X121954919Y-60644643D01*
X121944412Y-60633201D01*
X121934005Y-60621342D01*
X121923700Y-60609066D01*
X121917562Y-60601558D01*
X121908638Y-60590506D01*
X121900052Y-60579704D01*
X121889131Y-60565693D01*
X121878811Y-60552127D01*
X121869092Y-60539008D01*
X121859975Y-60526335D01*
X121851460Y-60514108D01*
X121843546Y-60502327D01*
X121835169Y-60489503D01*
X121827109Y-60476390D01*
X121819366Y-60462990D01*
X121811939Y-60449302D01*
X121804829Y-60435327D01*
X121798036Y-60421063D01*
X121791559Y-60406512D01*
X121785399Y-60391673D01*
X121783928Y-60387909D01*
X121778577Y-60373090D01*
X121774076Y-60358651D01*
X121770427Y-60344591D01*
X121770268Y-60343814D01*
X121907375Y-60343814D01*
X121908033Y-60358391D01*
X121910551Y-60373365D01*
X121914928Y-60388734D01*
X121921164Y-60404499D01*
X121925792Y-60414272D01*
X121933109Y-60428067D01*
X121941738Y-60442734D01*
X121949070Y-60454308D01*
X121957140Y-60466372D01*
X121965948Y-60478927D01*
X121975493Y-60491973D01*
X121985776Y-60505509D01*
X121996797Y-60519537D01*
X122008555Y-60534055D01*
X122016432Y-60543554D01*
X122027974Y-60557131D01*
X122039190Y-60569902D01*
X122050078Y-60581869D01*
X122060641Y-60593031D01*
X122070876Y-60603388D01*
X122080784Y-60612940D01*
X122093487Y-60624423D01*
X122105610Y-60634476D01*
X122117151Y-60643097D01*
X122122748Y-60646866D01*
X122136728Y-60654966D01*
X122150693Y-60661179D01*
X122164640Y-60665504D01*
X122178571Y-60667941D01*
X122192486Y-60668490D01*
X122206383Y-60667152D01*
X122220780Y-60663740D01*
X122236025Y-60658205D01*
X122248833Y-60652248D01*
X122262183Y-60644933D01*
X122276077Y-60636258D01*
X122290514Y-60626225D01*
X122301698Y-60617808D01*
X122313188Y-60608627D01*
X122582437Y-60387464D01*
X122590957Y-60380356D01*
X122602992Y-60369899D01*
X122614132Y-60359687D01*
X122624376Y-60349720D01*
X122636643Y-60336813D01*
X122647318Y-60324342D01*
X122656401Y-60312307D01*
X122663893Y-60300708D01*
X122671020Y-60286823D01*
X122673218Y-60281384D01*
X122677352Y-60267604D01*
X122679542Y-60253562D01*
X122679789Y-60239259D01*
X122678093Y-60224693D01*
X122674453Y-60209866D01*
X122668869Y-60194778D01*
X122666071Y-60188566D01*
X122659421Y-60175402D01*
X122651364Y-60161250D01*
X122641901Y-60146110D01*
X122633880Y-60134106D01*
X122625069Y-60121547D01*
X122615466Y-60108431D01*
X122605073Y-60094760D01*
X122593888Y-60080533D01*
X122581912Y-60065750D01*
X122573745Y-60055897D01*
X122561795Y-60041824D01*
X122550206Y-60028598D01*
X122538978Y-60016218D01*
X122528112Y-60004686D01*
X122517606Y-59994000D01*
X122507462Y-59984161D01*
X122494497Y-59972359D01*
X122482175Y-59962063D01*
X122470495Y-59953273D01*
X122464778Y-59949383D01*
X122450396Y-59941078D01*
X122435887Y-59934802D01*
X122421250Y-59930553D01*
X122406485Y-59928331D01*
X122391592Y-59928138D01*
X122376572Y-59929973D01*
X122364194Y-59932984D01*
X122351194Y-59937460D01*
X122337572Y-59943402D01*
X122323328Y-59950808D01*
X122308462Y-59959680D01*
X122296905Y-59967295D01*
X122284997Y-59975734D01*
X122272740Y-59984997D01*
X122260133Y-59995084D01*
X121990884Y-60216248D01*
X121979652Y-60225742D01*
X121969240Y-60235100D01*
X121956634Y-60247362D01*
X121945487Y-60259381D01*
X121935799Y-60271156D01*
X121927570Y-60282686D01*
X121919335Y-60296755D01*
X121913380Y-60310443D01*
X121911635Y-60315847D01*
X121908575Y-60329633D01*
X121907375Y-60343814D01*
X121770268Y-60343814D01*
X121767629Y-60330911D01*
X121765328Y-60314344D01*
X121764357Y-60298371D01*
X121764715Y-60282990D01*
X121765406Y-60273053D01*
X121767745Y-60256275D01*
X121770686Y-60242658D01*
X121774577Y-60228869D01*
X121779419Y-60214907D01*
X121785213Y-60200773D01*
X121791956Y-60186467D01*
X121799651Y-60171988D01*
X121803868Y-60164666D01*
X121813058Y-60150147D01*
X121823257Y-60135796D01*
X121834464Y-60121612D01*
X121843532Y-60111084D01*
X121853166Y-60100649D01*
X121863368Y-60090309D01*
X121874138Y-60080063D01*
X121885474Y-60069911D01*
X121897378Y-60059853D01*
X122197806Y-59813079D01*
X122203496Y-59808522D01*
X122215029Y-59799982D01*
X122226765Y-59792209D01*
X122238706Y-59785201D01*
X122256999Y-59776125D01*
X122275751Y-59768773D01*
X122294961Y-59763144D01*
X122314631Y-59759238D01*
X122334759Y-59757056D01*
X122348433Y-59756558D01*
X122362311Y-59756827D01*
G37*
G36*
X121220057Y-59752437D02*
G01*
X121229664Y-59763970D01*
X121239166Y-59775053D01*
X121248565Y-59785684D01*
X121257859Y-59795866D01*
X121271607Y-59810293D01*
X121285120Y-59823707D01*
X121298400Y-59836106D01*
X121311446Y-59847493D01*
X121324259Y-59857865D01*
X121336838Y-59867224D01*
X121349183Y-59875569D01*
X121361294Y-59882900D01*
X121377306Y-59891106D01*
X121393465Y-59897656D01*
X121409771Y-59902549D01*
X121426225Y-59905787D01*
X121442825Y-59907370D01*
X121459573Y-59907296D01*
X121476468Y-59905566D01*
X121493510Y-59902181D01*
X121510948Y-59897088D01*
X121524448Y-59892114D01*
X121538310Y-59886151D01*
X121552534Y-59879198D01*
X121567119Y-59871256D01*
X121582066Y-59862324D01*
X121597375Y-59852403D01*
X121613046Y-59841492D01*
X121629079Y-59829592D01*
X121639968Y-59821109D01*
X121651019Y-59812186D01*
X122079597Y-59460147D01*
X122213945Y-59623705D01*
X122301404Y-59551864D01*
X122167057Y-59388307D01*
X122395350Y-59200785D01*
X122282055Y-59062857D01*
X122053762Y-59250380D01*
X121838459Y-58988265D01*
X121750999Y-59060105D01*
X121966302Y-59322220D01*
X121528740Y-59681638D01*
X121515395Y-59692268D01*
X121502574Y-59701803D01*
X121490279Y-59710243D01*
X121478508Y-59717588D01*
X121464533Y-59725230D01*
X121451379Y-59731161D01*
X121436676Y-59736020D01*
X121422474Y-59738403D01*
X121408259Y-59738495D01*
X121394028Y-59736297D01*
X121379783Y-59731808D01*
X121365524Y-59725029D01*
X121360767Y-59722261D01*
X121348496Y-59713994D01*
X121335602Y-59703840D01*
X121324840Y-59694358D01*
X121313680Y-59683667D01*
X121302123Y-59671768D01*
X121290167Y-59658661D01*
X121280940Y-59648038D01*
X121271488Y-59636735D01*
X121262291Y-59624352D01*
X121253064Y-59610820D01*
X121244087Y-59597181D01*
X121236424Y-59585311D01*
X121227964Y-59572035D01*
X121218707Y-59557353D01*
X121208652Y-59541264D01*
X121197800Y-59523769D01*
X121194005Y-59517625D01*
X121106017Y-59589899D01*
X121115850Y-59606106D01*
X121125860Y-59622112D01*
X121136048Y-59637917D01*
X121146413Y-59653523D01*
X121156957Y-59668928D01*
X121167677Y-59684132D01*
X121178576Y-59699136D01*
X121189652Y-59713940D01*
X121200906Y-59728544D01*
X121212337Y-59742947D01*
X121220057Y-59752437D01*
G37*
G36*
X121191726Y-58287115D02*
G01*
X121206745Y-58289067D01*
X121221965Y-58292604D01*
X121237384Y-58297727D01*
X121253005Y-58304436D01*
X121265645Y-58310944D01*
X121278414Y-58318467D01*
X121291311Y-58327005D01*
X121297415Y-58331471D01*
X121309328Y-58340436D01*
X121320850Y-58349446D01*
X121331981Y-58358502D01*
X121342719Y-58367602D01*
X121353067Y-58376748D01*
X121365450Y-58388243D01*
X121377221Y-58399810D01*
X121381917Y-58404613D01*
X121391964Y-58415194D01*
X121402885Y-58427076D01*
X121414681Y-58440259D01*
X121424103Y-58450999D01*
X121434016Y-58462471D01*
X121444421Y-58474674D01*
X121455318Y-58487609D01*
X121466707Y-58501276D01*
X121478588Y-58515674D01*
X121484625Y-58523023D01*
X121493628Y-58533984D01*
X121502571Y-58544871D01*
X121511453Y-58555684D01*
X121520273Y-58566422D01*
X121529033Y-58577086D01*
X121537732Y-58587676D01*
X121549235Y-58601680D01*
X121560629Y-58615552D01*
X121571915Y-58629292D01*
X121580546Y-58642392D01*
X121588826Y-58655670D01*
X121596753Y-58669126D01*
X121604330Y-58682760D01*
X121611554Y-58696573D01*
X121618428Y-58710563D01*
X121624949Y-58724732D01*
X121631120Y-58739079D01*
X121636635Y-58753293D01*
X121641191Y-58767064D01*
X121644789Y-58780391D01*
X121647938Y-58796428D01*
X121649589Y-58811771D01*
X121649742Y-58826423D01*
X121648397Y-58840381D01*
X121647063Y-58849867D01*
X121643624Y-58865985D01*
X121639778Y-58879156D01*
X121634959Y-58892573D01*
X121629166Y-58906236D01*
X121622400Y-58920146D01*
X121614662Y-58934302D01*
X121605950Y-58948704D01*
X121596286Y-58963176D01*
X121585691Y-58977542D01*
X121577133Y-58988246D01*
X121568053Y-58998890D01*
X121558448Y-59009475D01*
X121548320Y-59019999D01*
X121537668Y-59030464D01*
X121526492Y-59040869D01*
X121514793Y-59051214D01*
X121502570Y-59061499D01*
X121253402Y-59266167D01*
X121248150Y-59270445D01*
X121232579Y-59282677D01*
X121217289Y-59294010D01*
X121202279Y-59304444D01*
X121187550Y-59313979D01*
X121173101Y-59322614D01*
X121158932Y-59330350D01*
X121145043Y-59337187D01*
X121131435Y-59343125D01*
X121118107Y-59348164D01*
X121100773Y-59353483D01*
X121083768Y-59357225D01*
X121066923Y-59359411D01*
X121050239Y-59360041D01*
X121033714Y-59359116D01*
X121017350Y-59356634D01*
X121001145Y-59352597D01*
X120985101Y-59347004D01*
X120969217Y-59339855D01*
X120953920Y-59332175D01*
X120939119Y-59324088D01*
X120924813Y-59315595D01*
X120911003Y-59306694D01*
X120897688Y-59297386D01*
X120884868Y-59287672D01*
X120872544Y-59277550D01*
X120860715Y-59267022D01*
X120854768Y-59261413D01*
X120842098Y-59248934D01*
X120831917Y-59238472D01*
X120821153Y-59227065D01*
X120809807Y-59214712D01*
X120797880Y-59201414D01*
X120785370Y-59187171D01*
X120772278Y-59171982D01*
X120763227Y-59161331D01*
X120753917Y-59150260D01*
X120744348Y-59138769D01*
X120734521Y-59126858D01*
X120728606Y-59119658D01*
X120719735Y-59108857D01*
X120710863Y-59098057D01*
X120701992Y-59087256D01*
X120693120Y-59076456D01*
X120684249Y-59065656D01*
X120675377Y-59054855D01*
X120666506Y-59044055D01*
X120657634Y-59033255D01*
X120648763Y-59022454D01*
X120639891Y-59011654D01*
X120631258Y-58998577D01*
X120622972Y-58985366D01*
X120615034Y-58972023D01*
X120607442Y-58958547D01*
X120600197Y-58944937D01*
X120593300Y-58931195D01*
X120586749Y-58917320D01*
X120580546Y-58903311D01*
X120575014Y-58889380D01*
X120570347Y-58875845D01*
X120566545Y-58862706D01*
X120566234Y-58861309D01*
X120715298Y-58861309D01*
X120716275Y-58876997D01*
X120719293Y-58890677D01*
X120720449Y-58895435D01*
X120724474Y-58909376D01*
X120729335Y-58922818D01*
X120735029Y-58935761D01*
X120741559Y-58948205D01*
X120748923Y-58960150D01*
X120754604Y-58968455D01*
X120763091Y-58980264D01*
X120773120Y-58993659D01*
X120782252Y-59005517D01*
X120792370Y-59018391D01*
X120803475Y-59032280D01*
X120812450Y-59043363D01*
X120821980Y-59055018D01*
X120828418Y-59062832D01*
X120837698Y-59074007D01*
X120849367Y-59087889D01*
X120860231Y-59100607D01*
X120870291Y-59112159D01*
X120879546Y-59122547D01*
X120889984Y-59133895D01*
X120900851Y-59145110D01*
X120904182Y-59148341D01*
X120914631Y-59157576D01*
X120925761Y-59166127D01*
X120937574Y-59173993D01*
X120950069Y-59181174D01*
X120963245Y-59187670D01*
X120973927Y-59192491D01*
X120989092Y-59196889D01*
X121004503Y-59198545D01*
X121020160Y-59197458D01*
X121033775Y-59194343D01*
X121040781Y-59191988D01*
X121055416Y-59185765D01*
X121068245Y-59179035D01*
X121081652Y-59170904D01*
X121095634Y-59161369D01*
X121107235Y-59152732D01*
X121119205Y-59143197D01*
X121408271Y-58905756D01*
X121412368Y-58902363D01*
X121424072Y-58892341D01*
X121434900Y-58882548D01*
X121444852Y-58872986D01*
X121456757Y-58860593D01*
X121467103Y-58848610D01*
X121475891Y-58837036D01*
X121484683Y-58823143D01*
X121491041Y-58809890D01*
X121492030Y-58807296D01*
X121495806Y-58794137D01*
X121497763Y-58777922D01*
X121497250Y-58764055D01*
X121494787Y-58749866D01*
X121490374Y-58735356D01*
X121484012Y-58720525D01*
X121479251Y-58711166D01*
X121471633Y-58697687D01*
X121462563Y-58683064D01*
X121454808Y-58671345D01*
X121446236Y-58658983D01*
X121436848Y-58645977D01*
X121426643Y-58632327D01*
X121415622Y-58618033D01*
X121403783Y-58603095D01*
X121391129Y-58587514D01*
X121382525Y-58577118D01*
X121370014Y-58562295D01*
X121357975Y-58548398D01*
X121346410Y-58535428D01*
X121335317Y-58523383D01*
X121324697Y-58512265D01*
X121314551Y-58502072D01*
X121301757Y-58489923D01*
X121289804Y-58479421D01*
X121278692Y-58470564D01*
X121276035Y-58468582D01*
X121262709Y-58459855D01*
X121249319Y-58453103D01*
X121235867Y-58448326D01*
X121222351Y-58445524D01*
X121206049Y-58444769D01*
X121192395Y-58446311D01*
X121189635Y-58446862D01*
X121175179Y-58450978D01*
X121159623Y-58457358D01*
X121146387Y-58464092D01*
X121132446Y-58472276D01*
X121117802Y-58481910D01*
X121106356Y-58490086D01*
X121094515Y-58499078D01*
X121082278Y-58508884D01*
X120793212Y-58746326D01*
X120784364Y-58753761D01*
X120773399Y-58763510D01*
X120763387Y-58773072D01*
X120752211Y-58784761D01*
X120742523Y-58796156D01*
X120734323Y-58807259D01*
X120726447Y-58820195D01*
X120721557Y-58830806D01*
X120717058Y-58845911D01*
X120715298Y-58861309D01*
X120566234Y-58861309D01*
X120563008Y-58846840D01*
X120560822Y-58831592D01*
X120559987Y-58816963D01*
X120560503Y-58802952D01*
X120563256Y-58783057D01*
X120568062Y-58763209D01*
X120572407Y-58750003D01*
X120577664Y-58736818D01*
X120583835Y-58723655D01*
X120590918Y-58710513D01*
X120598914Y-58697392D01*
X120607823Y-58684292D01*
X120617645Y-58671214D01*
X120628379Y-58658156D01*
X120640026Y-58645120D01*
X120652586Y-58632105D01*
X120666059Y-58619111D01*
X120680444Y-58606138D01*
X120695742Y-58593187D01*
X120944910Y-58388518D01*
X120957668Y-58378284D01*
X120970379Y-58368578D01*
X120983042Y-58359402D01*
X120995657Y-58350754D01*
X121008225Y-58342636D01*
X121020745Y-58335047D01*
X121033218Y-58327987D01*
X121045643Y-58321457D01*
X121062135Y-58313572D01*
X121078543Y-58306629D01*
X121086629Y-58303800D01*
X121102396Y-58298786D01*
X121117623Y-58294631D01*
X121132311Y-58291334D01*
X121146459Y-58288894D01*
X121160067Y-58287313D01*
X121176318Y-58286544D01*
X121191726Y-58287115D01*
G37*
G36*
X120955592Y-57603144D02*
G01*
X121229279Y-57936337D01*
X121330743Y-57852993D01*
X120662694Y-57039698D01*
X120561231Y-57123041D01*
X120833832Y-57454912D01*
X119954480Y-58177220D01*
X120076239Y-58325453D01*
X120955592Y-57603144D01*
G37*
G36*
X119803576Y-56590062D02*
G01*
X119820264Y-56592340D01*
X119837053Y-56596526D01*
X119853944Y-56602620D01*
X119866679Y-56608442D01*
X119879471Y-56615338D01*
X119892320Y-56623307D01*
X119905520Y-56632444D01*
X119919346Y-56643027D01*
X119933800Y-56655056D01*
X119948881Y-56668529D01*
X119959283Y-56678314D01*
X119969964Y-56688741D01*
X119980923Y-56699811D01*
X119992161Y-56711523D01*
X120003678Y-56723877D01*
X120015474Y-56736873D01*
X120027548Y-56750512D01*
X120039901Y-56764793D01*
X120052532Y-56779716D01*
X120065443Y-56795282D01*
X120077934Y-56810597D01*
X120090504Y-56826221D01*
X120103151Y-56842155D01*
X120115876Y-56858398D01*
X120128679Y-56874950D01*
X120141560Y-56891812D01*
X120154518Y-56908984D01*
X120167555Y-56926464D01*
X120180669Y-56944254D01*
X120193861Y-56962354D01*
X120207132Y-56980763D01*
X120220479Y-56999482D01*
X120233905Y-57018509D01*
X120247409Y-57037847D01*
X120260990Y-57057493D01*
X120274650Y-57077449D01*
X120179792Y-57155367D01*
X120168262Y-57136176D01*
X120156723Y-57117308D01*
X120145176Y-57098761D01*
X120133620Y-57080537D01*
X120122055Y-57062634D01*
X120110481Y-57045052D01*
X120098898Y-57027793D01*
X120087307Y-57010855D01*
X120075707Y-56994239D01*
X120064098Y-56977945D01*
X120052481Y-56961973D01*
X120040854Y-56946323D01*
X120029219Y-56930994D01*
X120017575Y-56915987D01*
X120005922Y-56901302D01*
X119994261Y-56886939D01*
X119983438Y-56873933D01*
X119972943Y-56861668D01*
X119962777Y-56850145D01*
X119952940Y-56839362D01*
X119943432Y-56829321D01*
X119931266Y-56817085D01*
X119919684Y-56806167D01*
X119908687Y-56796567D01*
X119895762Y-56786419D01*
X119888313Y-56781233D01*
X119876040Y-56773856D01*
X119861545Y-56767094D01*
X119847305Y-56762612D01*
X119833320Y-56760409D01*
X119819590Y-56760486D01*
X119808102Y-56762146D01*
X119793875Y-56766241D01*
X119779168Y-56772628D01*
X119766544Y-56779702D01*
X119753586Y-56788369D01*
X119740293Y-56798628D01*
X119617691Y-56899335D01*
X119798051Y-57118909D01*
X119808565Y-57131864D01*
X119818619Y-57144571D01*
X119828213Y-57157030D01*
X119837348Y-57169241D01*
X119846023Y-57181203D01*
X119854238Y-57192918D01*
X119861994Y-57204384D01*
X119872766Y-57221118D01*
X119882503Y-57237294D01*
X119891206Y-57252911D01*
X119898875Y-57267970D01*
X119905510Y-57282471D01*
X119911110Y-57296413D01*
X119912768Y-57300943D01*
X119917113Y-57314395D01*
X119921437Y-57332015D01*
X119924080Y-57349273D01*
X119925042Y-57366169D01*
X119924325Y-57382703D01*
X119921927Y-57398874D01*
X119917848Y-57414683D01*
X119912090Y-57430130D01*
X119904626Y-57445388D01*
X119895410Y-57460868D01*
X119887348Y-57472624D01*
X119878299Y-57484506D01*
X119868265Y-57496513D01*
X119857244Y-57508646D01*
X119845238Y-57520904D01*
X119832245Y-57533287D01*
X119818267Y-57545796D01*
X119803303Y-57558430D01*
X119797545Y-57563119D01*
X119786162Y-57572144D01*
X119774956Y-57580698D01*
X119758479Y-57592648D01*
X119742401Y-57603540D01*
X119726721Y-57613373D01*
X119711440Y-57622147D01*
X119696557Y-57629863D01*
X119682073Y-57636521D01*
X119667987Y-57642120D01*
X119654299Y-57646660D01*
X119641010Y-57650143D01*
X119632271Y-57651859D01*
X119614883Y-57653972D01*
X119597614Y-57654329D01*
X119580464Y-57652928D01*
X119563433Y-57649770D01*
X119546522Y-57644855D01*
X119529729Y-57638183D01*
X119517213Y-57632025D01*
X119504764Y-57624879D01*
X119492224Y-57616641D01*
X119479337Y-57607288D01*
X119466102Y-57596821D01*
X119452519Y-57585239D01*
X119438588Y-57572542D01*
X119424310Y-57558732D01*
X119414598Y-57548905D01*
X119404732Y-57538583D01*
X119394711Y-57527766D01*
X119384535Y-57516453D01*
X119374205Y-57504646D01*
X119363720Y-57492342D01*
X119353081Y-57479544D01*
X119342814Y-57466878D01*
X119333011Y-57454446D01*
X119323671Y-57442248D01*
X119314796Y-57430283D01*
X119306384Y-57418551D01*
X119298437Y-57407052D01*
X119283934Y-57384756D01*
X119271286Y-57363393D01*
X119260495Y-57342964D01*
X119251559Y-57323468D01*
X119244479Y-57304906D01*
X119239255Y-57287277D01*
X119235887Y-57270582D01*
X119234375Y-57254820D01*
X119234718Y-57239993D01*
X119236918Y-57226098D01*
X119243697Y-57207007D01*
X119252826Y-57192847D01*
X119309363Y-57192847D01*
X119312161Y-57209279D01*
X119316128Y-57222409D01*
X119321698Y-57236230D01*
X119328870Y-57250743D01*
X119330899Y-57254506D01*
X119339582Y-57269837D01*
X119346689Y-57281628D01*
X119354305Y-57293670D01*
X119362430Y-57305962D01*
X119371065Y-57318505D01*
X119380208Y-57331299D01*
X119389861Y-57344343D01*
X119400023Y-57357638D01*
X119410695Y-57371184D01*
X119421876Y-57384980D01*
X119444231Y-57412195D01*
X119455256Y-57425223D01*
X119465978Y-57437089D01*
X119476396Y-57447794D01*
X119486511Y-57457338D01*
X119498727Y-57467636D01*
X119510468Y-57476120D01*
X119523932Y-57483905D01*
X119526124Y-57484926D01*
X119539378Y-57489824D01*
X119552804Y-57492621D01*
X119568684Y-57493228D01*
X119582482Y-57491472D01*
X119596452Y-57487615D01*
X119611067Y-57481626D01*
X119624099Y-57474983D01*
X119637908Y-57466838D01*
X119649513Y-57459241D01*
X119661615Y-57450683D01*
X119674214Y-57441165D01*
X119687309Y-57430685D01*
X119690969Y-57427664D01*
X119701478Y-57418810D01*
X119714394Y-57407497D01*
X119726054Y-57396743D01*
X119736460Y-57386550D01*
X119747704Y-57374596D01*
X119756987Y-57363518D01*
X119765540Y-57351380D01*
X119770694Y-57341507D01*
X119775184Y-57327237D01*
X119776493Y-57312447D01*
X119774621Y-57297136D01*
X119770485Y-57283597D01*
X119769579Y-57281267D01*
X119763891Y-57268794D01*
X119756273Y-57254946D01*
X119748790Y-57242878D01*
X119740072Y-57229929D01*
X119730120Y-57216099D01*
X119721845Y-57205150D01*
X119712876Y-57193705D01*
X119703213Y-57181765D01*
X119530232Y-56971175D01*
X119334967Y-57131567D01*
X119326652Y-57139401D01*
X119318058Y-57150920D01*
X119312311Y-57163667D01*
X119309413Y-57177643D01*
X119309363Y-57192847D01*
X119252826Y-57192847D01*
X119254651Y-57190017D01*
X119188330Y-57244494D01*
X119080027Y-57112644D01*
X119595272Y-56689416D01*
X119601351Y-56684461D01*
X119613317Y-56674929D01*
X119625028Y-56665904D01*
X119636485Y-56657385D01*
X119653192Y-56645557D01*
X119669327Y-56634868D01*
X119684888Y-56625319D01*
X119699877Y-56616909D01*
X119714292Y-56609639D01*
X119728135Y-56603509D01*
X119741405Y-56598518D01*
X119758207Y-56593636D01*
X119770504Y-56591231D01*
X119786989Y-56589692D01*
X119803576Y-56590062D01*
G37*
G36*
X119038998Y-55710960D02*
G01*
X119053080Y-55711994D01*
X119067365Y-55713794D01*
X119081855Y-55716360D01*
X119096411Y-55719729D01*
X119110950Y-55724004D01*
X119125472Y-55729184D01*
X119139978Y-55735270D01*
X119154468Y-55742261D01*
X119168940Y-55750158D01*
X119183396Y-55758961D01*
X119197835Y-55768669D01*
X119212258Y-55779283D01*
X119226664Y-55790802D01*
X119241053Y-55803228D01*
X119255425Y-55816558D01*
X119269781Y-55830795D01*
X119284120Y-55845937D01*
X119298443Y-55861984D01*
X119312749Y-55878938D01*
X119324458Y-55893386D01*
X119335631Y-55907566D01*
X119346268Y-55921478D01*
X119356368Y-55935122D01*
X119365932Y-55948498D01*
X119374959Y-55961606D01*
X119383450Y-55974446D01*
X119391404Y-55987017D01*
X119398822Y-55999321D01*
X119405703Y-56011357D01*
X119417856Y-56034625D01*
X119427864Y-56056820D01*
X119435725Y-56077944D01*
X119441440Y-56097995D01*
X119445009Y-56116974D01*
X119446433Y-56134881D01*
X119445710Y-56151716D01*
X119442842Y-56167479D01*
X119437827Y-56182169D01*
X119430667Y-56195788D01*
X119421361Y-56208334D01*
X119422663Y-56209920D01*
X119503517Y-56143505D01*
X119614207Y-56278262D01*
X118564691Y-57140344D01*
X118452699Y-57004002D01*
X118816013Y-56705572D01*
X118800266Y-56707436D01*
X118786050Y-56706155D01*
X118770842Y-56702297D01*
X118757961Y-56697356D01*
X118744444Y-56690765D01*
X118730292Y-56682526D01*
X118715504Y-56672637D01*
X118707973Y-56667188D01*
X118696762Y-56658666D01*
X118685651Y-56649728D01*
X118674640Y-56640372D01*
X118663731Y-56630599D01*
X118652922Y-56620408D01*
X118642214Y-56609801D01*
X118631606Y-56598776D01*
X118621099Y-56587334D01*
X118610693Y-56575475D01*
X118600387Y-56563199D01*
X118594250Y-56555691D01*
X118585326Y-56544639D01*
X118576740Y-56533837D01*
X118565818Y-56519826D01*
X118555498Y-56506260D01*
X118545780Y-56493141D01*
X118536663Y-56480468D01*
X118528148Y-56468241D01*
X118520234Y-56456460D01*
X118511857Y-56443636D01*
X118503797Y-56430524D01*
X118496053Y-56417123D01*
X118488626Y-56403436D01*
X118481516Y-56389460D01*
X118474723Y-56375196D01*
X118468246Y-56360645D01*
X118462087Y-56345806D01*
X118460616Y-56342042D01*
X118455264Y-56327223D01*
X118450764Y-56312784D01*
X118447115Y-56298724D01*
X118446956Y-56297947D01*
X118584062Y-56297947D01*
X118584721Y-56312525D01*
X118587238Y-56327498D01*
X118591615Y-56342867D01*
X118597851Y-56358632D01*
X118602479Y-56368405D01*
X118609797Y-56382200D01*
X118618426Y-56396868D01*
X118625758Y-56408441D01*
X118633828Y-56420505D01*
X118642636Y-56433060D01*
X118652181Y-56446106D01*
X118662464Y-56459642D01*
X118673484Y-56473670D01*
X118685243Y-56488188D01*
X118693119Y-56497687D01*
X118704661Y-56511264D01*
X118715877Y-56524035D01*
X118726766Y-56536002D01*
X118737328Y-56547164D01*
X118747563Y-56557521D01*
X118757472Y-56567073D01*
X118770175Y-56578556D01*
X118782297Y-56588609D01*
X118793838Y-56597230D01*
X118799435Y-56600999D01*
X118813416Y-56609099D01*
X118827380Y-56615312D01*
X118841328Y-56619637D01*
X118855259Y-56622074D01*
X118869173Y-56622623D01*
X118883071Y-56621285D01*
X118897467Y-56617873D01*
X118912713Y-56612338D01*
X118925520Y-56606381D01*
X118938871Y-56599066D01*
X118952764Y-56590391D01*
X118967201Y-56580358D01*
X118978386Y-56571941D01*
X118989875Y-56562760D01*
X119259124Y-56341597D01*
X119267645Y-56334489D01*
X119279680Y-56324032D01*
X119290819Y-56313820D01*
X119301064Y-56303853D01*
X119313330Y-56290946D01*
X119324005Y-56278475D01*
X119333089Y-56266440D01*
X119340581Y-56254841D01*
X119347707Y-56240956D01*
X119349905Y-56235517D01*
X119354039Y-56221737D01*
X119356230Y-56207695D01*
X119356477Y-56193392D01*
X119354780Y-56178827D01*
X119351140Y-56164000D01*
X119345557Y-56148911D01*
X119342759Y-56142699D01*
X119336108Y-56129536D01*
X119328051Y-56115383D01*
X119318588Y-56100243D01*
X119310568Y-56088239D01*
X119301756Y-56075680D01*
X119292154Y-56062564D01*
X119281760Y-56048893D01*
X119270575Y-56034666D01*
X119258600Y-56019883D01*
X119250432Y-56010030D01*
X119238482Y-55995957D01*
X119226893Y-55982731D01*
X119215666Y-55970351D01*
X119204799Y-55958819D01*
X119194294Y-55948133D01*
X119184149Y-55938294D01*
X119171185Y-55926492D01*
X119158863Y-55916196D01*
X119147182Y-55907406D01*
X119141465Y-55903516D01*
X119127084Y-55895212D01*
X119112574Y-55888935D01*
X119097937Y-55884686D01*
X119083172Y-55882465D01*
X119068280Y-55882271D01*
X119053260Y-55884106D01*
X119040882Y-55887117D01*
X119027882Y-55891594D01*
X119014260Y-55897535D01*
X119000016Y-55904941D01*
X118985150Y-55913813D01*
X118973592Y-55921428D01*
X118961685Y-55929867D01*
X118949427Y-55939130D01*
X118936820Y-55949217D01*
X118667571Y-56170381D01*
X118656339Y-56179875D01*
X118645928Y-56189233D01*
X118633322Y-56201496D01*
X118622175Y-56213514D01*
X118612487Y-56225289D01*
X118604258Y-56236819D01*
X118596023Y-56250888D01*
X118590067Y-56264576D01*
X118588323Y-56269980D01*
X118585263Y-56283766D01*
X118584062Y-56297947D01*
X118446956Y-56297947D01*
X118444316Y-56285044D01*
X118442015Y-56268477D01*
X118441044Y-56252504D01*
X118441403Y-56237124D01*
X118442093Y-56227186D01*
X118444432Y-56210408D01*
X118447373Y-56196791D01*
X118451265Y-56183002D01*
X118456107Y-56169041D01*
X118461900Y-56154906D01*
X118468644Y-56140600D01*
X118476338Y-56126121D01*
X118480555Y-56118799D01*
X118489746Y-56104280D01*
X118499944Y-56089929D01*
X118511152Y-56075745D01*
X118520219Y-56065217D01*
X118529854Y-56054783D01*
X118540056Y-56044442D01*
X118550825Y-56034196D01*
X118562162Y-56024044D01*
X118574066Y-56013986D01*
X118874493Y-55767212D01*
X118880183Y-55762655D01*
X118891716Y-55754115D01*
X118903453Y-55746342D01*
X118915393Y-55739334D01*
X118933686Y-55730258D01*
X118952438Y-55722906D01*
X118971649Y-55717277D01*
X118991318Y-55713371D01*
X119011447Y-55711189D01*
X119025121Y-55710691D01*
X119038998Y-55710960D01*
G37*
D10*
G36*
X121677249Y-61294315D02*
G01*
X121601909Y-61202271D01*
X121516291Y-61272351D01*
X121523584Y-61265496D01*
X121529870Y-61257692D01*
X121535148Y-61248941D01*
X121539420Y-61239241D01*
X121542684Y-61228594D01*
X121544941Y-61216999D01*
X121545562Y-61212095D01*
X121546413Y-61202018D01*
X121546711Y-61191783D01*
X121546454Y-61181390D01*
X121545644Y-61170839D01*
X121544280Y-61160129D01*
X121542363Y-61149260D01*
X121539892Y-61138234D01*
X121536867Y-61127049D01*
X121533319Y-61115937D01*
X121529358Y-61105223D01*
X121524982Y-61094906D01*
X121520193Y-61084988D01*
X121514990Y-61075468D01*
X121509373Y-61066346D01*
X121503341Y-61057622D01*
X121496896Y-61049296D01*
X121457911Y-61001667D01*
X121373238Y-61070974D01*
X121417483Y-61125028D01*
X121424388Y-61133606D01*
X121430909Y-61141997D01*
X121437045Y-61150202D01*
X121442798Y-61158221D01*
X121450706Y-61169900D01*
X121457750Y-61181161D01*
X121463930Y-61192003D01*
X121469245Y-61202426D01*
X121473696Y-61212430D01*
X121477283Y-61222016D01*
X121480721Y-61234145D01*
X121481864Y-61239930D01*
X121482930Y-61251115D01*
X121482312Y-61262072D01*
X121480007Y-61272801D01*
X121476017Y-61283302D01*
X121470340Y-61293575D01*
X121462978Y-61303620D01*
X121456351Y-61311005D01*
X121448775Y-61318261D01*
X121443197Y-61323027D01*
X121077289Y-61622530D01*
X121157115Y-61720055D01*
X121677249Y-61294315D01*
G37*
G36*
X121006718Y-60553894D02*
G01*
X121017126Y-60555100D01*
X121027409Y-60557078D01*
X121037704Y-60559804D01*
X121048100Y-60563287D01*
X121058596Y-60567529D01*
X121069193Y-60572530D01*
X121079890Y-60578289D01*
X121090688Y-60584807D01*
X121101587Y-60592083D01*
X121112586Y-60600118D01*
X121123686Y-60608911D01*
X121134886Y-60618463D01*
X121146187Y-60628773D01*
X121157588Y-60639842D01*
X121169090Y-60651670D01*
X121180693Y-60664256D01*
X121192396Y-60677600D01*
X121204200Y-60691703D01*
X121216352Y-60706881D01*
X121227746Y-60721796D01*
X121238384Y-60736449D01*
X121248263Y-60750838D01*
X121257385Y-60764965D01*
X121265749Y-60778829D01*
X121273356Y-60792431D01*
X121280206Y-60805770D01*
X121286298Y-60818846D01*
X121291632Y-60831659D01*
X121296209Y-60844210D01*
X121300028Y-60856498D01*
X121303090Y-60868523D01*
X121305394Y-60880285D01*
X121306941Y-60891785D01*
X121307730Y-60903022D01*
X121307737Y-60914062D01*
X121306978Y-60925017D01*
X121305451Y-60935887D01*
X121303157Y-60946672D01*
X121300096Y-60957373D01*
X121296267Y-60967989D01*
X121291672Y-60978521D01*
X121286309Y-60988968D01*
X121280179Y-60999330D01*
X121273282Y-61009607D01*
X121265618Y-61019800D01*
X121257187Y-61029908D01*
X121247988Y-61039931D01*
X121238023Y-61049870D01*
X121227290Y-61059724D01*
X121215790Y-61069493D01*
X121009589Y-61238273D01*
X120999559Y-61246090D01*
X120989458Y-61253182D01*
X120979284Y-61259549D01*
X120969038Y-61265191D01*
X120958721Y-61270108D01*
X120948331Y-61274299D01*
X120937869Y-61277765D01*
X120927335Y-61280506D01*
X120916730Y-61282522D01*
X120906052Y-61283813D01*
X120895302Y-61284379D01*
X120884480Y-61284219D01*
X120873586Y-61283334D01*
X120862620Y-61281724D01*
X120851582Y-61279389D01*
X120840471Y-61276329D01*
X120829289Y-61272543D01*
X120818035Y-61268033D01*
X120806709Y-61262797D01*
X120795311Y-61256836D01*
X120783840Y-61250150D01*
X120772298Y-61242738D01*
X120760683Y-61234602D01*
X120748997Y-61225740D01*
X120737238Y-61216153D01*
X120725408Y-61205841D01*
X120713505Y-61194804D01*
X120701531Y-61183041D01*
X120689484Y-61170554D01*
X120677365Y-61157341D01*
X120665175Y-61143403D01*
X120652912Y-61128740D01*
X120643750Y-61117395D01*
X120634675Y-61105851D01*
X120625686Y-61094108D01*
X120616783Y-61082167D01*
X120607966Y-61070026D01*
X120599236Y-61057687D01*
X120590592Y-61045149D01*
X120582035Y-61032412D01*
X120573563Y-61019476D01*
X120565178Y-61006341D01*
X120556880Y-60993008D01*
X120548667Y-60979475D01*
X120540541Y-60965744D01*
X120532501Y-60951814D01*
X120524547Y-60937685D01*
X120516680Y-60923357D01*
X120587178Y-60865653D01*
X120594242Y-60880960D01*
X120601344Y-60895884D01*
X120608484Y-60910423D01*
X120615663Y-60924579D01*
X120622880Y-60938350D01*
X120630136Y-60951737D01*
X120637429Y-60964741D01*
X120644761Y-60977360D01*
X120652132Y-60989596D01*
X120659540Y-61001447D01*
X120666987Y-61012915D01*
X120674473Y-61023998D01*
X120681996Y-61034698D01*
X120689558Y-61045013D01*
X120697158Y-61054945D01*
X120704797Y-61064493D01*
X120712847Y-61074128D01*
X120720829Y-61083283D01*
X120728743Y-61091959D01*
X120736591Y-61100154D01*
X120744371Y-61107870D01*
X120752084Y-61115106D01*
X120759729Y-61121861D01*
X120771071Y-61131095D01*
X120782261Y-61139249D01*
X120793299Y-61146322D01*
X120804187Y-61152316D01*
X120814922Y-61157230D01*
X120825506Y-61161064D01*
X120832495Y-61162988D01*
X120842991Y-61164938D01*
X120853501Y-61165767D01*
X120864025Y-61165475D01*
X120874564Y-61164062D01*
X120885117Y-61161527D01*
X120895684Y-61157871D01*
X120906265Y-61153094D01*
X120916861Y-61147195D01*
X120927471Y-61140175D01*
X120938095Y-61132033D01*
X121020878Y-61064274D01*
X120770581Y-60758482D01*
X120875054Y-60758482D01*
X121083438Y-61013068D01*
X121166599Y-60944999D01*
X121172386Y-60940065D01*
X121180263Y-60932581D01*
X121187177Y-60924999D01*
X121194897Y-60914734D01*
X121200905Y-60904294D01*
X121205200Y-60893677D01*
X121207782Y-60882883D01*
X121208651Y-60871913D01*
X121207808Y-60860767D01*
X121207339Y-60857916D01*
X121204519Y-60846084D01*
X121201417Y-60836763D01*
X121197469Y-60827059D01*
X121192674Y-60816971D01*
X121187032Y-60806500D01*
X121180544Y-60795645D01*
X121173209Y-60784407D01*
X121165028Y-60772785D01*
X121159104Y-60764824D01*
X121152803Y-60756693D01*
X121146126Y-60748391D01*
X121139089Y-60739937D01*
X121132169Y-60731917D01*
X121125367Y-60724330D01*
X121115386Y-60713763D01*
X121105670Y-60704171D01*
X121096221Y-60695554D01*
X121087037Y-60687913D01*
X121078119Y-60681247D01*
X121069466Y-60675556D01*
X121058343Y-60669486D01*
X121047692Y-60665150D01*
X121039859Y-60662988D01*
X121029236Y-60661563D01*
X121018409Y-60661804D01*
X121007378Y-60663712D01*
X120996142Y-60667287D01*
X120984702Y-60672528D01*
X120975988Y-60677552D01*
X120967159Y-60683514D01*
X120958215Y-60690413D01*
X120875054Y-60758482D01*
X120770581Y-60758482D01*
X120732823Y-60712352D01*
X120847925Y-60618138D01*
X120860077Y-60608527D01*
X120872105Y-60599688D01*
X120884008Y-60591622D01*
X120895786Y-60584329D01*
X120907440Y-60577809D01*
X120918969Y-60572061D01*
X120930373Y-60567085D01*
X120941653Y-60562883D01*
X120952809Y-60559453D01*
X120963840Y-60556796D01*
X120974746Y-60554911D01*
X120985528Y-60553799D01*
X120996185Y-60553460D01*
X121006718Y-60553894D01*
G37*
G36*
X120955874Y-60412998D02*
G01*
X120871561Y-60309992D01*
X120315399Y-60522818D01*
X120310912Y-60517337D01*
X120633010Y-60018550D01*
X120555814Y-59924238D01*
X120185586Y-60533121D01*
X120281347Y-60650114D01*
X120955874Y-60412998D01*
G37*
G36*
X119888936Y-59914268D02*
G01*
X119898090Y-59906360D01*
X119906651Y-59898104D01*
X119914620Y-59889500D01*
X119921997Y-59880550D01*
X119928781Y-59871252D01*
X119934972Y-59861607D01*
X119937283Y-59857652D01*
X119942632Y-59847610D01*
X119947340Y-59837614D01*
X119951409Y-59827665D01*
X119954837Y-59817762D01*
X119957625Y-59807905D01*
X119959773Y-59798094D01*
X119960452Y-59794183D01*
X119961886Y-59784163D01*
X119962735Y-59773022D01*
X119962997Y-59762883D01*
X119962853Y-59751965D01*
X119962304Y-59740271D01*
X119961573Y-59730355D01*
X119961350Y-59727798D01*
X119960327Y-59717583D01*
X119959188Y-59707611D01*
X119957932Y-59697883D01*
X119956199Y-59686065D01*
X119954284Y-59674627D01*
X119952186Y-59663569D01*
X119949907Y-59652891D01*
X119947822Y-59643315D01*
X119945372Y-59632974D01*
X119942558Y-59621867D01*
X119939380Y-59609996D01*
X119936576Y-59599947D01*
X119933538Y-59589409D01*
X119930267Y-59578382D01*
X119886482Y-59418846D01*
X119883541Y-59407226D01*
X119881305Y-59395935D01*
X119879774Y-59384971D01*
X119878948Y-59374335D01*
X119878827Y-59364027D01*
X119879410Y-59354047D01*
X119881608Y-59339692D01*
X119885391Y-59326075D01*
X119890760Y-59313196D01*
X119897716Y-59301055D01*
X119906258Y-59289651D01*
X119916385Y-59278986D01*
X119924018Y-59272286D01*
X120020409Y-59193388D01*
X120029659Y-59186263D01*
X120038769Y-59180147D01*
X120047739Y-59175038D01*
X120059480Y-59169795D01*
X120070972Y-59166344D01*
X120082214Y-59164684D01*
X120093207Y-59164817D01*
X120103951Y-59166742D01*
X120111845Y-59169362D01*
X120122558Y-59174407D01*
X120131013Y-59179407D01*
X120139827Y-59185450D01*
X120149001Y-59192535D01*
X120158534Y-59200664D01*
X120168427Y-59209835D01*
X120178680Y-59220048D01*
X120185715Y-59227437D01*
X120192910Y-59235288D01*
X120200265Y-59243603D01*
X120207780Y-59252382D01*
X120215454Y-59261624D01*
X120223180Y-59271290D01*
X120231042Y-59281577D01*
X120239039Y-59292486D01*
X120247173Y-59304015D01*
X120255443Y-59316165D01*
X120263848Y-59328937D01*
X120272390Y-59342329D01*
X120281068Y-59356342D01*
X120289882Y-59370977D01*
X120298831Y-59386232D01*
X120307917Y-59402109D01*
X120317139Y-59418607D01*
X120326496Y-59435725D01*
X120331226Y-59444517D01*
X120335990Y-59453465D01*
X120340788Y-59462568D01*
X120345620Y-59471826D01*
X120350485Y-59481239D01*
X120355385Y-59490808D01*
X120435900Y-59424904D01*
X120427192Y-59409176D01*
X120418273Y-59393517D01*
X120409141Y-59377929D01*
X120399798Y-59362409D01*
X120390244Y-59346960D01*
X120380477Y-59331580D01*
X120370499Y-59316270D01*
X120360309Y-59301030D01*
X120349907Y-59285859D01*
X120339294Y-59270758D01*
X120328469Y-59255727D01*
X120317432Y-59240766D01*
X120306184Y-59225874D01*
X120294724Y-59211052D01*
X120283052Y-59196300D01*
X120271168Y-59181617D01*
X120259268Y-59167360D01*
X120247508Y-59153837D01*
X120235887Y-59141048D01*
X120224405Y-59128993D01*
X120213064Y-59117671D01*
X120201862Y-59107084D01*
X120190799Y-59097231D01*
X120179876Y-59088111D01*
X120169093Y-59079726D01*
X120158450Y-59072074D01*
X120147946Y-59065157D01*
X120137582Y-59058973D01*
X120127357Y-59053524D01*
X120117272Y-59048808D01*
X120107327Y-59044826D01*
X120097521Y-59041579D01*
X120087767Y-59039052D01*
X120077976Y-59037233D01*
X120068148Y-59036123D01*
X120058284Y-59035721D01*
X120048383Y-59036027D01*
X120038444Y-59037042D01*
X120028470Y-59038764D01*
X120018458Y-59041195D01*
X120008410Y-59044334D01*
X119998324Y-59048181D01*
X119988202Y-59052737D01*
X119978044Y-59058000D01*
X119967848Y-59063972D01*
X119957616Y-59070652D01*
X119947347Y-59078041D01*
X119937041Y-59086137D01*
X119821939Y-59180351D01*
X119812537Y-59188386D01*
X119803894Y-59196481D01*
X119796011Y-59204636D01*
X119788886Y-59212850D01*
X119782520Y-59221123D01*
X119776912Y-59229456D01*
X119770970Y-59239955D01*
X119767974Y-59246300D01*
X119763779Y-59257179D01*
X119760469Y-59268612D01*
X119758045Y-59280600D01*
X119756743Y-59290590D01*
X119756008Y-59300935D01*
X119755839Y-59311634D01*
X119756237Y-59322688D01*
X119756425Y-59325507D01*
X119757557Y-59337265D01*
X119759212Y-59349976D01*
X119760796Y-59360134D01*
X119762675Y-59370828D01*
X119764848Y-59382057D01*
X119767316Y-59393823D01*
X119770078Y-59406124D01*
X119773134Y-59418961D01*
X119776485Y-59432334D01*
X119780130Y-59446243D01*
X119838140Y-59670202D01*
X119841038Y-59682277D01*
X119843240Y-59693990D01*
X119844746Y-59705341D01*
X119845556Y-59716329D01*
X119845670Y-59726955D01*
X119845088Y-59737218D01*
X119843809Y-59747119D01*
X119840587Y-59761292D01*
X119835798Y-59774649D01*
X119829443Y-59787191D01*
X119821522Y-59798917D01*
X119812035Y-59809828D01*
X119804841Y-59816649D01*
X119800982Y-59819924D01*
X119754299Y-59858135D01*
X119449226Y-59485423D01*
X119376649Y-59544829D01*
X119763250Y-60017145D01*
X119888936Y-59914268D01*
G37*
G36*
X119371838Y-59292160D02*
G01*
X119268961Y-59166474D01*
X119148000Y-59265483D01*
X119250876Y-59391170D01*
X119371838Y-59292160D01*
G37*
G36*
X119481230Y-58241215D02*
G01*
X119280927Y-58937002D01*
X119197577Y-59005226D01*
X118911223Y-58655382D01*
X118753974Y-58784095D01*
X118680335Y-58694130D01*
X118800250Y-58595977D01*
X118983800Y-58595977D01*
X119199145Y-58859068D01*
X119364640Y-58284252D01*
X118983800Y-58595977D01*
X118800250Y-58595977D01*
X118837585Y-58565417D01*
X118775550Y-58489628D01*
X118848127Y-58430222D01*
X118910162Y-58506012D01*
X119381912Y-58119876D01*
X119481230Y-58241215D01*
G37*
G36*
X118631125Y-58387218D02*
G01*
X118528248Y-58261531D01*
X118407286Y-58360541D01*
X118510163Y-58486227D01*
X118631125Y-58387218D01*
G37*
G36*
X118665304Y-57446442D02*
G01*
X118701012Y-57773876D01*
X118789465Y-57701475D01*
X118763568Y-57364434D01*
X118687299Y-57271255D01*
X117985723Y-57845509D01*
X118062765Y-57939633D01*
X118665304Y-57446442D01*
G37*
D12*
X110648571Y-55879357D02*
X111019999Y-55879357D01*
X111019999Y-55879357D02*
X111057142Y-56250785D01*
X111057142Y-56250785D02*
X111019999Y-56213642D01*
X111019999Y-56213642D02*
X110945714Y-56176500D01*
X110945714Y-56176500D02*
X110759999Y-56176500D01*
X110759999Y-56176500D02*
X110685714Y-56213642D01*
X110685714Y-56213642D02*
X110648571Y-56250785D01*
X110648571Y-56250785D02*
X110611428Y-56325071D01*
X110611428Y-56325071D02*
X110611428Y-56510785D01*
X110611428Y-56510785D02*
X110648571Y-56585071D01*
X110648571Y-56585071D02*
X110685714Y-56622214D01*
X110685714Y-56622214D02*
X110759999Y-56659357D01*
X110759999Y-56659357D02*
X110945714Y-56659357D01*
X110945714Y-56659357D02*
X111019999Y-56622214D01*
X111019999Y-56622214D02*
X111057142Y-56585071D01*
X110388571Y-55879357D02*
X110128571Y-56659357D01*
X110128571Y-56659357D02*
X109868571Y-55879357D01*
X111428570Y-61008042D02*
X111391427Y-60970900D01*
X111391427Y-60970900D02*
X111317142Y-60933757D01*
X111317142Y-60933757D02*
X111131427Y-60933757D01*
X111131427Y-60933757D02*
X111057142Y-60970900D01*
X111057142Y-60970900D02*
X111019999Y-61008042D01*
X111019999Y-61008042D02*
X110982856Y-61082328D01*
X110982856Y-61082328D02*
X110982856Y-61156614D01*
X110982856Y-61156614D02*
X111019999Y-61268042D01*
X111019999Y-61268042D02*
X111465713Y-61713757D01*
X111465713Y-61713757D02*
X110982856Y-61713757D01*
X110314285Y-61193757D02*
X110314285Y-61713757D01*
X110499999Y-60896614D02*
X110685713Y-61453757D01*
X110685713Y-61453757D02*
X110202856Y-61453757D01*
X110017142Y-60933757D02*
X109757142Y-61713757D01*
X109757142Y-61713757D02*
X109497142Y-60933757D01*
X106405857Y-57726419D02*
X106434428Y-57669276D01*
X106434428Y-57669276D02*
X106434428Y-57554990D01*
X106434428Y-57554990D02*
X106405857Y-57497847D01*
X106405857Y-57497847D02*
X106377285Y-57469276D01*
X106377285Y-57469276D02*
X106320142Y-57440704D01*
X106320142Y-57440704D02*
X106148714Y-57440704D01*
X106148714Y-57440704D02*
X106091571Y-57469276D01*
X106091571Y-57469276D02*
X106063000Y-57497847D01*
X106063000Y-57497847D02*
X106034428Y-57554990D01*
X106034428Y-57554990D02*
X106034428Y-57669276D01*
X106034428Y-57669276D02*
X106063000Y-57726419D01*
X106034428Y-58240705D02*
X106434428Y-58240705D01*
X106034428Y-57983562D02*
X106348714Y-57983562D01*
X106348714Y-57983562D02*
X106405857Y-58012133D01*
X106405857Y-58012133D02*
X106434428Y-58069276D01*
X106434428Y-58069276D02*
X106434428Y-58154990D01*
X106434428Y-58154990D02*
X106405857Y-58212133D01*
X106405857Y-58212133D02*
X106377285Y-58240705D01*
X106034428Y-58440704D02*
X106034428Y-58669276D01*
X105834428Y-58526419D02*
X106348714Y-58526419D01*
X106348714Y-58526419D02*
X106405857Y-58554990D01*
X106405857Y-58554990D02*
X106434428Y-58612133D01*
X106434428Y-58612133D02*
X106434428Y-58669276D01*
X106034428Y-59143561D02*
X106034428Y-59372133D01*
X105834428Y-59229276D02*
X106348714Y-59229276D01*
X106348714Y-59229276D02*
X106405857Y-59257847D01*
X106405857Y-59257847D02*
X106434428Y-59314990D01*
X106434428Y-59314990D02*
X106434428Y-59372133D01*
X106434428Y-59572133D02*
X106034428Y-59572133D01*
X106148714Y-59572133D02*
X106091571Y-59600704D01*
X106091571Y-59600704D02*
X106063000Y-59629276D01*
X106063000Y-59629276D02*
X106034428Y-59686418D01*
X106034428Y-59686418D02*
X106034428Y-59743561D01*
X106434428Y-60200705D02*
X106120142Y-60200705D01*
X106120142Y-60200705D02*
X106063000Y-60172133D01*
X106063000Y-60172133D02*
X106034428Y-60114990D01*
X106034428Y-60114990D02*
X106034428Y-60000705D01*
X106034428Y-60000705D02*
X106063000Y-59943562D01*
X106405857Y-60200705D02*
X106434428Y-60143562D01*
X106434428Y-60143562D02*
X106434428Y-60000705D01*
X106434428Y-60000705D02*
X106405857Y-59943562D01*
X106405857Y-59943562D02*
X106348714Y-59914990D01*
X106348714Y-59914990D02*
X106291571Y-59914990D01*
X106291571Y-59914990D02*
X106234428Y-59943562D01*
X106234428Y-59943562D02*
X106205857Y-60000705D01*
X106205857Y-60000705D02*
X106205857Y-60143562D01*
X106205857Y-60143562D02*
X106177285Y-60200705D01*
X106405857Y-60743562D02*
X106434428Y-60686419D01*
X106434428Y-60686419D02*
X106434428Y-60572133D01*
X106434428Y-60572133D02*
X106405857Y-60514990D01*
X106405857Y-60514990D02*
X106377285Y-60486419D01*
X106377285Y-60486419D02*
X106320142Y-60457847D01*
X106320142Y-60457847D02*
X106148714Y-60457847D01*
X106148714Y-60457847D02*
X106091571Y-60486419D01*
X106091571Y-60486419D02*
X106063000Y-60514990D01*
X106063000Y-60514990D02*
X106034428Y-60572133D01*
X106034428Y-60572133D02*
X106034428Y-60686419D01*
X106034428Y-60686419D02*
X106063000Y-60743562D01*
X106405857Y-61229276D02*
X106434428Y-61172133D01*
X106434428Y-61172133D02*
X106434428Y-61057848D01*
X106434428Y-61057848D02*
X106405857Y-61000705D01*
X106405857Y-61000705D02*
X106348714Y-60972133D01*
X106348714Y-60972133D02*
X106120142Y-60972133D01*
X106120142Y-60972133D02*
X106063000Y-61000705D01*
X106063000Y-61000705D02*
X106034428Y-61057848D01*
X106034428Y-61057848D02*
X106034428Y-61172133D01*
X106034428Y-61172133D02*
X106063000Y-61229276D01*
X106063000Y-61229276D02*
X106120142Y-61257848D01*
X106120142Y-61257848D02*
X106177285Y-61257848D01*
X106177285Y-61257848D02*
X106234428Y-60972133D01*
X107006428Y-57183561D02*
X107006428Y-57412133D01*
X106806428Y-57269276D02*
X107320714Y-57269276D01*
X107320714Y-57269276D02*
X107377857Y-57297847D01*
X107377857Y-57297847D02*
X107406428Y-57354990D01*
X107406428Y-57354990D02*
X107406428Y-57412133D01*
X107406428Y-57697847D02*
X107377857Y-57640704D01*
X107377857Y-57640704D02*
X107349285Y-57612133D01*
X107349285Y-57612133D02*
X107292142Y-57583561D01*
X107292142Y-57583561D02*
X107120714Y-57583561D01*
X107120714Y-57583561D02*
X107063571Y-57612133D01*
X107063571Y-57612133D02*
X107035000Y-57640704D01*
X107035000Y-57640704D02*
X107006428Y-57697847D01*
X107006428Y-57697847D02*
X107006428Y-57783561D01*
X107006428Y-57783561D02*
X107035000Y-57840704D01*
X107035000Y-57840704D02*
X107063571Y-57869276D01*
X107063571Y-57869276D02*
X107120714Y-57897847D01*
X107120714Y-57897847D02*
X107292142Y-57897847D01*
X107292142Y-57897847D02*
X107349285Y-57869276D01*
X107349285Y-57869276D02*
X107377857Y-57840704D01*
X107377857Y-57840704D02*
X107406428Y-57783561D01*
X107406428Y-57783561D02*
X107406428Y-57697847D01*
X107377857Y-58772133D02*
X107406428Y-58714990D01*
X107406428Y-58714990D02*
X107406428Y-58600704D01*
X107406428Y-58600704D02*
X107377857Y-58543561D01*
X107377857Y-58543561D02*
X107349285Y-58514990D01*
X107349285Y-58514990D02*
X107292142Y-58486418D01*
X107292142Y-58486418D02*
X107120714Y-58486418D01*
X107120714Y-58486418D02*
X107063571Y-58514990D01*
X107063571Y-58514990D02*
X107035000Y-58543561D01*
X107035000Y-58543561D02*
X107006428Y-58600704D01*
X107006428Y-58600704D02*
X107006428Y-58714990D01*
X107006428Y-58714990D02*
X107035000Y-58772133D01*
X107406428Y-59029276D02*
X106806428Y-59029276D01*
X107406428Y-59286419D02*
X107092142Y-59286419D01*
X107092142Y-59286419D02*
X107035000Y-59257847D01*
X107035000Y-59257847D02*
X107006428Y-59200704D01*
X107006428Y-59200704D02*
X107006428Y-59114990D01*
X107006428Y-59114990D02*
X107035000Y-59057847D01*
X107035000Y-59057847D02*
X107063571Y-59029276D01*
X107406428Y-59829276D02*
X107092142Y-59829276D01*
X107092142Y-59829276D02*
X107035000Y-59800704D01*
X107035000Y-59800704D02*
X107006428Y-59743561D01*
X107006428Y-59743561D02*
X107006428Y-59629276D01*
X107006428Y-59629276D02*
X107035000Y-59572133D01*
X107377857Y-59829276D02*
X107406428Y-59772133D01*
X107406428Y-59772133D02*
X107406428Y-59629276D01*
X107406428Y-59629276D02*
X107377857Y-59572133D01*
X107377857Y-59572133D02*
X107320714Y-59543561D01*
X107320714Y-59543561D02*
X107263571Y-59543561D01*
X107263571Y-59543561D02*
X107206428Y-59572133D01*
X107206428Y-59572133D02*
X107177857Y-59629276D01*
X107177857Y-59629276D02*
X107177857Y-59772133D01*
X107177857Y-59772133D02*
X107149285Y-59829276D01*
X107006428Y-60114990D02*
X107406428Y-60114990D01*
X107063571Y-60114990D02*
X107035000Y-60143561D01*
X107035000Y-60143561D02*
X107006428Y-60200704D01*
X107006428Y-60200704D02*
X107006428Y-60286418D01*
X107006428Y-60286418D02*
X107035000Y-60343561D01*
X107035000Y-60343561D02*
X107092142Y-60372133D01*
X107092142Y-60372133D02*
X107406428Y-60372133D01*
X107006428Y-60914990D02*
X107492142Y-60914990D01*
X107492142Y-60914990D02*
X107549285Y-60886418D01*
X107549285Y-60886418D02*
X107577857Y-60857847D01*
X107577857Y-60857847D02*
X107606428Y-60800704D01*
X107606428Y-60800704D02*
X107606428Y-60714990D01*
X107606428Y-60714990D02*
X107577857Y-60657847D01*
X107377857Y-60914990D02*
X107406428Y-60857847D01*
X107406428Y-60857847D02*
X107406428Y-60743561D01*
X107406428Y-60743561D02*
X107377857Y-60686418D01*
X107377857Y-60686418D02*
X107349285Y-60657847D01*
X107349285Y-60657847D02*
X107292142Y-60629275D01*
X107292142Y-60629275D02*
X107120714Y-60629275D01*
X107120714Y-60629275D02*
X107063571Y-60657847D01*
X107063571Y-60657847D02*
X107035000Y-60686418D01*
X107035000Y-60686418D02*
X107006428Y-60743561D01*
X107006428Y-60743561D02*
X107006428Y-60857847D01*
X107006428Y-60857847D02*
X107035000Y-60914990D01*
X107377857Y-61429275D02*
X107406428Y-61372132D01*
X107406428Y-61372132D02*
X107406428Y-61257847D01*
X107406428Y-61257847D02*
X107377857Y-61200704D01*
X107377857Y-61200704D02*
X107320714Y-61172132D01*
X107320714Y-61172132D02*
X107092142Y-61172132D01*
X107092142Y-61172132D02*
X107035000Y-61200704D01*
X107035000Y-61200704D02*
X107006428Y-61257847D01*
X107006428Y-61257847D02*
X107006428Y-61372132D01*
X107006428Y-61372132D02*
X107035000Y-61429275D01*
X107035000Y-61429275D02*
X107092142Y-61457847D01*
X107092142Y-61457847D02*
X107149285Y-61457847D01*
X107149285Y-61457847D02*
X107206428Y-61172132D01*
D10*
G36*
X104800411Y-57860551D02*
G01*
X104811226Y-57847189D01*
X104822136Y-57833415D01*
X104833142Y-57819228D01*
X104844243Y-57804627D01*
X104855439Y-57789614D01*
X104866731Y-57774187D01*
X104878119Y-57758348D01*
X104889602Y-57742095D01*
X104901180Y-57725429D01*
X104912854Y-57708350D01*
X104924623Y-57690858D01*
X104936488Y-57672953D01*
X104948448Y-57654635D01*
X104960504Y-57635904D01*
X104972655Y-57616760D01*
X104984902Y-57597203D01*
X104896447Y-57524804D01*
X104890739Y-57535792D01*
X104885047Y-57546633D01*
X104879371Y-57557327D01*
X104873712Y-57567872D01*
X104868070Y-57578270D01*
X104856835Y-57598623D01*
X104845667Y-57618385D01*
X104834565Y-57637556D01*
X104823529Y-57656137D01*
X104812560Y-57674127D01*
X104801656Y-57691526D01*
X104790820Y-57708334D01*
X104780049Y-57724551D01*
X104769345Y-57740178D01*
X104758707Y-57755214D01*
X104748136Y-57769659D01*
X104737630Y-57783513D01*
X104727191Y-57796777D01*
X104721997Y-57803187D01*
X104713941Y-57812841D01*
X104705971Y-57822015D01*
X104698086Y-57830708D01*
X104686419Y-57842848D01*
X104674945Y-57853906D01*
X104663662Y-57863883D01*
X104652572Y-57872780D01*
X104641675Y-57880596D01*
X104630969Y-57887330D01*
X104620456Y-57892984D01*
X104606738Y-57898841D01*
X104603362Y-57900005D01*
X104589858Y-57903511D01*
X104576363Y-57905082D01*
X104562877Y-57904720D01*
X104549400Y-57902423D01*
X104535931Y-57898193D01*
X104522471Y-57892029D01*
X104509019Y-57883931D01*
X104498936Y-57876588D01*
X104495577Y-57873899D01*
X104322070Y-57731885D01*
X104312170Y-57723096D01*
X104303648Y-57714064D01*
X104294428Y-57701641D01*
X104287658Y-57688786D01*
X104283338Y-57675497D01*
X104281467Y-57661774D01*
X104282046Y-57647619D01*
X104285074Y-57633030D01*
X104287507Y-57625573D01*
X104292672Y-57613834D01*
X104298005Y-57602776D01*
X104303506Y-57592399D01*
X104309998Y-57581373D01*
X104312489Y-57577467D01*
X104319868Y-57566629D01*
X104327467Y-57556178D01*
X104334829Y-57546500D01*
X104342974Y-57536158D01*
X104350360Y-57527033D01*
X104554562Y-57277547D01*
X104131116Y-56930959D01*
X103733292Y-57417005D01*
X103820386Y-57488290D01*
X104122420Y-57119276D01*
X104383700Y-57333132D01*
X104224237Y-57527958D01*
X104216427Y-57537723D01*
X104209010Y-57547457D01*
X104201985Y-57557158D01*
X104195352Y-57566828D01*
X104187118Y-57579671D01*
X104179582Y-57592458D01*
X104172742Y-57605188D01*
X104166601Y-57617861D01*
X104161156Y-57630478D01*
X104156349Y-57643162D01*
X104152328Y-57656014D01*
X104149091Y-57669036D01*
X104146639Y-57682226D01*
X104144972Y-57695586D01*
X104144090Y-57709114D01*
X104143993Y-57722811D01*
X104144680Y-57736678D01*
X104146928Y-57751212D01*
X104150615Y-57765231D01*
X104155741Y-57778736D01*
X104162307Y-57791726D01*
X104170311Y-57804201D01*
X104179755Y-57816162D01*
X104187782Y-57824795D01*
X104196618Y-57833138D01*
X104202959Y-57838540D01*
X104395744Y-57996333D01*
X104407176Y-58005264D01*
X104418679Y-58013400D01*
X104430252Y-58020742D01*
X104441895Y-58027289D01*
X104453609Y-58033042D01*
X104465393Y-58038000D01*
X104477248Y-58042164D01*
X104489173Y-58045533D01*
X104500998Y-58048193D01*
X104512645Y-58050115D01*
X104526954Y-58051482D01*
X104540985Y-58051696D01*
X104554739Y-58050759D01*
X104568214Y-58048669D01*
X104578795Y-58046168D01*
X104590965Y-58042673D01*
X104603347Y-58038242D01*
X104615940Y-58032875D01*
X104628746Y-58026571D01*
X104639142Y-58020853D01*
X104649674Y-58014536D01*
X104660341Y-58007620D01*
X104670940Y-58000311D01*
X104681153Y-57992721D01*
X104690979Y-57984851D01*
X104700420Y-57976700D01*
X104709475Y-57968269D01*
X104718144Y-57959558D01*
X104726427Y-57950566D01*
X104734324Y-57941294D01*
X104743722Y-57929812D01*
X104752795Y-57918726D01*
X104761543Y-57908038D01*
X104769966Y-57897747D01*
X104778065Y-57887853D01*
X104785839Y-57878355D01*
X104793287Y-57869254D01*
X104800411Y-57860551D01*
G37*
G36*
X103260082Y-57980347D02*
G01*
X103178030Y-58080595D01*
X104386437Y-58366328D01*
X104468490Y-58266080D01*
X103260082Y-57980347D01*
G37*
G36*
X103789301Y-58758548D02*
G01*
X103777826Y-58749656D01*
X103766084Y-58741543D01*
X103754074Y-58734209D01*
X103741796Y-58727655D01*
X103729249Y-58721880D01*
X103716435Y-58716884D01*
X103711234Y-58715104D01*
X103698153Y-58711194D01*
X103685278Y-58708025D01*
X103672610Y-58705599D01*
X103660147Y-58703915D01*
X103647891Y-58702973D01*
X103635842Y-58702774D01*
X103631080Y-58702902D01*
X103618952Y-58703592D01*
X103605646Y-58705235D01*
X103593656Y-58707332D01*
X103580848Y-58710090D01*
X103567221Y-58713510D01*
X103555730Y-58716722D01*
X103552776Y-58717591D01*
X103541002Y-58721216D01*
X103529543Y-58724921D01*
X103518397Y-58728706D01*
X103504906Y-58733547D01*
X103491905Y-58738513D01*
X103479395Y-58743603D01*
X103467375Y-58748817D01*
X103456605Y-58753541D01*
X103445021Y-58758875D01*
X103432623Y-58764819D01*
X103419412Y-58771373D01*
X103408257Y-58777055D01*
X103396581Y-58783128D01*
X103384385Y-58789592D01*
X103207103Y-58878934D01*
X103194132Y-58885149D01*
X103181379Y-58890457D01*
X103168845Y-58894859D01*
X103156530Y-58898353D01*
X103144433Y-58900940D01*
X103132555Y-58902620D01*
X103115147Y-58903440D01*
X103098232Y-58902219D01*
X103081809Y-58898957D01*
X103065877Y-58893655D01*
X103050437Y-58886312D01*
X103035490Y-58876928D01*
X103025798Y-58869538D01*
X102910127Y-58774862D01*
X102899552Y-58765671D01*
X102890196Y-58756406D01*
X102882059Y-58747066D01*
X102873107Y-58734498D01*
X102866322Y-58721799D01*
X102861704Y-58708967D01*
X102859253Y-58696004D01*
X102858969Y-58682909D01*
X102860179Y-58673002D01*
X102863572Y-58659203D01*
X102867449Y-58648072D01*
X102872467Y-58636271D01*
X102878626Y-58623799D01*
X102885926Y-58610657D01*
X102894368Y-58596844D01*
X102903951Y-58582361D01*
X102910974Y-58572333D01*
X102918503Y-58562007D01*
X102926540Y-58551383D01*
X102935085Y-58540462D01*
X102944136Y-58529242D01*
X102953675Y-58517861D01*
X102963911Y-58506174D01*
X102974846Y-58494179D01*
X102986479Y-58481876D01*
X102998811Y-58469267D01*
X103011840Y-58456350D01*
X103025568Y-58443126D01*
X103039995Y-58429594D01*
X103055119Y-58415756D01*
X103070942Y-58401610D01*
X103087464Y-58387157D01*
X103104683Y-58372396D01*
X103122601Y-58357328D01*
X103131822Y-58349679D01*
X103141217Y-58341953D01*
X103150787Y-58334151D01*
X103160532Y-58326271D01*
X103170451Y-58318315D01*
X103180544Y-58310282D01*
X103083925Y-58231200D01*
X103067488Y-58245173D01*
X103051184Y-58259380D01*
X103035012Y-58273818D01*
X103018972Y-58288489D01*
X103003065Y-58303393D01*
X102987289Y-58318529D01*
X102971646Y-58333898D01*
X102956135Y-58349499D01*
X102940757Y-58365333D01*
X102925510Y-58381399D01*
X102910396Y-58397698D01*
X102895414Y-58414229D01*
X102880564Y-58430992D01*
X102865847Y-58447989D01*
X102851261Y-58465217D01*
X102836808Y-58482679D01*
X102822860Y-58500059D01*
X102809741Y-58517100D01*
X102797453Y-58533803D01*
X102785995Y-58550168D01*
X102775367Y-58566195D01*
X102765570Y-58581883D01*
X102756603Y-58597233D01*
X102748466Y-58612245D01*
X102741159Y-58626918D01*
X102734683Y-58641253D01*
X102729037Y-58655250D01*
X102724221Y-58668908D01*
X102720235Y-58682228D01*
X102717080Y-58695209D01*
X102714755Y-58707853D01*
X102713260Y-58720157D01*
X102712601Y-58732231D01*
X102712784Y-58744180D01*
X102713809Y-58756004D01*
X102715676Y-58767703D01*
X102718384Y-58779277D01*
X102721934Y-58790727D01*
X102726326Y-58802053D01*
X102731560Y-58813253D01*
X102737636Y-58824329D01*
X102744553Y-58835280D01*
X102752313Y-58846106D01*
X102760914Y-58856808D01*
X102770357Y-58867385D01*
X102780641Y-58877837D01*
X102791768Y-58888165D01*
X102803736Y-58898368D01*
X102941861Y-59011421D01*
X102953543Y-59020575D01*
X102965116Y-59028822D01*
X102976578Y-59036161D01*
X102987930Y-59042595D01*
X102999172Y-59048121D01*
X103010304Y-59052741D01*
X103024064Y-59057240D01*
X103032238Y-59059260D01*
X103046030Y-59061615D01*
X103060265Y-59062796D01*
X103074942Y-59062805D01*
X103087002Y-59061967D01*
X103099345Y-59060379D01*
X103111971Y-59058040D01*
X103124880Y-59054950D01*
X103128151Y-59054061D01*
X103141714Y-59049941D01*
X103156273Y-59044979D01*
X103167847Y-59040706D01*
X103179980Y-59035959D01*
X103192675Y-59030740D01*
X103205930Y-59025046D01*
X103219745Y-59018880D01*
X103234121Y-59012240D01*
X103249057Y-59005127D01*
X103264554Y-58997541D01*
X103514245Y-58876186D01*
X103527763Y-58869913D01*
X103541019Y-58864545D01*
X103554013Y-58860081D01*
X103566747Y-58856523D01*
X103579220Y-58853869D01*
X103591431Y-58852119D01*
X103603381Y-58851275D01*
X103620817Y-58851704D01*
X103637665Y-58854169D01*
X103653925Y-58858670D01*
X103669598Y-58865207D01*
X103684683Y-58873779D01*
X103694413Y-58880624D01*
X103699181Y-58884387D01*
X103755202Y-58930239D01*
X103389122Y-59377501D01*
X103476216Y-59448786D01*
X103940127Y-58881998D01*
X103789301Y-58758548D01*
G37*
G36*
X103055689Y-59373500D02*
G01*
X103155710Y-59455367D01*
X102812093Y-59875184D01*
X103000796Y-60029636D01*
X102912432Y-60137595D01*
X102723729Y-59983144D01*
X102649288Y-60074093D01*
X102562195Y-60002808D01*
X102636636Y-59911859D01*
X102070528Y-59448505D01*
X102085807Y-59429838D01*
X102267986Y-59429838D01*
X102725000Y-59803899D01*
X102983409Y-59488185D01*
X102267986Y-59429838D01*
X102085807Y-59429838D01*
X102189708Y-59302896D01*
X103055689Y-59373500D01*
G37*
G36*
X101924802Y-59626548D02*
G01*
X101817317Y-59757868D01*
X102321815Y-60622264D01*
X102312162Y-60634058D01*
X101365102Y-60310368D01*
X101263001Y-60435111D01*
X102379464Y-60788755D01*
X102498644Y-60643146D01*
X101924802Y-59626548D01*
G37*
%TO.C,U1*%
X105661904Y-62367380D02*
X105661904Y-63176904D01*
X105661904Y-63176904D02*
X105614285Y-63272142D01*
X105614285Y-63272142D02*
X105566666Y-63319761D01*
X105566666Y-63319761D02*
X105471428Y-63367380D01*
X105471428Y-63367380D02*
X105280952Y-63367380D01*
X105280952Y-63367380D02*
X105185714Y-63319761D01*
X105185714Y-63319761D02*
X105138095Y-63272142D01*
X105138095Y-63272142D02*
X105090476Y-63176904D01*
X105090476Y-63176904D02*
X105090476Y-62367380D01*
X104090476Y-63367380D02*
X104661904Y-63367380D01*
X104376190Y-63367380D02*
X104376190Y-62367380D01*
X104376190Y-62367380D02*
X104471428Y-62510238D01*
X104471428Y-62510238D02*
X104566666Y-62605476D01*
X104566666Y-62605476D02*
X104661904Y-62653095D01*
D12*
X114259523Y-67152059D02*
X114154761Y-67152059D01*
X114154761Y-67152059D02*
X114102380Y-67178250D01*
X114102380Y-67178250D02*
X114049999Y-67230630D01*
X114049999Y-67230630D02*
X114023809Y-67335392D01*
X114023809Y-67335392D02*
X114023809Y-67518726D01*
X114023809Y-67518726D02*
X114049999Y-67623488D01*
X114049999Y-67623488D02*
X114102380Y-67675869D01*
X114102380Y-67675869D02*
X114154761Y-67702059D01*
X114154761Y-67702059D02*
X114259523Y-67702059D01*
X114259523Y-67702059D02*
X114311904Y-67675869D01*
X114311904Y-67675869D02*
X114364285Y-67623488D01*
X114364285Y-67623488D02*
X114390476Y-67518726D01*
X114390476Y-67518726D02*
X114390476Y-67335392D01*
X114390476Y-67335392D02*
X114364285Y-67230630D01*
X114364285Y-67230630D02*
X114311904Y-67178250D01*
X114311904Y-67178250D02*
X114259523Y-67152059D01*
X113788095Y-67702059D02*
X113788095Y-67152059D01*
X113788095Y-67152059D02*
X113578571Y-67152059D01*
X113578571Y-67152059D02*
X113526190Y-67178250D01*
X113526190Y-67178250D02*
X113500000Y-67204440D01*
X113500000Y-67204440D02*
X113473809Y-67256821D01*
X113473809Y-67256821D02*
X113473809Y-67335392D01*
X113473809Y-67335392D02*
X113500000Y-67387773D01*
X113500000Y-67387773D02*
X113526190Y-67413964D01*
X113526190Y-67413964D02*
X113578571Y-67440154D01*
X113578571Y-67440154D02*
X113788095Y-67440154D01*
X113054762Y-67413964D02*
X112976190Y-67440154D01*
X112976190Y-67440154D02*
X112950000Y-67466345D01*
X112950000Y-67466345D02*
X112923809Y-67518726D01*
X112923809Y-67518726D02*
X112923809Y-67597297D01*
X112923809Y-67597297D02*
X112950000Y-67649678D01*
X112950000Y-67649678D02*
X112976190Y-67675869D01*
X112976190Y-67675869D02*
X113028571Y-67702059D01*
X113028571Y-67702059D02*
X113238095Y-67702059D01*
X113238095Y-67702059D02*
X113238095Y-67152059D01*
X113238095Y-67152059D02*
X113054762Y-67152059D01*
X113054762Y-67152059D02*
X113002381Y-67178250D01*
X113002381Y-67178250D02*
X112976190Y-67204440D01*
X112976190Y-67204440D02*
X112950000Y-67256821D01*
X112950000Y-67256821D02*
X112950000Y-67309202D01*
X112950000Y-67309202D02*
X112976190Y-67361583D01*
X112976190Y-67361583D02*
X113002381Y-67387773D01*
X113002381Y-67387773D02*
X113054762Y-67413964D01*
X113054762Y-67413964D02*
X113238095Y-67413964D01*
X112452381Y-67152059D02*
X112557143Y-67152059D01*
X112557143Y-67152059D02*
X112609524Y-67178250D01*
X112609524Y-67178250D02*
X112635714Y-67204440D01*
X112635714Y-67204440D02*
X112688095Y-67283011D01*
X112688095Y-67283011D02*
X112714286Y-67387773D01*
X112714286Y-67387773D02*
X112714286Y-67597297D01*
X112714286Y-67597297D02*
X112688095Y-67649678D01*
X112688095Y-67649678D02*
X112661905Y-67675869D01*
X112661905Y-67675869D02*
X112609524Y-67702059D01*
X112609524Y-67702059D02*
X112504762Y-67702059D01*
X112504762Y-67702059D02*
X112452381Y-67675869D01*
X112452381Y-67675869D02*
X112426190Y-67649678D01*
X112426190Y-67649678D02*
X112400000Y-67597297D01*
X112400000Y-67597297D02*
X112400000Y-67466345D01*
X112400000Y-67466345D02*
X112426190Y-67413964D01*
X112426190Y-67413964D02*
X112452381Y-67387773D01*
X112452381Y-67387773D02*
X112504762Y-67361583D01*
X112504762Y-67361583D02*
X112609524Y-67361583D01*
X112609524Y-67361583D02*
X112661905Y-67387773D01*
X112661905Y-67387773D02*
X112688095Y-67413964D01*
X112688095Y-67413964D02*
X112714286Y-67466345D01*
X111771428Y-67125869D02*
X112242857Y-67833011D01*
X111561905Y-67702059D02*
X111457143Y-67702059D01*
X111457143Y-67702059D02*
X111404762Y-67675869D01*
X111404762Y-67675869D02*
X111378571Y-67649678D01*
X111378571Y-67649678D02*
X111326190Y-67571107D01*
X111326190Y-67571107D02*
X111300000Y-67466345D01*
X111300000Y-67466345D02*
X111300000Y-67256821D01*
X111300000Y-67256821D02*
X111326190Y-67204440D01*
X111326190Y-67204440D02*
X111352381Y-67178250D01*
X111352381Y-67178250D02*
X111404762Y-67152059D01*
X111404762Y-67152059D02*
X111509524Y-67152059D01*
X111509524Y-67152059D02*
X111561905Y-67178250D01*
X111561905Y-67178250D02*
X111588095Y-67204440D01*
X111588095Y-67204440D02*
X111614286Y-67256821D01*
X111614286Y-67256821D02*
X111614286Y-67387773D01*
X111614286Y-67387773D02*
X111588095Y-67440154D01*
X111588095Y-67440154D02*
X111561905Y-67466345D01*
X111561905Y-67466345D02*
X111509524Y-67492535D01*
X111509524Y-67492535D02*
X111404762Y-67492535D01*
X111404762Y-67492535D02*
X111352381Y-67466345D01*
X111352381Y-67466345D02*
X111326190Y-67440154D01*
X111326190Y-67440154D02*
X111300000Y-67387773D01*
X111116666Y-67702059D02*
X110828571Y-67335392D01*
X111116666Y-67335392D02*
X110828571Y-67702059D01*
X110671428Y-67702059D02*
X110383333Y-67335392D01*
X110671428Y-67335392D02*
X110383333Y-67702059D01*
X114966667Y-63513964D02*
X114783334Y-63513964D01*
X114704762Y-63802059D02*
X114966667Y-63802059D01*
X114966667Y-63802059D02*
X114966667Y-63252059D01*
X114966667Y-63252059D02*
X114704762Y-63252059D01*
X114469048Y-63513964D02*
X114285715Y-63513964D01*
X114207143Y-63802059D02*
X114469048Y-63802059D01*
X114469048Y-63802059D02*
X114469048Y-63252059D01*
X114469048Y-63252059D02*
X114207143Y-63252059D01*
X113971429Y-63592535D02*
X113552382Y-63592535D01*
X113316668Y-63775869D02*
X113238096Y-63802059D01*
X113238096Y-63802059D02*
X113107144Y-63802059D01*
X113107144Y-63802059D02*
X113054763Y-63775869D01*
X113054763Y-63775869D02*
X113028572Y-63749678D01*
X113028572Y-63749678D02*
X113002382Y-63697297D01*
X113002382Y-63697297D02*
X113002382Y-63644916D01*
X113002382Y-63644916D02*
X113028572Y-63592535D01*
X113028572Y-63592535D02*
X113054763Y-63566345D01*
X113054763Y-63566345D02*
X113107144Y-63540154D01*
X113107144Y-63540154D02*
X113211906Y-63513964D01*
X113211906Y-63513964D02*
X113264287Y-63487773D01*
X113264287Y-63487773D02*
X113290477Y-63461583D01*
X113290477Y-63461583D02*
X113316668Y-63409202D01*
X113316668Y-63409202D02*
X113316668Y-63356821D01*
X113316668Y-63356821D02*
X113290477Y-63304440D01*
X113290477Y-63304440D02*
X113264287Y-63278250D01*
X113264287Y-63278250D02*
X113211906Y-63252059D01*
X113211906Y-63252059D02*
X113080953Y-63252059D01*
X113080953Y-63252059D02*
X113002382Y-63278250D01*
X112819048Y-63252059D02*
X112452381Y-63802059D01*
X112452381Y-63252059D02*
X112819048Y-63802059D01*
X112295238Y-63252059D02*
X111954762Y-63252059D01*
X111954762Y-63252059D02*
X112138095Y-63461583D01*
X112138095Y-63461583D02*
X112059524Y-63461583D01*
X112059524Y-63461583D02*
X112007143Y-63487773D01*
X112007143Y-63487773D02*
X111980952Y-63513964D01*
X111980952Y-63513964D02*
X111954762Y-63566345D01*
X111954762Y-63566345D02*
X111954762Y-63697297D01*
X111954762Y-63697297D02*
X111980952Y-63749678D01*
X111980952Y-63749678D02*
X112007143Y-63775869D01*
X112007143Y-63775869D02*
X112059524Y-63802059D01*
X112059524Y-63802059D02*
X112216667Y-63802059D01*
X112216667Y-63802059D02*
X112269048Y-63775869D01*
X112269048Y-63775869D02*
X112295238Y-63749678D01*
X111326190Y-63225869D02*
X111797619Y-63933011D01*
X110907143Y-63435392D02*
X110907143Y-63802059D01*
X111038095Y-63225869D02*
X111169048Y-63618726D01*
X111169048Y-63618726D02*
X110828571Y-63618726D01*
X110592857Y-63802059D02*
X110488095Y-63802059D01*
X110488095Y-63802059D02*
X110435714Y-63775869D01*
X110435714Y-63775869D02*
X110409523Y-63749678D01*
X110409523Y-63749678D02*
X110357142Y-63671107D01*
X110357142Y-63671107D02*
X110330952Y-63566345D01*
X110330952Y-63566345D02*
X110330952Y-63356821D01*
X110330952Y-63356821D02*
X110357142Y-63304440D01*
X110357142Y-63304440D02*
X110383333Y-63278250D01*
X110383333Y-63278250D02*
X110435714Y-63252059D01*
X110435714Y-63252059D02*
X110540476Y-63252059D01*
X110540476Y-63252059D02*
X110592857Y-63278250D01*
X110592857Y-63278250D02*
X110619047Y-63304440D01*
X110619047Y-63304440D02*
X110645238Y-63356821D01*
X110645238Y-63356821D02*
X110645238Y-63487773D01*
X110645238Y-63487773D02*
X110619047Y-63540154D01*
X110619047Y-63540154D02*
X110592857Y-63566345D01*
X110592857Y-63566345D02*
X110540476Y-63592535D01*
X110540476Y-63592535D02*
X110435714Y-63592535D01*
X110435714Y-63592535D02*
X110383333Y-63566345D01*
X110383333Y-63566345D02*
X110357142Y-63540154D01*
X110357142Y-63540154D02*
X110330952Y-63487773D01*
X110016666Y-63487773D02*
X110069047Y-63461583D01*
X110069047Y-63461583D02*
X110095237Y-63435392D01*
X110095237Y-63435392D02*
X110121428Y-63383011D01*
X110121428Y-63383011D02*
X110121428Y-63356821D01*
X110121428Y-63356821D02*
X110095237Y-63304440D01*
X110095237Y-63304440D02*
X110069047Y-63278250D01*
X110069047Y-63278250D02*
X110016666Y-63252059D01*
X110016666Y-63252059D02*
X109911904Y-63252059D01*
X109911904Y-63252059D02*
X109859523Y-63278250D01*
X109859523Y-63278250D02*
X109833332Y-63304440D01*
X109833332Y-63304440D02*
X109807142Y-63356821D01*
X109807142Y-63356821D02*
X109807142Y-63383011D01*
X109807142Y-63383011D02*
X109833332Y-63435392D01*
X109833332Y-63435392D02*
X109859523Y-63461583D01*
X109859523Y-63461583D02*
X109911904Y-63487773D01*
X109911904Y-63487773D02*
X110016666Y-63487773D01*
X110016666Y-63487773D02*
X110069047Y-63513964D01*
X110069047Y-63513964D02*
X110095237Y-63540154D01*
X110095237Y-63540154D02*
X110121428Y-63592535D01*
X110121428Y-63592535D02*
X110121428Y-63697297D01*
X110121428Y-63697297D02*
X110095237Y-63749678D01*
X110095237Y-63749678D02*
X110069047Y-63775869D01*
X110069047Y-63775869D02*
X110016666Y-63802059D01*
X110016666Y-63802059D02*
X109911904Y-63802059D01*
X109911904Y-63802059D02*
X109859523Y-63775869D01*
X109859523Y-63775869D02*
X109833332Y-63749678D01*
X109833332Y-63749678D02*
X109807142Y-63697297D01*
X109807142Y-63697297D02*
X109807142Y-63592535D01*
X109807142Y-63592535D02*
X109833332Y-63540154D01*
X109833332Y-63540154D02*
X109859523Y-63513964D01*
X109859523Y-63513964D02*
X109911904Y-63487773D01*
D13*
X118700000Y-69000000D02*
X106100000Y-69000000D01*
X118700000Y-62000000D02*
X118700000Y-69000000D01*
X118700000Y-62000000D02*
X106100000Y-62000000D01*
D14*
X118500000Y-63000000D02*
X118500000Y-68000000D01*
X106300000Y-68000000D02*
X118500000Y-68000000D01*
X106300000Y-68000000D02*
X106300000Y-63000000D01*
X106300000Y-63000000D02*
X118500000Y-63000000D01*
D13*
X106100000Y-62000000D02*
X106100000Y-69000000D01*
D11*
X105600000Y-66800000D02*
G75*
G03*
X105600000Y-66800000I-100000J0D01*
G01*
D13*
%TO.C,JP1*%
X108950000Y-60800000D02*
X109550000Y-60800000D01*
X110250000Y-60150000D02*
X110250000Y-57350000D01*
X108250000Y-57350000D02*
X108250000Y-60150000D01*
X109550000Y-56700000D02*
X108950000Y-56700000D01*
X108250000Y-60100000D02*
G75*
G03*
X108950000Y-60800000I699999J-1D01*
G01*
X109550000Y-60800000D02*
G75*
G03*
X110250000Y-60100000I1J699999D01*
G01*
X108950000Y-56700000D02*
G75*
G03*
X108250000Y-57400000I0J-700000D01*
G01*
X110250000Y-57400000D02*
G75*
G03*
X109550000Y-56700000I-700000J0D01*
G01*
%TD*%
%LPC*%
D15*
%TO.C,J1*%
X112675000Y-56925000D03*
D16*
X112674999Y-58924999D03*
X112674999Y-60924999D03*
%TD*%
D17*
%TO.C,REF\u002A\u002A*%
X102870000Y-65500000D03*
%TD*%
%TO.C,REF\u002A\u002A*%
X121930000Y-65500000D03*
%TD*%
D18*
%TO.C,U1*%
X108067999Y-66769999D03*
D19*
X108067999Y-64229999D03*
D20*
X116731999Y-63846999D03*
D19*
X116731999Y-65499999D03*
D21*
X116731999Y-67152999D03*
%TD*%
D22*
%TO.C,JP1*%
X109250000Y-60050000D03*
D23*
X109249999Y-58749999D03*
D24*
X109250000Y-57450000D03*
%TD*%
M02*
