M48
; DRILL file {KiCad (7.0.0-0)} date Thursday, March 02, 2023 at 02:09:57 PM
; FORMAT={-:-/ absolute / inch / decimal}
; #@! TF.CreationDate,2023-03-02T14:09:57-08:00
; #@! TF.GenerationSoftware,Kicad,Pcbnew,(7.0.0-0)
; #@! TF.FileFunction,Plated,1,2,PTH
FMAT,2
INCH
; #@! TA.AperFunction,Plated,PTH,ViaDrill
T1C0.0157
; #@! TA.AperFunction,Plated,PTH,ComponentDrill
T2C0.0295
; #@! TA.AperFunction,Plated,PTH,ComponentDrill
T3C0.0297
; #@! TA.AperFunction,Plated,PTH,ComponentDrill
T4C0.0298
%
G90
G05
T1
X4.0512Y-2.4016
X4.1811Y-2.6693
X4.2096Y-2.2018
X4.2143Y-2.2697
X4.3012Y-2.313
X4.3012Y-2.4163
X4.3702Y-2.2549
X4.5335Y-2.25
X4.5966Y-2.2146
X4.6654Y-2.4921
X4.6693Y-2.685
X4.7283Y-2.2244
X4.7835Y-2.4134
X4.8369Y-2.3765
T2
X4.436Y-2.2411
X4.436Y-2.3199
X4.436Y-2.3986
T3
G00X4.5853Y-2.5038
M15
G01X4.6062Y-2.5235
M16
G05
G00X4.5853Y-2.6537
M15
G01X4.6062Y-2.634
M16
G05
T4
G00X4.2443Y-2.5287
M15
G01X4.265Y-2.5287
M16
G05
G00X4.2443Y-2.6287
M15
G01X4.265Y-2.6287
M16
G05
G00X4.5854Y-2.5787
M15
G01X4.6061Y-2.5787
M16
G05
T0
M30
