%TF.GenerationSoftware,KiCad,Pcbnew,(7.0.0-0)*%
%TF.CreationDate,2023-03-02T14:10:56-08:00*%
%TF.ProjectId,Tap_Photosensor_PCB,5461705f-5068-46f7-946f-73656e736f72,rev?*%
%TF.SameCoordinates,Original*%
%TF.FileFunction,Copper,L2,Bot*%
%TF.FilePolarity,Positive*%
%FSLAX46Y46*%
G04 Gerber Fmt 4.6, Leading zero omitted, Abs format (unit mm)*
G04 Created by KiCad (PCBNEW (7.0.0-0)) date 2023-03-02 14:10:56*
%MOMM*%
%LPD*%
G01*
G04 APERTURE LIST*
G04 Aperture macros list*
%AMHorizOval*
0 Thick line with rounded ends*
0 $1 width*
0 $2 $3 position (X,Y) of the first rounded end (center of the circle)*
0 $4 $5 position (X,Y) of the second rounded end (center of the circle)*
0 Add line between two ends*
20,1,$1,$2,$3,$4,$5,0*
0 Add two circle primitives to create the rounded ends*
1,1,$1,$2,$3*
1,1,$1,$4,$5*%
G04 Aperture macros list end*
%TA.AperFunction,ComponentPad*%
%ADD10R,1.700000X1.700000*%
%TD*%
%TA.AperFunction,ComponentPad*%
%ADD11R,1.782000X0.958000*%
%TD*%
%TA.AperFunction,ComponentPad*%
%ADD12O,1.782000X0.958000*%
%TD*%
%TA.AperFunction,ComponentPad*%
%ADD13HorizOval,0.955000X0.279101X-0.263011X-0.279101X0.263011X0*%
%TD*%
%TA.AperFunction,ComponentPad*%
%ADD14HorizOval,0.955000X0.279101X0.263011X-0.279101X-0.263011X0*%
%TD*%
%TA.AperFunction,ViaPad*%
%ADD15C,0.800000*%
%TD*%
%TA.AperFunction,Conductor*%
%ADD16C,0.250000*%
%TD*%
G04 APERTURE END LIST*
D10*
%TO.P,J1,1,Pin_1*%
%TO.N,GND*%
X107799999Y-60199999D03*
%TD*%
%TO.P,J2,1,Pin_1*%
%TO.N,SIG*%
X112399999Y-60199999D03*
%TD*%
%TO.P,J3,1,Pin_1*%
%TO.N,+5V*%
X116999999Y-60199999D03*
%TD*%
D11*
%TO.P,U1,1,A*%
%TO.N,Net-(R2-Pad2)*%
X108067999Y-66769999D03*
D12*
%TO.P,U1,2,K*%
%TO.N,GND*%
X108067999Y-64229999D03*
D13*
%TO.P,U1,3,V*%
%TO.N,+5V*%
X116731999Y-63846999D03*
D12*
%TO.P,U1,4,S*%
%TO.N,SIG*%
X116731999Y-65499999D03*
D14*
%TO.P,U1,5,G*%
%TO.N,GND*%
X116731999Y-67152999D03*
%TD*%
D15*
%TO.N,GND*%
X114808000Y-61722000D03*
X110200000Y-61900000D03*
X120725000Y-60375000D03*
X113200500Y-65301763D03*
X105100000Y-60650000D03*
%TD*%
D16*
%TO.N,SIG*%
X112400000Y-61435000D02*
X112400000Y-60200000D01*
X116465000Y-65500000D02*
X112400000Y-61435000D01*
%TD*%
%TA.AperFunction,Conductor*%
%TO.N,GND*%
G36*
X118225617Y-58511424D02*
G01*
X119107083Y-58904510D01*
X122429632Y-60386187D01*
X122616717Y-60470590D01*
X123760010Y-60986386D01*
X123758863Y-60988926D01*
X123759398Y-60989175D01*
X123760538Y-60986624D01*
X123854744Y-61028701D01*
X123855195Y-61028904D01*
X124150585Y-61162555D01*
X124159774Y-61167176D01*
X124316071Y-61253983D01*
X124316327Y-61254125D01*
X124317916Y-61255023D01*
X124533005Y-61378593D01*
X124540746Y-61383421D01*
X124701179Y-61491746D01*
X124703582Y-61493410D01*
X124894199Y-61628928D01*
X124900476Y-61633693D01*
X125055089Y-61758928D01*
X125058317Y-61761634D01*
X125077620Y-61778381D01*
X125231178Y-61911602D01*
X125236114Y-61916120D01*
X125380676Y-62055656D01*
X125384532Y-62059543D01*
X125541223Y-62224526D01*
X125544906Y-62228577D01*
X125676806Y-62380132D01*
X125681063Y-62385294D01*
X125821932Y-62565659D01*
X125824491Y-62569053D01*
X125941542Y-62729841D01*
X125945980Y-62736356D01*
X126005644Y-62830163D01*
X126071529Y-62933752D01*
X126073130Y-62936338D01*
X126116680Y-63008605D01*
X126124573Y-63024006D01*
X126489812Y-63876228D01*
X126500000Y-63925862D01*
X126500000Y-67079054D01*
X126491457Y-67124660D01*
X126398357Y-67364433D01*
X126395250Y-67371743D01*
X126333828Y-67504474D01*
X126332691Y-67506865D01*
X126236911Y-67702927D01*
X126234063Y-67708411D01*
X126157934Y-67846622D01*
X126155738Y-67850448D01*
X126048288Y-68030319D01*
X126045959Y-68034068D01*
X125960331Y-68166632D01*
X125956852Y-68171738D01*
X125829644Y-68348963D01*
X125828078Y-68351098D01*
X125740289Y-68468134D01*
X125735324Y-68474335D01*
X125546723Y-68695264D01*
X125546146Y-68695935D01*
X125539302Y-68703839D01*
X125496523Y-68735914D01*
X125444293Y-68747360D01*
X124341454Y-68749499D01*
X99307896Y-68749499D01*
X99255460Y-68738070D01*
X99212540Y-68705858D01*
X99205570Y-68697787D01*
X99205248Y-68697412D01*
X99005493Y-68462690D01*
X99000362Y-68456245D01*
X98911058Y-68336216D01*
X98909442Y-68333994D01*
X98776607Y-68147082D01*
X98773054Y-68141803D01*
X98685952Y-68005003D01*
X98683564Y-68001097D01*
X98615775Y-67885567D01*
X98572279Y-67811439D01*
X98570041Y-67807460D01*
X98564973Y-67798056D01*
X98493115Y-67664713D01*
X98490243Y-67659044D01*
X98391829Y-67451828D01*
X98390692Y-67449365D01*
X98388002Y-67443366D01*
X98329468Y-67312851D01*
X98326363Y-67305272D01*
X98273640Y-67163557D01*
X98265758Y-67122194D01*
X98265359Y-67102658D01*
X98234035Y-65567765D01*
X100895788Y-65567765D01*
X100896290Y-65572332D01*
X100896291Y-65572344D01*
X100924910Y-65832444D01*
X100924911Y-65832453D01*
X100925414Y-65837018D01*
X100926576Y-65841463D01*
X100926577Y-65841468D01*
X100951587Y-65937132D01*
X100993928Y-66099088D01*
X100995725Y-66103318D01*
X100995728Y-66103325D01*
X101057424Y-66248506D01*
X101099870Y-66348390D01*
X101102265Y-66352315D01*
X101102266Y-66352316D01*
X101111758Y-66367870D01*
X101240982Y-66579610D01*
X101414255Y-66787820D01*
X101486082Y-66852177D01*
X101612561Y-66965503D01*
X101612565Y-66965506D01*
X101615998Y-66968582D01*
X101841910Y-67118044D01*
X102087176Y-67233020D01*
X102346569Y-67311060D01*
X102614561Y-67350500D01*
X102815330Y-67350500D01*
X102817631Y-67350500D01*
X103020156Y-67335677D01*
X103190918Y-67297638D01*
X106668500Y-67297638D01*
X106668859Y-67300985D01*
X106668860Y-67300988D01*
X106674168Y-67350367D01*
X106674169Y-67350373D01*
X106675011Y-67358201D01*
X106677762Y-67365578D01*
X106677763Y-67365580D01*
X106722962Y-67486763D01*
X106722964Y-67486766D01*
X106726111Y-67495204D01*
X106731508Y-67502414D01*
X106731510Y-67502417D01*
X106804627Y-67600089D01*
X106813739Y-67612261D01*
X106820950Y-67617659D01*
X106876233Y-67659044D01*
X106930796Y-67699889D01*
X107067799Y-67750989D01*
X107128362Y-67757500D01*
X109004269Y-67757500D01*
X109007638Y-67757500D01*
X109068201Y-67750989D01*
X109205204Y-67699889D01*
X109322261Y-67612261D01*
X109409889Y-67495204D01*
X109438658Y-67418072D01*
X115462944Y-67418072D01*
X115481120Y-67604850D01*
X115483624Y-67617306D01*
X115539023Y-67796594D01*
X115543989Y-67808305D01*
X115634341Y-67972766D01*
X115641558Y-67983232D01*
X115763173Y-68126146D01*
X115772351Y-68134946D01*
X115920238Y-68250448D01*
X115931002Y-68257222D01*
X116099118Y-68340593D01*
X116111013Y-68345057D01*
X116292473Y-68392881D01*
X116305037Y-68394861D01*
X116460847Y-68403441D01*
X116474311Y-68400487D01*
X116478000Y-68387209D01*
X116478000Y-68228248D01*
X116986000Y-68228248D01*
X116989075Y-68239558D01*
X117000317Y-68236234D01*
X117050400Y-68205318D01*
X117060489Y-68197578D01*
X117721018Y-67575128D01*
X117725435Y-67570522D01*
X117817491Y-67464226D01*
X117824799Y-67453822D01*
X117842989Y-67421382D01*
X117845901Y-67410017D01*
X117834567Y-67407000D01*
X117002590Y-67407000D01*
X116989506Y-67410506D01*
X116986000Y-67423590D01*
X116986000Y-68228248D01*
X116478000Y-68228248D01*
X116478000Y-67423590D01*
X116474493Y-67410506D01*
X116461410Y-67407000D01*
X115478288Y-67407000D01*
X115465657Y-67410147D01*
X115462946Y-67417576D01*
X115462944Y-67418072D01*
X109438658Y-67418072D01*
X109460989Y-67358201D01*
X109467500Y-67297638D01*
X109467500Y-66242362D01*
X109460989Y-66181799D01*
X109409889Y-66044796D01*
X109395104Y-66025046D01*
X109333353Y-65942556D01*
X109322261Y-65927739D01*
X109219041Y-65850469D01*
X109212417Y-65845510D01*
X109212414Y-65845508D01*
X109205204Y-65840111D01*
X109196766Y-65836964D01*
X109196763Y-65836962D01*
X109075580Y-65791763D01*
X109075578Y-65791762D01*
X109068201Y-65789011D01*
X109060373Y-65788169D01*
X109060367Y-65788168D01*
X109010988Y-65782860D01*
X109010985Y-65782859D01*
X109007638Y-65782500D01*
X107128362Y-65782500D01*
X107125015Y-65782859D01*
X107125011Y-65782860D01*
X107075632Y-65788168D01*
X107075625Y-65788169D01*
X107067799Y-65789011D01*
X107060423Y-65791761D01*
X107060419Y-65791763D01*
X106939236Y-65836962D01*
X106939230Y-65836965D01*
X106930796Y-65840111D01*
X106923588Y-65845506D01*
X106923582Y-65845510D01*
X106820950Y-65922340D01*
X106820946Y-65922343D01*
X106813739Y-65927739D01*
X106808343Y-65934946D01*
X106808340Y-65934950D01*
X106731510Y-66037582D01*
X106731506Y-66037588D01*
X106726111Y-66044796D01*
X106722965Y-66053230D01*
X106722962Y-66053236D01*
X106677763Y-66174419D01*
X106677761Y-66174423D01*
X106675011Y-66181799D01*
X106674169Y-66189625D01*
X106674168Y-66189632D01*
X106668860Y-66239011D01*
X106668500Y-66242362D01*
X106668500Y-67297638D01*
X103190918Y-67297638D01*
X103284553Y-67276780D01*
X103537558Y-67180014D01*
X103773777Y-67047441D01*
X103988177Y-66881888D01*
X104176186Y-66686881D01*
X104333799Y-66466579D01*
X104457656Y-66225675D01*
X104545118Y-65969305D01*
X104594319Y-65702933D01*
X104604212Y-65432235D01*
X104574586Y-65162982D01*
X104506072Y-64900912D01*
X104400130Y-64651610D01*
X104299526Y-64486765D01*
X106701526Y-64486765D01*
X106702845Y-64498287D01*
X106763078Y-64660919D01*
X106768677Y-64672334D01*
X106868099Y-64831842D01*
X106875880Y-64841893D01*
X107005380Y-64978127D01*
X107015022Y-64986404D01*
X107169289Y-65093778D01*
X107180410Y-65099951D01*
X107353131Y-65174071D01*
X107365265Y-65177878D01*
X107549371Y-65215713D01*
X107562025Y-65217000D01*
X107797410Y-65217000D01*
X107810493Y-65213493D01*
X107814000Y-65200410D01*
X108322000Y-65200410D01*
X108325506Y-65213493D01*
X108338590Y-65217000D01*
X108526854Y-65217000D01*
X108533233Y-65216676D01*
X108673352Y-65202428D01*
X108685799Y-65199870D01*
X108865146Y-65143599D01*
X108876823Y-65138588D01*
X109041157Y-65047374D01*
X109051597Y-65040108D01*
X109194217Y-64917674D01*
X109202968Y-64908468D01*
X109318016Y-64759836D01*
X109324747Y-64749037D01*
X109407521Y-64580294D01*
X109411935Y-64568374D01*
X109430165Y-64497967D01*
X109430454Y-64486575D01*
X109419356Y-64484000D01*
X108338590Y-64484000D01*
X108325506Y-64487506D01*
X108322000Y-64500590D01*
X108322000Y-65200410D01*
X107814000Y-65200410D01*
X107814000Y-64500590D01*
X107810493Y-64487506D01*
X107797410Y-64484000D01*
X106712792Y-64484000D01*
X106701526Y-64486765D01*
X104299526Y-64486765D01*
X104259018Y-64420390D01*
X104085745Y-64212180D01*
X104010137Y-64144435D01*
X103887438Y-64034496D01*
X103887432Y-64034491D01*
X103884002Y-64031418D01*
X103796344Y-63973424D01*
X106705545Y-63973424D01*
X106716644Y-63976000D01*
X107797410Y-63976000D01*
X107810493Y-63972493D01*
X107814000Y-63959410D01*
X108322000Y-63959410D01*
X108325506Y-63972493D01*
X108338590Y-63976000D01*
X109423208Y-63976000D01*
X109434473Y-63973234D01*
X109433154Y-63961712D01*
X109372921Y-63799080D01*
X109367322Y-63787665D01*
X109267900Y-63628157D01*
X109260119Y-63618106D01*
X109130619Y-63481872D01*
X109120977Y-63473595D01*
X108966710Y-63366221D01*
X108955589Y-63360048D01*
X108782868Y-63285928D01*
X108770734Y-63282121D01*
X108586628Y-63244286D01*
X108573975Y-63243000D01*
X108338590Y-63243000D01*
X108325506Y-63246506D01*
X108322000Y-63259590D01*
X108322000Y-63959410D01*
X107814000Y-63959410D01*
X107814000Y-63259590D01*
X107810493Y-63246506D01*
X107797410Y-63243000D01*
X107609146Y-63243000D01*
X107602766Y-63243323D01*
X107462647Y-63257571D01*
X107450200Y-63260129D01*
X107270853Y-63316400D01*
X107259176Y-63321411D01*
X107094842Y-63412625D01*
X107084402Y-63419891D01*
X106941782Y-63542325D01*
X106933031Y-63551531D01*
X106817983Y-63700163D01*
X106811252Y-63710962D01*
X106728478Y-63879705D01*
X106724064Y-63891625D01*
X106705834Y-63962032D01*
X106705545Y-63973424D01*
X103796344Y-63973424D01*
X103724454Y-63925862D01*
X103661925Y-63884493D01*
X103661922Y-63884491D01*
X103658090Y-63881956D01*
X103412824Y-63766980D01*
X103408420Y-63765655D01*
X103157843Y-63690267D01*
X103157838Y-63690265D01*
X103153431Y-63688940D01*
X103148874Y-63688269D01*
X103148868Y-63688268D01*
X102890000Y-63650171D01*
X102889996Y-63650170D01*
X102885439Y-63649500D01*
X102682369Y-63649500D01*
X102680098Y-63649666D01*
X102680076Y-63649667D01*
X102484438Y-63663986D01*
X102484427Y-63663987D01*
X102479844Y-63664323D01*
X102475353Y-63665323D01*
X102475349Y-63665324D01*
X102219939Y-63722219D01*
X102219934Y-63722220D01*
X102215447Y-63723220D01*
X102211149Y-63724863D01*
X102211145Y-63724865D01*
X101966746Y-63818339D01*
X101966735Y-63818343D01*
X101962442Y-63819986D01*
X101958434Y-63822235D01*
X101958422Y-63822241D01*
X101730232Y-63950308D01*
X101730221Y-63950314D01*
X101726223Y-63952559D01*
X101722589Y-63955364D01*
X101722586Y-63955367D01*
X101515466Y-64115298D01*
X101515458Y-64115305D01*
X101511823Y-64118112D01*
X101508632Y-64121421D01*
X101508625Y-64121428D01*
X101327011Y-64309802D01*
X101327004Y-64309809D01*
X101323814Y-64313119D01*
X101321136Y-64316861D01*
X101321131Y-64316868D01*
X101168885Y-64529668D01*
X101168878Y-64529677D01*
X101166201Y-64533421D01*
X101164097Y-64537512D01*
X101164091Y-64537523D01*
X101055345Y-64749037D01*
X101042344Y-64774325D01*
X101040856Y-64778684D01*
X101040854Y-64778691D01*
X100956371Y-65026327D01*
X100956367Y-65026341D01*
X100954882Y-65030695D01*
X100954044Y-65035228D01*
X100954044Y-65035231D01*
X100906517Y-65292537D01*
X100906515Y-65292546D01*
X100905681Y-65297067D01*
X100905513Y-65301656D01*
X100905512Y-65301668D01*
X100895956Y-65563161D01*
X100895788Y-65567765D01*
X98234035Y-65567765D01*
X98200938Y-63945969D01*
X98207690Y-63902629D01*
X98228888Y-63864232D01*
X100264605Y-61343820D01*
X100299643Y-61313863D01*
X100403399Y-61253983D01*
X100414512Y-61248283D01*
X100731306Y-61105215D01*
X105950000Y-61105215D01*
X105950246Y-61110781D01*
X105960078Y-61221362D01*
X105962256Y-61233087D01*
X106014799Y-61416717D01*
X106019519Y-61428533D01*
X106107759Y-61597458D01*
X106114763Y-61608087D01*
X106235214Y-61755807D01*
X106244192Y-61764785D01*
X106391912Y-61885236D01*
X106402541Y-61892240D01*
X106571466Y-61980480D01*
X106583282Y-61985200D01*
X106766912Y-62037743D01*
X106778637Y-62039921D01*
X106889218Y-62049753D01*
X106894785Y-62050000D01*
X107529410Y-62050000D01*
X107542493Y-62046493D01*
X107546000Y-62033410D01*
X108054000Y-62033410D01*
X108057506Y-62046493D01*
X108070590Y-62050000D01*
X108705215Y-62050000D01*
X108710781Y-62049753D01*
X108821362Y-62039921D01*
X108833087Y-62037743D01*
X109016717Y-61985200D01*
X109028533Y-61980480D01*
X109197458Y-61892240D01*
X109208087Y-61885236D01*
X109355807Y-61764785D01*
X109364785Y-61755807D01*
X109485236Y-61608087D01*
X109492240Y-61597458D01*
X109580480Y-61428533D01*
X109585200Y-61416717D01*
X109637743Y-61233087D01*
X109639921Y-61221362D01*
X109649753Y-61110781D01*
X109650000Y-61105215D01*
X109650000Y-61098638D01*
X111041500Y-61098638D01*
X111041859Y-61101985D01*
X111041860Y-61101988D01*
X111047168Y-61151367D01*
X111047169Y-61151373D01*
X111048011Y-61159201D01*
X111050762Y-61166578D01*
X111050763Y-61166580D01*
X111095962Y-61287763D01*
X111095964Y-61287766D01*
X111099111Y-61296204D01*
X111104508Y-61303414D01*
X111104510Y-61303417D01*
X111160787Y-61378593D01*
X111186739Y-61413261D01*
X111193950Y-61418659D01*
X111291535Y-61491711D01*
X111303796Y-61500889D01*
X111440799Y-61551989D01*
X111501362Y-61558500D01*
X111681582Y-61558500D01*
X111734033Y-61569936D01*
X111776962Y-61602168D01*
X111802578Y-61649345D01*
X111811769Y-61680980D01*
X111811772Y-61680988D01*
X111813982Y-61688593D01*
X111818014Y-61695411D01*
X111818015Y-61695413D01*
X111824293Y-61706029D01*
X111832990Y-61723782D01*
X111840448Y-61742617D01*
X111845107Y-61749030D01*
X111845108Y-61749031D01*
X111866432Y-61778381D01*
X111872948Y-61788301D01*
X111891422Y-61819538D01*
X111895458Y-61826362D01*
X111901062Y-61831966D01*
X111901063Y-61831967D01*
X111909778Y-61840682D01*
X111922618Y-61855715D01*
X111934528Y-61872107D01*
X111940635Y-61877159D01*
X111940636Y-61877160D01*
X111968598Y-61900292D01*
X111977378Y-61908282D01*
X115304926Y-65235831D01*
X115335564Y-65285684D01*
X115340366Y-65343848D01*
X115338853Y-65349694D01*
X115338529Y-65356077D01*
X115338529Y-65356079D01*
X115329004Y-65543893D01*
X115329004Y-65543898D01*
X115328681Y-65550274D01*
X115359093Y-65748796D01*
X115361310Y-65754783D01*
X115361312Y-65754789D01*
X115426624Y-65931137D01*
X115426626Y-65931142D01*
X115428845Y-65937132D01*
X115432226Y-65942556D01*
X115529793Y-66099088D01*
X115535082Y-66107572D01*
X115539482Y-66112201D01*
X115539483Y-66112202D01*
X115647347Y-66225675D01*
X115673452Y-66253138D01*
X115678698Y-66256789D01*
X115678699Y-66256790D01*
X115833048Y-66364220D01*
X115833052Y-66364222D01*
X115838293Y-66367870D01*
X115860959Y-66377596D01*
X115910008Y-66415110D01*
X115935343Y-66471424D01*
X115930878Y-66533014D01*
X115897686Y-66585085D01*
X115742972Y-66730880D01*
X115738564Y-66735477D01*
X115646508Y-66841773D01*
X115639200Y-66852177D01*
X115621010Y-66884617D01*
X115618098Y-66895982D01*
X115629433Y-66899000D01*
X117985712Y-66899000D01*
X117998342Y-66895852D01*
X118001053Y-66888423D01*
X118001055Y-66887927D01*
X117982879Y-66701149D01*
X117980375Y-66688693D01*
X117924976Y-66509405D01*
X117920010Y-66497694D01*
X117833968Y-66341078D01*
X117818543Y-66286410D01*
X117828696Y-66230523D01*
X117855577Y-66193995D01*
X117854172Y-66192660D01*
X117858578Y-66188023D01*
X117863424Y-66183864D01*
X117986358Y-66025046D01*
X118074806Y-65844733D01*
X118125147Y-65650306D01*
X118129333Y-65567765D01*
X120145788Y-65567765D01*
X120146290Y-65572332D01*
X120146291Y-65572344D01*
X120174910Y-65832444D01*
X120174911Y-65832453D01*
X120175414Y-65837018D01*
X120176576Y-65841463D01*
X120176577Y-65841468D01*
X120201587Y-65937132D01*
X120243928Y-66099088D01*
X120245725Y-66103318D01*
X120245728Y-66103325D01*
X120307424Y-66248506D01*
X120349870Y-66348390D01*
X120352265Y-66352315D01*
X120352266Y-66352316D01*
X120361758Y-66367870D01*
X120490982Y-66579610D01*
X120664255Y-66787820D01*
X120736082Y-66852177D01*
X120862561Y-66965503D01*
X120862565Y-66965506D01*
X120865998Y-66968582D01*
X121091910Y-67118044D01*
X121337176Y-67233020D01*
X121596569Y-67311060D01*
X121864561Y-67350500D01*
X122065330Y-67350500D01*
X122067631Y-67350500D01*
X122270156Y-67335677D01*
X122534553Y-67276780D01*
X122787558Y-67180014D01*
X123023777Y-67047441D01*
X123238177Y-66881888D01*
X123426186Y-66686881D01*
X123583799Y-66466579D01*
X123707656Y-66225675D01*
X123795118Y-65969305D01*
X123844319Y-65702933D01*
X123854212Y-65432235D01*
X123824586Y-65162982D01*
X123756072Y-64900912D01*
X123650130Y-64651610D01*
X123509018Y-64420390D01*
X123335745Y-64212180D01*
X123260137Y-64144435D01*
X123137438Y-64034496D01*
X123137432Y-64034491D01*
X123134002Y-64031418D01*
X122974454Y-63925862D01*
X122911925Y-63884493D01*
X122911922Y-63884491D01*
X122908090Y-63881956D01*
X122662824Y-63766980D01*
X122658420Y-63765655D01*
X122407843Y-63690267D01*
X122407838Y-63690265D01*
X122403431Y-63688940D01*
X122398874Y-63688269D01*
X122398868Y-63688268D01*
X122140000Y-63650171D01*
X122139996Y-63650170D01*
X122135439Y-63649500D01*
X121932369Y-63649500D01*
X121930098Y-63649666D01*
X121930076Y-63649667D01*
X121734438Y-63663986D01*
X121734427Y-63663987D01*
X121729844Y-63664323D01*
X121725353Y-63665323D01*
X121725349Y-63665324D01*
X121469939Y-63722219D01*
X121469934Y-63722220D01*
X121465447Y-63723220D01*
X121461149Y-63724863D01*
X121461145Y-63724865D01*
X121216746Y-63818339D01*
X121216735Y-63818343D01*
X121212442Y-63819986D01*
X121208434Y-63822235D01*
X121208422Y-63822241D01*
X120980232Y-63950308D01*
X120980221Y-63950314D01*
X120976223Y-63952559D01*
X120972589Y-63955364D01*
X120972586Y-63955367D01*
X120765466Y-64115298D01*
X120765458Y-64115305D01*
X120761823Y-64118112D01*
X120758632Y-64121421D01*
X120758625Y-64121428D01*
X120577011Y-64309802D01*
X120577004Y-64309809D01*
X120573814Y-64313119D01*
X120571136Y-64316861D01*
X120571131Y-64316868D01*
X120418885Y-64529668D01*
X120418878Y-64529677D01*
X120416201Y-64533421D01*
X120414097Y-64537512D01*
X120414091Y-64537523D01*
X120305345Y-64749037D01*
X120292344Y-64774325D01*
X120290856Y-64778684D01*
X120290854Y-64778691D01*
X120206371Y-65026327D01*
X120206367Y-65026341D01*
X120204882Y-65030695D01*
X120204044Y-65035228D01*
X120204044Y-65035231D01*
X120156517Y-65292537D01*
X120156515Y-65292546D01*
X120155681Y-65297067D01*
X120155513Y-65301656D01*
X120155512Y-65301668D01*
X120145956Y-65563161D01*
X120145788Y-65567765D01*
X118129333Y-65567765D01*
X118135319Y-65449726D01*
X118104907Y-65251204D01*
X118035155Y-65062868D01*
X117928918Y-64892428D01*
X117848903Y-64808252D01*
X117820061Y-64759336D01*
X117815626Y-64702722D01*
X117836499Y-64649914D01*
X117879731Y-64587225D01*
X117958012Y-64402603D01*
X117997527Y-64206001D01*
X117996657Y-64005470D01*
X117955439Y-63809219D01*
X117946078Y-63787665D01*
X117936520Y-63765655D01*
X117875559Y-63625283D01*
X117760288Y-63461191D01*
X117092724Y-62832111D01*
X116973495Y-62740645D01*
X116967747Y-62737856D01*
X116967745Y-62737855D01*
X116798822Y-62655901D01*
X116798820Y-62655900D01*
X116793075Y-62653113D01*
X116754263Y-62643243D01*
X116604919Y-62605266D01*
X116604915Y-62605265D01*
X116598728Y-62603692D01*
X116592345Y-62603396D01*
X116404788Y-62594698D01*
X116404780Y-62594698D01*
X116398410Y-62594403D01*
X116392106Y-62595396D01*
X116392100Y-62595397D01*
X116206632Y-62624633D01*
X116206627Y-62624634D01*
X116200323Y-62625628D01*
X116194352Y-62627868D01*
X116194344Y-62627871D01*
X116018556Y-62693844D01*
X116018547Y-62693848D01*
X116012577Y-62696089D01*
X116007176Y-62699487D01*
X116007170Y-62699491D01*
X115868356Y-62786854D01*
X115842858Y-62802901D01*
X115838252Y-62807316D01*
X115838246Y-62807322D01*
X115702719Y-62937273D01*
X115702716Y-62937275D01*
X115698113Y-62941690D01*
X115694493Y-62946938D01*
X115694489Y-62946944D01*
X115587900Y-63101510D01*
X115587897Y-63101515D01*
X115584270Y-63106775D01*
X115581776Y-63112655D01*
X115581773Y-63112662D01*
X115508481Y-63285518D01*
X115505988Y-63291398D01*
X115504731Y-63297649D01*
X115504727Y-63297664D01*
X115493135Y-63355340D01*
X115462838Y-63415268D01*
X115406061Y-63451122D01*
X115338929Y-63452720D01*
X115280511Y-63419606D01*
X113522157Y-61661252D01*
X113493196Y-61616189D01*
X113485573Y-61563168D01*
X113500665Y-61511771D01*
X113535739Y-61471292D01*
X113613261Y-61413261D01*
X113700889Y-61296204D01*
X113751989Y-61159201D01*
X113758500Y-61098638D01*
X115641500Y-61098638D01*
X115641859Y-61101985D01*
X115641860Y-61101988D01*
X115647168Y-61151367D01*
X115647169Y-61151373D01*
X115648011Y-61159201D01*
X115650762Y-61166578D01*
X115650763Y-61166580D01*
X115695962Y-61287763D01*
X115695964Y-61287766D01*
X115699111Y-61296204D01*
X115704508Y-61303414D01*
X115704510Y-61303417D01*
X115760787Y-61378593D01*
X115786739Y-61413261D01*
X115793950Y-61418659D01*
X115891535Y-61491711D01*
X115903796Y-61500889D01*
X116040799Y-61551989D01*
X116101362Y-61558500D01*
X117895269Y-61558500D01*
X117898638Y-61558500D01*
X117959201Y-61551989D01*
X118096204Y-61500889D01*
X118213261Y-61413261D01*
X118300889Y-61296204D01*
X118351989Y-61159201D01*
X118358500Y-61098638D01*
X118358500Y-59301362D01*
X118351989Y-59240799D01*
X118300889Y-59103796D01*
X118213261Y-58986739D01*
X118179836Y-58961717D01*
X118103417Y-58904510D01*
X118103414Y-58904508D01*
X118096204Y-58899111D01*
X118087766Y-58895964D01*
X118087763Y-58895962D01*
X117966580Y-58850763D01*
X117966578Y-58850762D01*
X117959201Y-58848011D01*
X117951373Y-58847169D01*
X117951367Y-58847168D01*
X117901988Y-58841860D01*
X117901985Y-58841859D01*
X117898638Y-58841500D01*
X116101362Y-58841500D01*
X116098015Y-58841859D01*
X116098011Y-58841860D01*
X116048632Y-58847168D01*
X116048625Y-58847169D01*
X116040799Y-58848011D01*
X116033423Y-58850761D01*
X116033419Y-58850763D01*
X115912236Y-58895962D01*
X115912230Y-58895965D01*
X115903796Y-58899111D01*
X115896588Y-58904506D01*
X115896582Y-58904510D01*
X115793950Y-58981340D01*
X115793946Y-58981343D01*
X115786739Y-58986739D01*
X115781343Y-58993946D01*
X115781340Y-58993950D01*
X115704510Y-59096582D01*
X115704506Y-59096588D01*
X115699111Y-59103796D01*
X115695965Y-59112230D01*
X115695962Y-59112236D01*
X115650763Y-59233419D01*
X115650761Y-59233423D01*
X115648011Y-59240799D01*
X115647169Y-59248625D01*
X115647168Y-59248632D01*
X115642207Y-59294785D01*
X115641500Y-59301362D01*
X115641500Y-61098638D01*
X113758500Y-61098638D01*
X113758500Y-59301362D01*
X113751989Y-59240799D01*
X113700889Y-59103796D01*
X113613261Y-58986739D01*
X113579836Y-58961717D01*
X113503417Y-58904510D01*
X113503414Y-58904508D01*
X113496204Y-58899111D01*
X113487766Y-58895964D01*
X113487763Y-58895962D01*
X113366580Y-58850763D01*
X113366578Y-58850762D01*
X113359201Y-58848011D01*
X113351373Y-58847169D01*
X113351367Y-58847168D01*
X113301988Y-58841860D01*
X113301985Y-58841859D01*
X113298638Y-58841500D01*
X111501362Y-58841500D01*
X111498015Y-58841859D01*
X111498011Y-58841860D01*
X111448632Y-58847168D01*
X111448625Y-58847169D01*
X111440799Y-58848011D01*
X111433423Y-58850761D01*
X111433419Y-58850763D01*
X111312236Y-58895962D01*
X111312230Y-58895965D01*
X111303796Y-58899111D01*
X111296588Y-58904506D01*
X111296582Y-58904510D01*
X111193950Y-58981340D01*
X111193946Y-58981343D01*
X111186739Y-58986739D01*
X111181343Y-58993946D01*
X111181340Y-58993950D01*
X111104510Y-59096582D01*
X111104506Y-59096588D01*
X111099111Y-59103796D01*
X111095965Y-59112230D01*
X111095962Y-59112236D01*
X111050763Y-59233419D01*
X111050761Y-59233423D01*
X111048011Y-59240799D01*
X111047169Y-59248625D01*
X111047168Y-59248632D01*
X111042207Y-59294785D01*
X111041500Y-59301362D01*
X111041500Y-61098638D01*
X109650000Y-61098638D01*
X109650000Y-60470590D01*
X109646493Y-60457506D01*
X109633410Y-60454000D01*
X108070590Y-60454000D01*
X108057506Y-60457506D01*
X108054000Y-60470590D01*
X108054000Y-62033410D01*
X107546000Y-62033410D01*
X107546000Y-60470590D01*
X107542493Y-60457506D01*
X107529410Y-60454000D01*
X105966590Y-60454000D01*
X105953506Y-60457506D01*
X105950000Y-60470590D01*
X105950000Y-61105215D01*
X100731306Y-61105215D01*
X105861072Y-58788547D01*
X105921879Y-58777699D01*
X105980537Y-58797054D01*
X106022947Y-58841961D01*
X106038919Y-58901629D01*
X106024613Y-58961717D01*
X106019518Y-58971469D01*
X106014799Y-58983282D01*
X105962256Y-59166912D01*
X105960078Y-59178637D01*
X105950246Y-59289218D01*
X105950000Y-59294785D01*
X105950000Y-59929410D01*
X105953506Y-59942493D01*
X105966590Y-59946000D01*
X109633410Y-59946000D01*
X109646493Y-59942493D01*
X109650000Y-59929410D01*
X109650000Y-59294785D01*
X109649753Y-59289218D01*
X109639921Y-59178637D01*
X109637743Y-59166912D01*
X109585200Y-58983282D01*
X109580480Y-58971466D01*
X109492240Y-58802541D01*
X109485232Y-58791906D01*
X109415286Y-58706125D01*
X109387848Y-58641627D01*
X109399120Y-58572448D01*
X109445611Y-58519995D01*
X109512937Y-58500500D01*
X118174299Y-58500500D01*
X118225617Y-58511424D01*
G37*
%TD.AperFunction*%
%TD*%
M02*
