%TF.GenerationSoftware,KiCad,Pcbnew,(7.0.0-0)*%
%TF.CreationDate,2023-03-02T14:10:56-08:00*%
%TF.ProjectId,Tap_Photosensor_PCB,5461705f-5068-46f7-946f-73656e736f72,rev?*%
%TF.SameCoordinates,Original*%
%TF.FileFunction,Legend,Top*%
%TF.FilePolarity,Positive*%
%FSLAX46Y46*%
G04 Gerber Fmt 4.6, Leading zero omitted, Abs format (unit mm)*
G04 Created by KiCad (PCBNEW (7.0.0-0)) date 2023-03-02 14:10:56*
%MOMM*%
%LPD*%
G01*
G04 APERTURE LIST*
G04 Aperture macros list*
%AMRoundRect*
0 Rectangle with rounded corners*
0 $1 Rounding radius*
0 $2 $3 $4 $5 $6 $7 $8 $9 X,Y pos of 4 corners*
0 Add a 4 corners polygon primitive as box body*
4,1,4,$2,$3,$4,$5,$6,$7,$8,$9,$2,$3,0*
0 Add four circle primitives for the rounded corners*
1,1,$1+$1,$2,$3*
1,1,$1+$1,$4,$5*
1,1,$1+$1,$6,$7*
1,1,$1+$1,$8,$9*
0 Add four rect primitives between the rounded corners*
20,1,$1+$1,$2,$3,$4,$5,0*
20,1,$1+$1,$4,$5,$6,$7,0*
20,1,$1+$1,$6,$7,$8,$9,0*
20,1,$1+$1,$8,$9,$2,$3,0*%
%AMHorizOval*
0 Thick line with rounded ends*
0 $1 width*
0 $2 $3 position (X,Y) of the first rounded end (center of the circle)*
0 $4 $5 position (X,Y) of the second rounded end (center of the circle)*
0 Add line between two ends*
20,1,$1,$2,$3,$4,$5,0*
0 Add two circle primitives to create the rounded ends*
1,1,$1,$2,$3*
1,1,$1,$4,$5*%
%AMFreePoly0*
4,1,19,0.500000,-0.750000,0.000000,-0.750000,0.000000,-0.744911,-0.071157,-0.744911,-0.207708,-0.704816,-0.327430,-0.627875,-0.420627,-0.520320,-0.479746,-0.390866,-0.500000,-0.250000,-0.500000,0.250000,-0.479746,0.390866,-0.420627,0.520320,-0.327430,0.627875,-0.207708,0.704816,-0.071157,0.744911,0.000000,0.744911,0.000000,0.750000,0.500000,0.750000,0.500000,-0.750000,0.500000,-0.750000,
$1*%
%AMFreePoly1*
4,1,19,0.000000,0.744911,0.071157,0.744911,0.207708,0.704816,0.327430,0.627875,0.420627,0.520320,0.479746,0.390866,0.500000,0.250000,0.500000,-0.250000,0.479746,-0.390866,0.420627,-0.520320,0.327430,-0.627875,0.207708,-0.704816,0.071157,-0.744911,0.000000,-0.744911,0.000000,-0.750000,-0.500000,-0.750000,-0.500000,0.750000,0.000000,0.750000,0.000000,0.744911,0.000000,0.744911,
$1*%
G04 Aperture macros list end*
%ADD10C,0.150000*%
%ADD11C,0.100000*%
%ADD12C,0.120000*%
%ADD13FreePoly0,90.000000*%
%ADD14FreePoly1,90.000000*%
%ADD15C,3.200000*%
%ADD16R,1.700000X1.700000*%
%ADD17RoundRect,0.250000X-0.450000X0.262500X-0.450000X-0.262500X0.450000X-0.262500X0.450000X0.262500X0*%
%ADD18R,0.700000X0.600000*%
%ADD19R,1.782000X0.958000*%
%ADD20O,1.782000X0.958000*%
%ADD21HorizOval,0.955000X0.279101X-0.263011X-0.279101X0.263011X0*%
%ADD22HorizOval,0.955000X0.279101X0.263011X-0.279101X-0.263011X0*%
G04 APERTURE END LIST*
D10*
X108036904Y-61390000D02*
X107941666Y-61342380D01*
X107941666Y-61342380D02*
X107798809Y-61342380D01*
X107798809Y-61342380D02*
X107655952Y-61390000D01*
X107655952Y-61390000D02*
X107560714Y-61485238D01*
X107560714Y-61485238D02*
X107513095Y-61580476D01*
X107513095Y-61580476D02*
X107465476Y-61770952D01*
X107465476Y-61770952D02*
X107465476Y-61913809D01*
X107465476Y-61913809D02*
X107513095Y-62104285D01*
X107513095Y-62104285D02*
X107560714Y-62199523D01*
X107560714Y-62199523D02*
X107655952Y-62294761D01*
X107655952Y-62294761D02*
X107798809Y-62342380D01*
X107798809Y-62342380D02*
X107894047Y-62342380D01*
X107894047Y-62342380D02*
X108036904Y-62294761D01*
X108036904Y-62294761D02*
X108084523Y-62247142D01*
X108084523Y-62247142D02*
X108084523Y-61913809D01*
X108084523Y-61913809D02*
X107894047Y-61913809D01*
D11*
X114128572Y-63484428D02*
X114128572Y-62884428D01*
X114128572Y-63455857D02*
X114071429Y-63484428D01*
X114071429Y-63484428D02*
X113957143Y-63484428D01*
X113957143Y-63484428D02*
X113900000Y-63455857D01*
X113900000Y-63455857D02*
X113871429Y-63427285D01*
X113871429Y-63427285D02*
X113842857Y-63370142D01*
X113842857Y-63370142D02*
X113842857Y-63198714D01*
X113842857Y-63198714D02*
X113871429Y-63141571D01*
X113871429Y-63141571D02*
X113900000Y-63113000D01*
X113900000Y-63113000D02*
X113957143Y-63084428D01*
X113957143Y-63084428D02*
X114071429Y-63084428D01*
X114071429Y-63084428D02*
X114128572Y-63113000D01*
X114671429Y-63484428D02*
X114671429Y-63170142D01*
X114671429Y-63170142D02*
X114642857Y-63113000D01*
X114642857Y-63113000D02*
X114585714Y-63084428D01*
X114585714Y-63084428D02*
X114471429Y-63084428D01*
X114471429Y-63084428D02*
X114414286Y-63113000D01*
X114671429Y-63455857D02*
X114614286Y-63484428D01*
X114614286Y-63484428D02*
X114471429Y-63484428D01*
X114471429Y-63484428D02*
X114414286Y-63455857D01*
X114414286Y-63455857D02*
X114385714Y-63398714D01*
X114385714Y-63398714D02*
X114385714Y-63341571D01*
X114385714Y-63341571D02*
X114414286Y-63284428D01*
X114414286Y-63284428D02*
X114471429Y-63255857D01*
X114471429Y-63255857D02*
X114614286Y-63255857D01*
X114614286Y-63255857D02*
X114671429Y-63227285D01*
X114957143Y-63484428D02*
X114957143Y-63084428D01*
X114957143Y-63198714D02*
X114985714Y-63141571D01*
X114985714Y-63141571D02*
X115014286Y-63113000D01*
X115014286Y-63113000D02*
X115071428Y-63084428D01*
X115071428Y-63084428D02*
X115128571Y-63084428D01*
X115328572Y-63484428D02*
X115328572Y-62884428D01*
X115385715Y-63255857D02*
X115557143Y-63484428D01*
X115557143Y-63084428D02*
X115328572Y-63313000D01*
X113642857Y-64456428D02*
X113642857Y-64056428D01*
X113642857Y-64113571D02*
X113671428Y-64085000D01*
X113671428Y-64085000D02*
X113728571Y-64056428D01*
X113728571Y-64056428D02*
X113814285Y-64056428D01*
X113814285Y-64056428D02*
X113871428Y-64085000D01*
X113871428Y-64085000D02*
X113900000Y-64142142D01*
X113900000Y-64142142D02*
X113900000Y-64456428D01*
X113900000Y-64142142D02*
X113928571Y-64085000D01*
X113928571Y-64085000D02*
X113985714Y-64056428D01*
X113985714Y-64056428D02*
X114071428Y-64056428D01*
X114071428Y-64056428D02*
X114128571Y-64085000D01*
X114128571Y-64085000D02*
X114157142Y-64142142D01*
X114157142Y-64142142D02*
X114157142Y-64456428D01*
X114528571Y-64456428D02*
X114471428Y-64427857D01*
X114471428Y-64427857D02*
X114442857Y-64399285D01*
X114442857Y-64399285D02*
X114414285Y-64342142D01*
X114414285Y-64342142D02*
X114414285Y-64170714D01*
X114414285Y-64170714D02*
X114442857Y-64113571D01*
X114442857Y-64113571D02*
X114471428Y-64085000D01*
X114471428Y-64085000D02*
X114528571Y-64056428D01*
X114528571Y-64056428D02*
X114614285Y-64056428D01*
X114614285Y-64056428D02*
X114671428Y-64085000D01*
X114671428Y-64085000D02*
X114700000Y-64113571D01*
X114700000Y-64113571D02*
X114728571Y-64170714D01*
X114728571Y-64170714D02*
X114728571Y-64342142D01*
X114728571Y-64342142D02*
X114700000Y-64399285D01*
X114700000Y-64399285D02*
X114671428Y-64427857D01*
X114671428Y-64427857D02*
X114614285Y-64456428D01*
X114614285Y-64456428D02*
X114528571Y-64456428D01*
X115242857Y-64456428D02*
X115242857Y-63856428D01*
X115242857Y-64427857D02*
X115185714Y-64456428D01*
X115185714Y-64456428D02*
X115071428Y-64456428D01*
X115071428Y-64456428D02*
X115014285Y-64427857D01*
X115014285Y-64427857D02*
X114985714Y-64399285D01*
X114985714Y-64399285D02*
X114957142Y-64342142D01*
X114957142Y-64342142D02*
X114957142Y-64170714D01*
X114957142Y-64170714D02*
X114985714Y-64113571D01*
X114985714Y-64113571D02*
X115014285Y-64085000D01*
X115014285Y-64085000D02*
X115071428Y-64056428D01*
X115071428Y-64056428D02*
X115185714Y-64056428D01*
X115185714Y-64056428D02*
X115242857Y-64085000D01*
X115757142Y-64427857D02*
X115699999Y-64456428D01*
X115699999Y-64456428D02*
X115585714Y-64456428D01*
X115585714Y-64456428D02*
X115528571Y-64427857D01*
X115528571Y-64427857D02*
X115499999Y-64370714D01*
X115499999Y-64370714D02*
X115499999Y-64142142D01*
X115499999Y-64142142D02*
X115528571Y-64085000D01*
X115528571Y-64085000D02*
X115585714Y-64056428D01*
X115585714Y-64056428D02*
X115699999Y-64056428D01*
X115699999Y-64056428D02*
X115757142Y-64085000D01*
X115757142Y-64085000D02*
X115785714Y-64142142D01*
X115785714Y-64142142D02*
X115785714Y-64199285D01*
X115785714Y-64199285D02*
X115499999Y-64256428D01*
D10*
X116734523Y-61292380D02*
X116258333Y-61292380D01*
X116258333Y-61292380D02*
X116210714Y-61768571D01*
X116210714Y-61768571D02*
X116258333Y-61720952D01*
X116258333Y-61720952D02*
X116353571Y-61673333D01*
X116353571Y-61673333D02*
X116591666Y-61673333D01*
X116591666Y-61673333D02*
X116686904Y-61720952D01*
X116686904Y-61720952D02*
X116734523Y-61768571D01*
X116734523Y-61768571D02*
X116782142Y-61863809D01*
X116782142Y-61863809D02*
X116782142Y-62101904D01*
X116782142Y-62101904D02*
X116734523Y-62197142D01*
X116734523Y-62197142D02*
X116686904Y-62244761D01*
X116686904Y-62244761D02*
X116591666Y-62292380D01*
X116591666Y-62292380D02*
X116353571Y-62292380D01*
X116353571Y-62292380D02*
X116258333Y-62244761D01*
X116258333Y-62244761D02*
X116210714Y-62197142D01*
X117067857Y-61292380D02*
X117401190Y-62292380D01*
X117401190Y-62292380D02*
X117734523Y-61292380D01*
X112139286Y-62269761D02*
X112282143Y-62317380D01*
X112282143Y-62317380D02*
X112520238Y-62317380D01*
X112520238Y-62317380D02*
X112615476Y-62269761D01*
X112615476Y-62269761D02*
X112663095Y-62222142D01*
X112663095Y-62222142D02*
X112710714Y-62126904D01*
X112710714Y-62126904D02*
X112710714Y-62031666D01*
X112710714Y-62031666D02*
X112663095Y-61936428D01*
X112663095Y-61936428D02*
X112615476Y-61888809D01*
X112615476Y-61888809D02*
X112520238Y-61841190D01*
X112520238Y-61841190D02*
X112329762Y-61793571D01*
X112329762Y-61793571D02*
X112234524Y-61745952D01*
X112234524Y-61745952D02*
X112186905Y-61698333D01*
X112186905Y-61698333D02*
X112139286Y-61603095D01*
X112139286Y-61603095D02*
X112139286Y-61507857D01*
X112139286Y-61507857D02*
X112186905Y-61412619D01*
X112186905Y-61412619D02*
X112234524Y-61365000D01*
X112234524Y-61365000D02*
X112329762Y-61317380D01*
X112329762Y-61317380D02*
X112567857Y-61317380D01*
X112567857Y-61317380D02*
X112710714Y-61365000D01*
%TO.C,*%
D11*
%TO.C,R2*%
X110158333Y-68432166D02*
X109925000Y-68098833D01*
X109758333Y-68432166D02*
X109758333Y-67732166D01*
X109758333Y-67732166D02*
X110025000Y-67732166D01*
X110025000Y-67732166D02*
X110091667Y-67765500D01*
X110091667Y-67765500D02*
X110125000Y-67798833D01*
X110125000Y-67798833D02*
X110158333Y-67865500D01*
X110158333Y-67865500D02*
X110158333Y-67965500D01*
X110158333Y-67965500D02*
X110125000Y-68032166D01*
X110125000Y-68032166D02*
X110091667Y-68065500D01*
X110091667Y-68065500D02*
X110025000Y-68098833D01*
X110025000Y-68098833D02*
X109758333Y-68098833D01*
X110425000Y-67798833D02*
X110458333Y-67765500D01*
X110458333Y-67765500D02*
X110525000Y-67732166D01*
X110525000Y-67732166D02*
X110691667Y-67732166D01*
X110691667Y-67732166D02*
X110758333Y-67765500D01*
X110758333Y-67765500D02*
X110791667Y-67798833D01*
X110791667Y-67798833D02*
X110825000Y-67865500D01*
X110825000Y-67865500D02*
X110825000Y-67932166D01*
X110825000Y-67932166D02*
X110791667Y-68032166D01*
X110791667Y-68032166D02*
X110391667Y-68432166D01*
X110391667Y-68432166D02*
X110825000Y-68432166D01*
%TO.C,D1*%
X111907143Y-68520428D02*
X111907143Y-67920428D01*
X111907143Y-67920428D02*
X112050000Y-67920428D01*
X112050000Y-67920428D02*
X112135714Y-67949000D01*
X112135714Y-67949000D02*
X112192857Y-68006142D01*
X112192857Y-68006142D02*
X112221428Y-68063285D01*
X112221428Y-68063285D02*
X112250000Y-68177571D01*
X112250000Y-68177571D02*
X112250000Y-68263285D01*
X112250000Y-68263285D02*
X112221428Y-68377571D01*
X112221428Y-68377571D02*
X112192857Y-68434714D01*
X112192857Y-68434714D02*
X112135714Y-68491857D01*
X112135714Y-68491857D02*
X112050000Y-68520428D01*
X112050000Y-68520428D02*
X111907143Y-68520428D01*
X112821428Y-68520428D02*
X112478571Y-68520428D01*
X112650000Y-68520428D02*
X112650000Y-67920428D01*
X112650000Y-67920428D02*
X112592857Y-68006142D01*
X112592857Y-68006142D02*
X112535714Y-68063285D01*
X112535714Y-68063285D02*
X112478571Y-68091857D01*
D10*
%TO.C,*%
D11*
%TO.C,R1*%
X114483333Y-68432166D02*
X114250000Y-68098833D01*
X114083333Y-68432166D02*
X114083333Y-67732166D01*
X114083333Y-67732166D02*
X114350000Y-67732166D01*
X114350000Y-67732166D02*
X114416667Y-67765500D01*
X114416667Y-67765500D02*
X114450000Y-67798833D01*
X114450000Y-67798833D02*
X114483333Y-67865500D01*
X114483333Y-67865500D02*
X114483333Y-67965500D01*
X114483333Y-67965500D02*
X114450000Y-68032166D01*
X114450000Y-68032166D02*
X114416667Y-68065500D01*
X114416667Y-68065500D02*
X114350000Y-68098833D01*
X114350000Y-68098833D02*
X114083333Y-68098833D01*
X115150000Y-68432166D02*
X114750000Y-68432166D01*
X114950000Y-68432166D02*
X114950000Y-67732166D01*
X114950000Y-67732166D02*
X114883333Y-67832166D01*
X114883333Y-67832166D02*
X114816667Y-67898833D01*
X114816667Y-67898833D02*
X114750000Y-67932166D01*
%TO.C,U1*%
X117833333Y-64357166D02*
X118166666Y-64357166D01*
X117766666Y-64557166D02*
X118000000Y-63857166D01*
X118000000Y-63857166D02*
X118233333Y-64557166D01*
X106566666Y-66657166D02*
X106800000Y-67357166D01*
X106800000Y-67357166D02*
X107033333Y-66657166D01*
X106983333Y-63490500D02*
X106916666Y-63457166D01*
X106916666Y-63457166D02*
X106816666Y-63457166D01*
X106816666Y-63457166D02*
X106716666Y-63490500D01*
X106716666Y-63490500D02*
X106650000Y-63557166D01*
X106650000Y-63557166D02*
X106616666Y-63623833D01*
X106616666Y-63623833D02*
X106583333Y-63757166D01*
X106583333Y-63757166D02*
X106583333Y-63857166D01*
X106583333Y-63857166D02*
X106616666Y-63990500D01*
X106616666Y-63990500D02*
X106650000Y-64057166D01*
X106650000Y-64057166D02*
X106716666Y-64123833D01*
X106716666Y-64123833D02*
X106816666Y-64157166D01*
X106816666Y-64157166D02*
X106883333Y-64157166D01*
X106883333Y-64157166D02*
X106983333Y-64123833D01*
X106983333Y-64123833D02*
X107016666Y-64090500D01*
X107016666Y-64090500D02*
X107016666Y-63857166D01*
X107016666Y-63857166D02*
X106883333Y-63857166D01*
X106733334Y-65057166D02*
X106866667Y-65057166D01*
X106866667Y-65057166D02*
X106933334Y-65090500D01*
X106933334Y-65090500D02*
X107000000Y-65157166D01*
X107000000Y-65157166D02*
X107033334Y-65290500D01*
X107033334Y-65290500D02*
X107033334Y-65523833D01*
X107033334Y-65523833D02*
X107000000Y-65657166D01*
X107000000Y-65657166D02*
X106933334Y-65723833D01*
X106933334Y-65723833D02*
X106866667Y-65757166D01*
X106866667Y-65757166D02*
X106733334Y-65757166D01*
X106733334Y-65757166D02*
X106666667Y-65723833D01*
X106666667Y-65723833D02*
X106600000Y-65657166D01*
X106600000Y-65657166D02*
X106566667Y-65523833D01*
X106566667Y-65523833D02*
X106566667Y-65290500D01*
X106566667Y-65290500D02*
X106600000Y-65157166D01*
X106600000Y-65157166D02*
X106666667Y-65090500D01*
X106666667Y-65090500D02*
X106733334Y-65057166D01*
X117816666Y-67057166D02*
X117816666Y-66357166D01*
X118216666Y-67057166D02*
X117916666Y-66657166D01*
X118216666Y-66357166D02*
X117816666Y-66757166D01*
D12*
%TO.C,JP1*%
X113500000Y-64000000D02*
X113500000Y-63400000D01*
X111700000Y-63700000D02*
X113100000Y-63700000D01*
X113100000Y-63700000D02*
X113500000Y-64000000D01*
X113500000Y-63400000D02*
X113100000Y-63700000D01*
%TO.C,R2*%
X111035000Y-65972936D02*
X111035000Y-66427064D01*
X109565000Y-65972936D02*
X109565000Y-66427064D01*
%TO.C,D1*%
X111450000Y-67750000D02*
X111450000Y-67000000D01*
X112300000Y-67750000D02*
X112400000Y-67550000D01*
X113300000Y-67750000D02*
X111450000Y-67750000D01*
X112400000Y-67550000D02*
X112500000Y-67750000D01*
X112300000Y-65550000D02*
X112500000Y-65550000D01*
X113300000Y-65550000D02*
X111450000Y-65550000D01*
%TO.C,R1*%
X115235000Y-65972936D02*
X115235000Y-66427064D01*
X113765000Y-65972936D02*
X113765000Y-66427064D01*
%TO.C,kibuzzard-6366C103*%
G36*
X122002196Y-61587494D02*
G01*
X122090267Y-61652646D01*
X122150176Y-61752837D01*
X122168854Y-61832779D01*
X122163779Y-61915657D01*
X122134954Y-62001474D01*
X122087898Y-62078594D01*
X122028134Y-62135388D01*
X121955662Y-62171853D01*
X121841445Y-62189533D01*
X121735272Y-62163670D01*
X121647284Y-62098337D01*
X121587626Y-61997607D01*
X121568986Y-61917585D01*
X121573725Y-61835426D01*
X121601843Y-61751129D01*
X121648265Y-61675366D01*
X121707917Y-61618814D01*
X121780799Y-61581469D01*
X121895770Y-61562171D01*
X122002196Y-61587494D01*
G37*
G36*
X118685645Y-61420064D02*
G01*
X118385902Y-61280291D01*
X118332204Y-60928966D01*
X118914648Y-60928966D01*
X118929066Y-61040786D01*
X118935880Y-61056225D01*
X118959102Y-61100333D01*
X119016399Y-61172788D01*
X119086459Y-61232899D01*
X119169281Y-61280668D01*
X119271871Y-61314007D01*
X119374378Y-61318309D01*
X119476802Y-61293572D01*
X119569837Y-61244314D01*
X119644174Y-61175049D01*
X119699815Y-61085778D01*
X119731572Y-60985953D01*
X119734259Y-60885029D01*
X119707878Y-60783005D01*
X119658593Y-60690445D01*
X119592573Y-60617913D01*
X119545706Y-60588177D01*
X120028188Y-60588177D01*
X120049579Y-61579055D01*
X120073961Y-61652606D01*
X120133246Y-61703897D01*
X120147633Y-61710606D01*
X120223592Y-61722380D01*
X120295609Y-61693780D01*
X121068415Y-61073243D01*
X121122199Y-61014245D01*
X121123453Y-60956150D01*
X121080251Y-60882581D01*
X121006769Y-60818538D01*
X120925349Y-60827865D01*
X120885079Y-60861635D01*
X120303469Y-61357633D01*
X120303337Y-61317065D01*
X120303718Y-61223750D01*
X120304340Y-61100333D01*
X120304937Y-60969459D01*
X120305714Y-60838668D01*
X120306877Y-60715503D01*
X120307628Y-60619515D01*
X120307169Y-60570256D01*
X120301209Y-60521059D01*
X120286143Y-60489511D01*
X120250699Y-60465977D01*
X120166635Y-60456555D01*
X120082508Y-60470749D01*
X120038811Y-60509053D01*
X120028188Y-60588177D01*
X119545706Y-60588177D01*
X119509819Y-60565408D01*
X119458121Y-60544804D01*
X119523497Y-60442167D01*
X119775280Y-60559576D01*
X119823047Y-60579222D01*
X119864670Y-60581992D01*
X119908251Y-60558961D01*
X119949615Y-60493734D01*
X119975461Y-60412950D01*
X119964441Y-60360518D01*
X119933407Y-60329407D01*
X119884056Y-60303767D01*
X119748812Y-60240702D01*
X119530791Y-60137285D01*
X119466148Y-60123781D01*
X119414315Y-60137271D01*
X119375339Y-60166390D01*
X119351178Y-60191908D01*
X119315063Y-60247759D01*
X119217645Y-60399389D01*
X119119413Y-60553703D01*
X119080854Y-60617611D01*
X119080243Y-60660241D01*
X119126683Y-60735320D01*
X119204577Y-60804923D01*
X119298421Y-60808397D01*
X119379558Y-60814703D01*
X119443449Y-60878652D01*
X119441702Y-60970672D01*
X119375546Y-61031783D01*
X119267840Y-61014840D01*
X119192007Y-60942694D01*
X119117079Y-60851703D01*
X119011490Y-60860270D01*
X118914648Y-60928966D01*
X118332204Y-60928966D01*
X118216592Y-60172560D01*
X119173993Y-59590223D01*
X119473737Y-59729996D01*
X126014356Y-62779937D01*
X126314098Y-62919709D01*
X126877454Y-63182406D01*
X125920052Y-63764743D01*
X126089362Y-64872474D01*
X125526007Y-64609777D01*
X125226264Y-64470005D01*
X125100372Y-64411300D01*
X124406169Y-64087588D01*
X124132832Y-63960129D01*
X125145010Y-63960129D01*
X125146847Y-64011125D01*
X125179839Y-64052126D01*
X125248866Y-64092854D01*
X125324769Y-64115549D01*
X125378388Y-64102454D01*
X125410506Y-64069261D01*
X125436482Y-64019192D01*
X125447216Y-63996172D01*
X125459414Y-63896763D01*
X125381519Y-63827160D01*
X125364130Y-63821254D01*
X125284742Y-63794293D01*
X125223081Y-63811957D01*
X125169445Y-63889416D01*
X125145010Y-63960129D01*
X124132832Y-63960129D01*
X123770235Y-63791047D01*
X123529269Y-63678683D01*
X124460219Y-63678683D01*
X124484640Y-63727732D01*
X124553992Y-63770581D01*
X124631394Y-63796164D01*
X124684330Y-63784064D01*
X124715777Y-63752310D01*
X124741081Y-63703680D01*
X124779107Y-63622133D01*
X125321231Y-63622133D01*
X125347282Y-63665810D01*
X125417305Y-63707221D01*
X125494036Y-63734243D01*
X125544623Y-63727179D01*
X125573387Y-63701180D01*
X125596343Y-63657585D01*
X125809021Y-63201497D01*
X125827996Y-63155170D01*
X125831149Y-63114601D01*
X125805769Y-63069486D01*
X125736082Y-63027356D01*
X125659016Y-63001053D01*
X125607757Y-63009556D01*
X125578322Y-63036993D01*
X125555030Y-63081308D01*
X125342353Y-63537396D01*
X125323713Y-63583004D01*
X125321231Y-63622133D01*
X124779107Y-63622133D01*
X124869225Y-63428876D01*
X125396700Y-63109071D01*
X125465350Y-63048247D01*
X125469530Y-62993269D01*
X125439130Y-62920414D01*
X125371735Y-62845197D01*
X125318602Y-62837061D01*
X125244622Y-62871752D01*
X124855229Y-63124575D01*
X124798605Y-62663771D01*
X124774317Y-62580629D01*
X124736521Y-62548992D01*
X124626088Y-62549169D01*
X124558397Y-62570371D01*
X124521521Y-62608133D01*
X124519054Y-62699818D01*
X124613125Y-63309454D01*
X124486323Y-63581381D01*
X124464664Y-63633463D01*
X124460219Y-63678683D01*
X123529269Y-63678683D01*
X122882518Y-63377098D01*
X122331061Y-63119949D01*
X123308961Y-63119949D01*
X123327967Y-63178732D01*
X123401445Y-63229636D01*
X123919400Y-63471162D01*
X124000925Y-63491662D01*
X124040144Y-63471414D01*
X124075851Y-63413621D01*
X124097171Y-63349119D01*
X124084162Y-63301890D01*
X124020133Y-63258896D01*
X123628789Y-63076410D01*
X123961559Y-62362783D01*
X123989253Y-62284612D01*
X123968664Y-62226404D01*
X123894658Y-62175693D01*
X123816033Y-62150853D01*
X123764320Y-62162209D01*
X123732873Y-62193962D01*
X123707569Y-62242593D01*
X123334545Y-63042546D01*
X123308961Y-63119949D01*
X122331061Y-63119949D01*
X121478285Y-62722293D01*
X121336282Y-62656076D01*
X122272865Y-62656076D01*
X122296687Y-62702655D01*
X122364096Y-62745912D01*
X122442721Y-62770752D01*
X122494435Y-62759396D01*
X122525546Y-62728362D01*
X122551187Y-62679012D01*
X122771915Y-62205658D01*
X122787669Y-62276841D01*
X122807980Y-62370390D01*
X122832849Y-62486304D01*
X122862273Y-62624584D01*
X122896255Y-62785230D01*
X122934794Y-62968242D01*
X122958015Y-63012351D01*
X123031683Y-63057213D01*
X123110308Y-63082053D01*
X123162021Y-63070697D01*
X123193133Y-63039662D01*
X123218773Y-62990313D01*
X123591126Y-62191798D01*
X123616710Y-62114396D01*
X123612814Y-62075796D01*
X123583457Y-62041087D01*
X123520629Y-62003031D01*
X123448262Y-61979796D01*
X123391491Y-61994486D01*
X123340587Y-62067964D01*
X123113821Y-62554266D01*
X123098383Y-62483863D01*
X123079023Y-62392656D01*
X123055742Y-62280643D01*
X123028537Y-62147826D01*
X122997411Y-61994205D01*
X122962363Y-61819779D01*
X122946715Y-61766940D01*
X122919851Y-61732518D01*
X122855200Y-61692736D01*
X122780676Y-61668496D01*
X122723904Y-61683186D01*
X122673001Y-61756663D01*
X122298635Y-62559493D01*
X122277311Y-62610857D01*
X122272865Y-62656076D01*
X121336282Y-62656076D01*
X119997797Y-62031931D01*
X119631278Y-61861020D01*
X121287201Y-61861020D01*
X121292902Y-61973811D01*
X121321278Y-62087980D01*
X121369696Y-62194854D01*
X121435523Y-62285761D01*
X121518756Y-62360700D01*
X121619399Y-62419673D01*
X121729104Y-62458623D01*
X121839527Y-62473494D01*
X121950669Y-62464287D01*
X122062528Y-62431003D01*
X122167366Y-62377092D01*
X122257441Y-62306006D01*
X122332754Y-62217745D01*
X122393305Y-62112311D01*
X122434512Y-61998350D01*
X122451799Y-61884509D01*
X122445163Y-61770789D01*
X122414605Y-61657191D01*
X122364092Y-61551638D01*
X122297592Y-61462059D01*
X122215104Y-61388453D01*
X122116629Y-61330820D01*
X122014097Y-61295269D01*
X121905050Y-61281204D01*
X121794618Y-61287950D01*
X121687933Y-61314834D01*
X121586372Y-61363595D01*
X121491317Y-61435971D01*
X121408542Y-61528963D01*
X121343827Y-61639573D01*
X121304176Y-61749607D01*
X121287201Y-61861020D01*
X119631278Y-61861020D01*
X119029509Y-61580410D01*
X118685645Y-61420064D01*
G37*
%TD*%
%LPC*%
%TO.C,U1*%
G36*
X117249227Y-66427139D02*
G01*
X117375849Y-66461068D01*
X117489376Y-66526612D01*
X117582070Y-66619306D01*
X117647614Y-66732833D01*
X117681543Y-66859455D01*
X117683682Y-66925000D01*
X117683682Y-67380000D01*
X117681543Y-67445545D01*
X117647614Y-67572167D01*
X117582070Y-67685694D01*
X117489376Y-67778388D01*
X117375849Y-67843932D01*
X117249227Y-67877861D01*
X117183682Y-67880000D01*
X116465682Y-67880000D01*
X116394712Y-67877381D01*
X116259039Y-67835673D01*
X116141611Y-67755940D01*
X116052796Y-67645221D01*
X116000436Y-67513292D01*
X115989155Y-67371801D01*
X116019947Y-67233242D01*
X116090094Y-67109848D01*
X116139953Y-67059275D01*
X116675953Y-66554275D01*
X116720751Y-66514444D01*
X116825704Y-66456596D01*
X116941762Y-66426730D01*
X117001682Y-66425000D01*
X117183682Y-66425000D01*
X117249227Y-66427139D01*
G37*
G36*
X117250335Y-63122139D02*
G01*
X117376957Y-63156068D01*
X117490484Y-63221612D01*
X117583178Y-63314306D01*
X117648722Y-63427833D01*
X117682651Y-63554455D01*
X117684790Y-63620000D01*
X117684790Y-64075000D01*
X117682651Y-64140545D01*
X117648722Y-64267167D01*
X117583178Y-64380694D01*
X117490484Y-64473388D01*
X117376957Y-64538932D01*
X117250335Y-64572861D01*
X117184790Y-64575000D01*
X117002790Y-64575000D01*
X116942870Y-64573271D01*
X116826812Y-64543405D01*
X116721859Y-64485557D01*
X116677061Y-64445725D01*
X116141061Y-63940725D01*
X116091202Y-63890152D01*
X116021055Y-63766758D01*
X115990263Y-63628199D01*
X116001544Y-63486708D01*
X116053904Y-63354779D01*
X116142719Y-63244060D01*
X116260147Y-63164327D01*
X116395820Y-63122619D01*
X116466790Y-63120000D01*
X117184790Y-63120000D01*
X117250335Y-63122139D01*
G37*
%TD*%
D13*
%TO.C,JP1*%
X112400000Y-64350000D03*
D14*
X112400000Y-63050000D03*
%TD*%
D15*
%TO.C,*%
X122000000Y-65500000D03*
%TD*%
D16*
%TO.C,J1*%
X107799999Y-60199999D03*
%TD*%
D17*
%TO.C,R2*%
X110300000Y-65287500D03*
X110300000Y-67112500D03*
%TD*%
D18*
%TO.C,D1*%
X111899999Y-67349999D03*
X112899999Y-67349999D03*
X112899999Y-65949999D03*
X111899999Y-65949999D03*
%TD*%
D16*
%TO.C,J2*%
X112399999Y-60199999D03*
%TD*%
D15*
%TO.C,*%
X102750000Y-65500000D03*
%TD*%
D17*
%TO.C,R1*%
X114500000Y-65287500D03*
X114500000Y-67112500D03*
%TD*%
D16*
%TO.C,J3*%
X116999999Y-60199999D03*
%TD*%
D19*
%TO.C,U1*%
X108067999Y-66769999D03*
D20*
X108067999Y-64229999D03*
D21*
X116731999Y-63846999D03*
D20*
X116731999Y-65499999D03*
D22*
X116731999Y-67152999D03*
%TD*%
M02*
