%TF.GenerationSoftware,KiCad,Pcbnew,(7.0.0-0)*%
%TF.CreationDate,2023-03-02T14:10:56-08:00*%
%TF.ProjectId,Tap_Photosensor_PCB,5461705f-5068-46f7-946f-73656e736f72,rev?*%
%TF.SameCoordinates,Original*%
%TF.FileFunction,Soldermask,Top*%
%TF.FilePolarity,Negative*%
%FSLAX46Y46*%
G04 Gerber Fmt 4.6, Leading zero omitted, Abs format (unit mm)*
G04 Created by KiCad (PCBNEW (7.0.0-0)) date 2023-03-02 14:10:56*
%MOMM*%
%LPD*%
G01*
G04 APERTURE LIST*
G04 Aperture macros list*
%AMRoundRect*
0 Rectangle with rounded corners*
0 $1 Rounding radius*
0 $2 $3 $4 $5 $6 $7 $8 $9 X,Y pos of 4 corners*
0 Add a 4 corners polygon primitive as box body*
4,1,4,$2,$3,$4,$5,$6,$7,$8,$9,$2,$3,0*
0 Add four circle primitives for the rounded corners*
1,1,$1+$1,$2,$3*
1,1,$1+$1,$4,$5*
1,1,$1+$1,$6,$7*
1,1,$1+$1,$8,$9*
0 Add four rect primitives between the rounded corners*
20,1,$1+$1,$2,$3,$4,$5,0*
20,1,$1+$1,$4,$5,$6,$7,0*
20,1,$1+$1,$6,$7,$8,$9,0*
20,1,$1+$1,$8,$9,$2,$3,0*%
%AMHorizOval*
0 Thick line with rounded ends*
0 $1 width*
0 $2 $3 position (X,Y) of the first rounded end (center of the circle)*
0 $4 $5 position (X,Y) of the second rounded end (center of the circle)*
0 Add line between two ends*
20,1,$1,$2,$3,$4,$5,0*
0 Add two circle primitives to create the rounded ends*
1,1,$1,$2,$3*
1,1,$1,$4,$5*%
%AMFreePoly0*
4,1,19,0.500000,-0.750000,0.000000,-0.750000,0.000000,-0.744911,-0.071157,-0.744911,-0.207708,-0.704816,-0.327430,-0.627875,-0.420627,-0.520320,-0.479746,-0.390866,-0.500000,-0.250000,-0.500000,0.250000,-0.479746,0.390866,-0.420627,0.520320,-0.327430,0.627875,-0.207708,0.704816,-0.071157,0.744911,0.000000,0.744911,0.000000,0.750000,0.500000,0.750000,0.500000,-0.750000,0.500000,-0.750000,
$1*%
%AMFreePoly1*
4,1,19,0.000000,0.744911,0.071157,0.744911,0.207708,0.704816,0.327430,0.627875,0.420627,0.520320,0.479746,0.390866,0.500000,0.250000,0.500000,-0.250000,0.479746,-0.390866,0.420627,-0.520320,0.327430,-0.627875,0.207708,-0.704816,0.071157,-0.744911,0.000000,-0.744911,0.000000,-0.750000,-0.500000,-0.750000,-0.500000,0.750000,0.000000,0.750000,0.000000,0.744911,0.000000,0.744911,
$1*%
G04 Aperture macros list end*
%ADD10FreePoly0,90.000000*%
%ADD11FreePoly1,90.000000*%
%ADD12C,3.200000*%
%ADD13R,1.700000X1.700000*%
%ADD14RoundRect,0.250000X-0.450000X0.262500X-0.450000X-0.262500X0.450000X-0.262500X0.450000X0.262500X0*%
%ADD15R,0.700000X0.600000*%
%ADD16R,1.782000X0.958000*%
%ADD17O,1.782000X0.958000*%
%ADD18HorizOval,0.955000X0.279101X-0.263011X-0.279101X0.263011X0*%
%ADD19HorizOval,0.955000X0.279101X0.263011X-0.279101X-0.263011X0*%
G04 APERTURE END LIST*
%TO.C,U1*%
G36*
X117249227Y-66427139D02*
G01*
X117375849Y-66461068D01*
X117489376Y-66526612D01*
X117582070Y-66619306D01*
X117647614Y-66732833D01*
X117681543Y-66859455D01*
X117683682Y-66925000D01*
X117683682Y-67380000D01*
X117681543Y-67445545D01*
X117647614Y-67572167D01*
X117582070Y-67685694D01*
X117489376Y-67778388D01*
X117375849Y-67843932D01*
X117249227Y-67877861D01*
X117183682Y-67880000D01*
X116465682Y-67880000D01*
X116394712Y-67877381D01*
X116259039Y-67835673D01*
X116141611Y-67755940D01*
X116052796Y-67645221D01*
X116000436Y-67513292D01*
X115989155Y-67371801D01*
X116019947Y-67233242D01*
X116090094Y-67109848D01*
X116139953Y-67059275D01*
X116675953Y-66554275D01*
X116720751Y-66514444D01*
X116825704Y-66456596D01*
X116941762Y-66426730D01*
X117001682Y-66425000D01*
X117183682Y-66425000D01*
X117249227Y-66427139D01*
G37*
G36*
X117250335Y-63122139D02*
G01*
X117376957Y-63156068D01*
X117490484Y-63221612D01*
X117583178Y-63314306D01*
X117648722Y-63427833D01*
X117682651Y-63554455D01*
X117684790Y-63620000D01*
X117684790Y-64075000D01*
X117682651Y-64140545D01*
X117648722Y-64267167D01*
X117583178Y-64380694D01*
X117490484Y-64473388D01*
X117376957Y-64538932D01*
X117250335Y-64572861D01*
X117184790Y-64575000D01*
X117002790Y-64575000D01*
X116942870Y-64573271D01*
X116826812Y-64543405D01*
X116721859Y-64485557D01*
X116677061Y-64445725D01*
X116141061Y-63940725D01*
X116091202Y-63890152D01*
X116021055Y-63766758D01*
X115990263Y-63628199D01*
X116001544Y-63486708D01*
X116053904Y-63354779D01*
X116142719Y-63244060D01*
X116260147Y-63164327D01*
X116395820Y-63122619D01*
X116466790Y-63120000D01*
X117184790Y-63120000D01*
X117250335Y-63122139D01*
G37*
%TD*%
D10*
%TO.C,JP1*%
X112400000Y-64350000D03*
D11*
X112400000Y-63050000D03*
%TD*%
D12*
%TO.C,*%
X122000000Y-65500000D03*
%TD*%
D13*
%TO.C,J1*%
X107799999Y-60199999D03*
%TD*%
D14*
%TO.C,R2*%
X110300000Y-65287500D03*
X110300000Y-67112500D03*
%TD*%
D15*
%TO.C,D1*%
X111899999Y-67349999D03*
X112899999Y-67349999D03*
X112899999Y-65949999D03*
X111899999Y-65949999D03*
%TD*%
D13*
%TO.C,J2*%
X112399999Y-60199999D03*
%TD*%
D12*
%TO.C,*%
X102750000Y-65500000D03*
%TD*%
D14*
%TO.C,R1*%
X114500000Y-65287500D03*
X114500000Y-67112500D03*
%TD*%
D13*
%TO.C,J3*%
X116999999Y-60199999D03*
%TD*%
D16*
%TO.C,U1*%
X108067999Y-66769999D03*
D17*
X108067999Y-64229999D03*
D18*
X116731999Y-63846999D03*
D17*
X116731999Y-65499999D03*
D19*
X116731999Y-67152999D03*
%TD*%
M02*
