%TF.GenerationSoftware,KiCad,Pcbnew,(6.0.0-0)*%
%TF.CreationDate,2022-11-27T15:36:48-08:00*%
%TF.ProjectId,Tap_Photosensor_PCB,5461705f-5068-46f7-946f-73656e736f72,rev?*%
%TF.SameCoordinates,Original*%
%TF.FileFunction,Legend,Bot*%
%TF.FilePolarity,Positive*%
%FSLAX46Y46*%
G04 Gerber Fmt 4.6, Leading zero omitted, Abs format (unit mm)*
G04 Created by KiCad (PCBNEW (6.0.0-0)) date 2022-11-27 15:36:48*
%MOMM*%
%LPD*%
G01*
G04 APERTURE LIST*
%ADD10C,0.100000*%
%ADD11C,0.200000*%
%ADD12C,0.150000*%
%ADD13C,0.127000*%
%ADD14R,1.310000X1.310000*%
%ADD15C,1.310000*%
%ADD16C,3.200000*%
%ADD17R,1.700000X1.700000*%
G04 APERTURE END LIST*
D10*
X104846407Y-62085966D02*
X104621011Y-61602601D01*
X104685410Y-61740705D02*
X104618684Y-61687753D01*
X104568058Y-61669327D01*
X104482907Y-61667000D01*
X104413855Y-61699200D01*
X104105261Y-62389534D02*
X104190413Y-62391861D01*
X104328517Y-62327462D01*
X104381469Y-62260736D01*
X104383796Y-62175584D01*
X104254998Y-61899376D01*
X104188272Y-61846424D01*
X104103120Y-61844098D01*
X103965016Y-61908496D01*
X103912064Y-61975222D01*
X103909738Y-62060374D01*
X103941937Y-62129426D01*
X104319397Y-62037480D01*
X103619756Y-62069494D02*
X103672523Y-62633357D01*
X103274496Y-62230491D01*
X102291482Y-63277347D02*
X102705794Y-63084150D01*
X102498638Y-63180748D02*
X102160544Y-62455702D01*
X102277895Y-62527080D01*
X102379146Y-62563933D01*
X102464298Y-62566259D01*
X101948549Y-63353192D02*
X101930122Y-63403818D01*
X101980748Y-63422244D01*
X101999174Y-63371618D01*
X101948549Y-63353192D01*
X101980748Y-63422244D01*
X101159289Y-62922594D02*
X101090237Y-62954794D01*
X101037285Y-63021519D01*
X101018859Y-63072145D01*
X101016532Y-63157297D01*
X101046405Y-63311501D01*
X101126904Y-63484131D01*
X101225829Y-63606135D01*
X101292554Y-63659087D01*
X101343180Y-63677514D01*
X101428332Y-63679840D01*
X101497384Y-63647641D01*
X101550336Y-63580915D01*
X101568762Y-63530289D01*
X101571089Y-63445138D01*
X101541216Y-63290934D01*
X101460717Y-63118304D01*
X101361792Y-62996299D01*
X101295067Y-62943347D01*
X101244441Y-62924921D01*
X101159289Y-62922594D01*
X112603571Y-62073809D02*
X112489285Y-62111904D01*
X112298809Y-62111904D01*
X112222619Y-62073809D01*
X112184523Y-62035714D01*
X112146428Y-61959523D01*
X112146428Y-61883333D01*
X112184523Y-61807142D01*
X112222619Y-61769047D01*
X112298809Y-61730952D01*
X112451190Y-61692857D01*
X112527380Y-61654761D01*
X112565476Y-61616666D01*
X112603571Y-61540476D01*
X112603571Y-61464285D01*
X112565476Y-61388095D01*
X112527380Y-61350000D01*
X112451190Y-61311904D01*
X112260714Y-61311904D01*
X112146428Y-61350000D01*
D11*
X105213358Y-59326713D02*
X105006202Y-59423311D01*
X104926773Y-59523399D01*
X104871494Y-59675277D01*
X104916304Y-59906582D01*
X105085351Y-60269105D01*
X105233739Y-60452112D01*
X105385616Y-60507391D01*
X105513344Y-60510881D01*
X105720500Y-60414282D01*
X105799928Y-60314194D01*
X105855207Y-60162317D01*
X105810397Y-59931011D01*
X105641350Y-59568488D01*
X105492963Y-59385481D01*
X105341085Y-59330203D01*
X105213358Y-59326713D01*
X104450203Y-60123929D02*
X104957345Y-61211498D01*
X104474352Y-60175718D02*
X104346625Y-60172228D01*
X104139469Y-60268827D01*
X104060040Y-60368915D01*
X104032401Y-60444853D01*
X104028911Y-60572581D01*
X104173809Y-60883315D01*
X104273897Y-60962744D01*
X104349836Y-60990383D01*
X104477563Y-60993873D01*
X104684719Y-60897274D01*
X104764148Y-60797186D01*
X103621579Y-60510323D02*
X103207266Y-60703520D01*
X103297164Y-60220248D02*
X103731857Y-61152451D01*
X103728367Y-61280178D01*
X103648939Y-61380267D01*
X103545361Y-61428566D01*
X103027471Y-61670062D02*
X103106899Y-61569974D01*
X103134539Y-61494035D01*
X103138028Y-61366308D01*
X102993131Y-61055573D01*
X102893042Y-60976145D01*
X102817104Y-60948506D01*
X102689376Y-60945016D01*
X102534009Y-61017465D01*
X102454581Y-61117553D01*
X102426941Y-61193492D01*
X102423452Y-61321219D01*
X102568349Y-61631953D01*
X102668438Y-61711382D01*
X102744376Y-61739021D01*
X102872104Y-61742511D01*
X103027471Y-61670062D01*
X101847072Y-60896438D02*
X101225604Y-61186233D01*
X102043480Y-62128905D02*
X101536338Y-61041335D01*
X100904121Y-62660196D02*
X100638475Y-62090517D01*
X100641965Y-61962789D01*
X100721394Y-61862701D01*
X100928550Y-61766103D01*
X101056277Y-61769593D01*
X100879972Y-62608407D02*
X101007699Y-62611897D01*
X101266644Y-62491149D01*
X101346073Y-62391061D01*
X101349562Y-62263333D01*
X101301263Y-62159755D01*
X101201175Y-62080327D01*
X101073447Y-62076837D01*
X100814502Y-62197585D01*
X100686775Y-62194095D01*
X100048136Y-62176646D02*
X100555278Y-63264216D01*
X100072286Y-62228435D02*
X99944558Y-62224945D01*
X99737402Y-62321544D01*
X99657974Y-62421632D01*
X99630334Y-62497571D01*
X99626845Y-62625298D01*
X99771742Y-62936032D01*
X99871831Y-63015461D01*
X99947769Y-63043100D01*
X100075497Y-63046590D01*
X100282653Y-62949992D01*
X100362081Y-62849903D01*
D12*
X115067857Y-62722380D02*
X114896428Y-62722380D01*
X114810714Y-62770000D01*
X114725000Y-62865238D01*
X114682142Y-63055714D01*
X114682142Y-63389047D01*
X114725000Y-63579523D01*
X114810714Y-63674761D01*
X114896428Y-63722380D01*
X115067857Y-63722380D01*
X115153571Y-63674761D01*
X115239285Y-63579523D01*
X115282142Y-63389047D01*
X115282142Y-63055714D01*
X115239285Y-62865238D01*
X115153571Y-62770000D01*
X115067857Y-62722380D01*
X114296428Y-63722380D02*
X114296428Y-62722380D01*
X113953571Y-62722380D01*
X113867857Y-62770000D01*
X113825000Y-62817619D01*
X113782142Y-62912857D01*
X113782142Y-63055714D01*
X113825000Y-63150952D01*
X113867857Y-63198571D01*
X113953571Y-63246190D01*
X114296428Y-63246190D01*
X113096428Y-63198571D02*
X112967857Y-63246190D01*
X112925000Y-63293809D01*
X112882142Y-63389047D01*
X112882142Y-63531904D01*
X112925000Y-63627142D01*
X112967857Y-63674761D01*
X113053571Y-63722380D01*
X113396428Y-63722380D01*
X113396428Y-62722380D01*
X113096428Y-62722380D01*
X113010714Y-62770000D01*
X112967857Y-62817619D01*
X112925000Y-62912857D01*
X112925000Y-63008095D01*
X112967857Y-63103333D01*
X113010714Y-63150952D01*
X113096428Y-63198571D01*
X113396428Y-63198571D01*
X112110714Y-62722380D02*
X112282142Y-62722380D01*
X112367857Y-62770000D01*
X112410714Y-62817619D01*
X112496428Y-62960476D01*
X112539285Y-63150952D01*
X112539285Y-63531904D01*
X112496428Y-63627142D01*
X112453571Y-63674761D01*
X112367857Y-63722380D01*
X112196428Y-63722380D01*
X112110714Y-63674761D01*
X112067857Y-63627142D01*
X112025000Y-63531904D01*
X112025000Y-63293809D01*
X112067857Y-63198571D01*
X112110714Y-63150952D01*
X112196428Y-63103333D01*
X112367857Y-63103333D01*
X112453571Y-63150952D01*
X112496428Y-63198571D01*
X112539285Y-63293809D01*
X111253571Y-62722380D02*
X111425000Y-62722380D01*
X111510714Y-62770000D01*
X111553571Y-62817619D01*
X111639285Y-62960476D01*
X111682142Y-63150952D01*
X111682142Y-63531904D01*
X111639285Y-63627142D01*
X111596428Y-63674761D01*
X111510714Y-63722380D01*
X111339285Y-63722380D01*
X111253571Y-63674761D01*
X111210714Y-63627142D01*
X111167857Y-63531904D01*
X111167857Y-63293809D01*
X111210714Y-63198571D01*
X111253571Y-63150952D01*
X111339285Y-63103333D01*
X111510714Y-63103333D01*
X111596428Y-63150952D01*
X111639285Y-63198571D01*
X111682142Y-63293809D01*
X110396428Y-62722380D02*
X110567857Y-62722380D01*
X110653571Y-62770000D01*
X110696428Y-62817619D01*
X110782142Y-62960476D01*
X110825000Y-63150952D01*
X110825000Y-63531904D01*
X110782142Y-63627142D01*
X110739285Y-63674761D01*
X110653571Y-63722380D01*
X110482142Y-63722380D01*
X110396428Y-63674761D01*
X110353571Y-63627142D01*
X110310714Y-63531904D01*
X110310714Y-63293809D01*
X110353571Y-63198571D01*
X110396428Y-63150952D01*
X110482142Y-63103333D01*
X110653571Y-63103333D01*
X110739285Y-63150952D01*
X110782142Y-63198571D01*
X110825000Y-63293809D01*
X109925000Y-63722380D02*
X109925000Y-62722380D01*
X109410714Y-63722380D01*
X109410714Y-62722380D01*
X114596428Y-64332380D02*
X114425000Y-64332380D01*
X114339285Y-64380000D01*
X114253571Y-64475238D01*
X114210714Y-64665714D01*
X114210714Y-64999047D01*
X114253571Y-65189523D01*
X114339285Y-65284761D01*
X114425000Y-65332380D01*
X114596428Y-65332380D01*
X114682142Y-65284761D01*
X114767857Y-65189523D01*
X114810714Y-64999047D01*
X114810714Y-64665714D01*
X114767857Y-64475238D01*
X114682142Y-64380000D01*
X114596428Y-64332380D01*
X113825000Y-65332380D02*
X113825000Y-64332380D01*
X113482142Y-64332380D01*
X113396428Y-64380000D01*
X113353571Y-64427619D01*
X113310714Y-64522857D01*
X113310714Y-64665714D01*
X113353571Y-64760952D01*
X113396428Y-64808571D01*
X113482142Y-64856190D01*
X113825000Y-64856190D01*
X112625000Y-64808571D02*
X112496428Y-64856190D01*
X112453571Y-64903809D01*
X112410714Y-64999047D01*
X112410714Y-65141904D01*
X112453571Y-65237142D01*
X112496428Y-65284761D01*
X112582142Y-65332380D01*
X112925000Y-65332380D01*
X112925000Y-64332380D01*
X112625000Y-64332380D01*
X112539285Y-64380000D01*
X112496428Y-64427619D01*
X112453571Y-64522857D01*
X112453571Y-64618095D01*
X112496428Y-64713333D01*
X112539285Y-64760952D01*
X112625000Y-64808571D01*
X112925000Y-64808571D01*
X111982142Y-65332380D02*
X111810714Y-65332380D01*
X111725000Y-65284761D01*
X111682142Y-65237142D01*
X111596428Y-65094285D01*
X111553571Y-64903809D01*
X111553571Y-64522857D01*
X111596428Y-64427619D01*
X111639285Y-64380000D01*
X111725000Y-64332380D01*
X111896428Y-64332380D01*
X111982142Y-64380000D01*
X112025000Y-64427619D01*
X112067857Y-64522857D01*
X112067857Y-64760952D01*
X112025000Y-64856190D01*
X111982142Y-64903809D01*
X111896428Y-64951428D01*
X111725000Y-64951428D01*
X111639285Y-64903809D01*
X111596428Y-64856190D01*
X111553571Y-64760952D01*
X111253571Y-64332380D02*
X110653571Y-64332380D01*
X111039285Y-65332380D01*
X109839285Y-65332380D02*
X110353571Y-65332380D01*
X110096428Y-65332380D02*
X110096428Y-64332380D01*
X110182142Y-64475238D01*
X110267857Y-64570476D01*
X110353571Y-64618095D01*
D10*
X117177380Y-61311904D02*
X117558333Y-61311904D01*
X117596428Y-61692857D01*
X117558333Y-61654761D01*
X117482142Y-61616666D01*
X117291666Y-61616666D01*
X117215476Y-61654761D01*
X117177380Y-61692857D01*
X117139285Y-61769047D01*
X117139285Y-61959523D01*
X117177380Y-62035714D01*
X117215476Y-62073809D01*
X117291666Y-62111904D01*
X117482142Y-62111904D01*
X117558333Y-62073809D01*
X117596428Y-62035714D01*
X116910714Y-61311904D02*
X116644047Y-62111904D01*
X116377380Y-61311904D01*
X107640476Y-61350000D02*
X107716666Y-61311904D01*
X107830952Y-61311904D01*
X107945238Y-61350000D01*
X108021428Y-61426190D01*
X108059523Y-61502380D01*
X108097619Y-61654761D01*
X108097619Y-61769047D01*
X108059523Y-61921428D01*
X108021428Y-61997619D01*
X107945238Y-62073809D01*
X107830952Y-62111904D01*
X107754761Y-62111904D01*
X107640476Y-62073809D01*
X107602380Y-62035714D01*
X107602380Y-61769047D01*
X107754761Y-61769047D01*
D12*
%TO.C,U1*%
X113366666Y-66683333D02*
X113366666Y-67816666D01*
X113300000Y-67950000D01*
X113233333Y-68016666D01*
X113100000Y-68083333D01*
X112833333Y-68083333D01*
X112700000Y-68016666D01*
X112633333Y-67950000D01*
X112566666Y-67816666D01*
X112566666Y-66683333D01*
X111166666Y-68083333D02*
X111966666Y-68083333D01*
X111566666Y-68083333D02*
X111566666Y-66683333D01*
X111700000Y-66883333D01*
X111833333Y-67016666D01*
X111966666Y-67083333D01*
D13*
X106240000Y-62325000D02*
X106240000Y-68675000D01*
X106240000Y-68675000D02*
X118560000Y-68675000D01*
X118560000Y-68675000D02*
X118560000Y-62325000D01*
X118560000Y-62325000D02*
X106240000Y-62325000D01*
D11*
X105890000Y-66770000D02*
G75*
G03*
X105890000Y-66770000I-100000J0D01*
G01*
%TO.C,kibuzzard-6366BF75*%
G36*
X122919144Y-62030653D02*
G01*
X123006952Y-62095902D01*
X123066070Y-62196380D01*
X123084310Y-62276215D01*
X123079332Y-62358263D01*
X123051134Y-62442523D01*
X123004632Y-62518249D01*
X122944741Y-62574690D01*
X122871459Y-62611848D01*
X122755948Y-62630894D01*
X122649343Y-62605487D01*
X122561284Y-62540778D01*
X122501410Y-62441918D01*
X122482760Y-62362963D01*
X122487851Y-62280675D01*
X122516681Y-62195056D01*
X122563892Y-62117812D01*
X122624119Y-62060652D01*
X122697363Y-62023574D01*
X122812623Y-62005066D01*
X122919144Y-62030653D01*
G37*
G36*
X122386601Y-63161427D02*
G01*
X120982367Y-62506622D01*
X120100841Y-62095560D01*
X121037423Y-62095560D01*
X121061965Y-62142474D01*
X121131532Y-62186737D01*
X121213251Y-62214334D01*
X121261967Y-62203769D01*
X121426934Y-62115654D01*
X121571839Y-62038424D01*
X121696681Y-61972080D01*
X121801462Y-61916622D01*
X121886181Y-61872050D01*
X121950836Y-61838362D01*
X121730108Y-62311716D01*
X121708785Y-62363079D01*
X121705010Y-62406860D01*
X121729551Y-62453774D01*
X121799118Y-62498038D01*
X121875585Y-62521871D01*
X121926579Y-62510180D01*
X121958361Y-62477707D01*
X121984001Y-62428356D01*
X122045265Y-62296974D01*
X122204663Y-62296974D01*
X122208108Y-62411669D01*
X122234197Y-62526632D01*
X122280601Y-62633717D01*
X122344989Y-62724774D01*
X122427360Y-62799804D01*
X122527715Y-62858807D01*
X122637582Y-62897996D01*
X122748491Y-62913587D01*
X122860442Y-62905579D01*
X122973435Y-62873973D01*
X123079133Y-62822323D01*
X123169200Y-62754190D01*
X123243637Y-62669571D01*
X123302440Y-62568468D01*
X123345574Y-62447795D01*
X123350313Y-62415416D01*
X123913306Y-62415416D01*
X123934697Y-63406294D01*
X123959079Y-63479846D01*
X124016924Y-63530465D01*
X124031311Y-63537175D01*
X124108711Y-63549620D01*
X124180726Y-63521019D01*
X124953532Y-62900482D01*
X125007317Y-62841485D01*
X125008571Y-62783390D01*
X124965368Y-62709820D01*
X124904116Y-62651480D01*
X124863305Y-62639456D01*
X124829454Y-62648193D01*
X124787935Y-62675251D01*
X124749906Y-62706563D01*
X124676857Y-62768838D01*
X124583255Y-62848898D01*
X124483563Y-62933564D01*
X124383691Y-63018145D01*
X124289549Y-63097953D01*
X124218309Y-63158226D01*
X124187148Y-63184201D01*
X124193253Y-62419840D01*
X124193237Y-62367286D01*
X124148046Y-62298919D01*
X124051753Y-62283795D01*
X123967626Y-62297989D01*
X123923928Y-62336292D01*
X123913306Y-62415416D01*
X123350313Y-62415416D01*
X123363603Y-62324612D01*
X123357946Y-62205273D01*
X123330017Y-62096130D01*
X123282036Y-61997123D01*
X123216220Y-61908192D01*
X123135350Y-61833697D01*
X123042211Y-61778005D01*
X122934763Y-61739615D01*
X122825355Y-61723738D01*
X122713988Y-61730377D01*
X122600661Y-61759529D01*
X122493998Y-61809140D01*
X122402617Y-61877155D01*
X122326522Y-61963572D01*
X122265711Y-62068392D01*
X122223864Y-62182549D01*
X122204663Y-62296974D01*
X122045265Y-62296974D01*
X122358367Y-61625526D01*
X122381934Y-61539301D01*
X122356696Y-61486370D01*
X122290222Y-61444862D01*
X122218191Y-61420908D01*
X122174555Y-61422456D01*
X122124019Y-61444432D01*
X121967873Y-61529702D01*
X121830185Y-61604604D01*
X121710954Y-61669137D01*
X121610183Y-61723304D01*
X121527869Y-61767100D01*
X121464014Y-61800528D01*
X121690781Y-61314226D01*
X121714348Y-61228001D01*
X121689109Y-61175069D01*
X121624794Y-61134568D01*
X121555256Y-61110900D01*
X121509797Y-61110722D01*
X121477723Y-61132550D01*
X121434875Y-61201901D01*
X121062522Y-62000415D01*
X121041199Y-62051778D01*
X121037423Y-62095560D01*
X120100841Y-62095560D01*
X120094650Y-62092673D01*
X119458716Y-61796132D01*
X119210646Y-61680455D01*
X120166009Y-61680455D01*
X120175708Y-61723513D01*
X120243815Y-61772788D01*
X120761769Y-62014314D01*
X120847995Y-62037881D01*
X120905243Y-62014656D01*
X120948092Y-61945304D01*
X121321116Y-61145351D01*
X121342104Y-61094707D01*
X121346215Y-61050207D01*
X121321673Y-61003293D01*
X121252106Y-60959029D01*
X121165689Y-60934935D01*
X121107865Y-60956578D01*
X121065784Y-61028040D01*
X120733014Y-61741667D01*
X120341670Y-61559180D01*
X120267578Y-61537767D01*
X120223037Y-61558160D01*
X120187329Y-61615953D01*
X120166009Y-61680455D01*
X119210646Y-61680455D01*
X118764513Y-61472420D01*
X118638621Y-61413715D01*
X118583361Y-61387947D01*
X119512430Y-61387947D01*
X119537188Y-61436276D01*
X119606539Y-61479125D01*
X119683942Y-61504709D01*
X119737213Y-61491889D01*
X119768996Y-61459417D01*
X119794971Y-61409347D01*
X119921773Y-61137420D01*
X120449248Y-60817616D01*
X120517898Y-60756791D01*
X120523121Y-60704270D01*
X120495853Y-60638788D01*
X120425003Y-60554077D01*
X120376473Y-60545460D01*
X120297170Y-60580297D01*
X119907776Y-60833119D01*
X119851153Y-60372316D01*
X119830174Y-60293345D01*
X119789789Y-60257872D01*
X119688848Y-60254593D01*
X119613498Y-60278135D01*
X119574069Y-60316677D01*
X119571602Y-60408363D01*
X119665673Y-61017999D01*
X119537529Y-61292803D01*
X119516541Y-61343446D01*
X119512430Y-61387947D01*
X118583361Y-61387947D01*
X118338879Y-61273943D01*
X118306320Y-61060925D01*
X118822398Y-61060925D01*
X118846832Y-61110417D01*
X118913008Y-61153973D01*
X118988576Y-61180673D01*
X119041191Y-61179590D01*
X119081438Y-61148218D01*
X119119900Y-61084046D01*
X119144761Y-60993169D01*
X119118657Y-60934579D01*
X119046975Y-60891095D01*
X119031273Y-60881570D01*
X118927884Y-60866640D01*
X118859573Y-60939882D01*
X118848838Y-60962903D01*
X118827180Y-61014985D01*
X118822398Y-61060925D01*
X118306320Y-61060925D01*
X118249987Y-60692359D01*
X119003022Y-60692359D01*
X119030127Y-60735652D01*
X119100149Y-60777062D01*
X119176881Y-60804084D01*
X119227085Y-60795966D01*
X119255464Y-60768913D01*
X119278421Y-60725317D01*
X119491098Y-60269229D01*
X119510073Y-60222901D01*
X119512171Y-60182717D01*
X119485736Y-60137985D01*
X119416050Y-60095856D01*
X119338982Y-60069552D01*
X119288108Y-60079111D01*
X119259057Y-60107603D01*
X119235766Y-60151917D01*
X119023088Y-60608006D01*
X119004448Y-60653613D01*
X119003022Y-60692359D01*
X118249987Y-60692359D01*
X118169569Y-60166212D01*
X119126970Y-59583875D01*
X119426713Y-59723647D01*
X125967332Y-62773588D01*
X126267075Y-62913361D01*
X126830431Y-63176058D01*
X125873029Y-63758395D01*
X126042339Y-64866126D01*
X125478984Y-64603429D01*
X125179240Y-64463656D01*
X124835376Y-64303310D01*
X123867088Y-63851790D01*
X123484435Y-63673356D01*
X124745525Y-63673356D01*
X124767593Y-63776287D01*
X124814480Y-63870649D01*
X124883665Y-63946409D01*
X124975148Y-64003568D01*
X125064978Y-64036308D01*
X125156060Y-64051338D01*
X125248394Y-64048658D01*
X125297109Y-64038094D01*
X125313316Y-64033389D01*
X125408243Y-63972558D01*
X125398618Y-63854216D01*
X125337310Y-63767823D01*
X125219443Y-63768913D01*
X125115432Y-63757196D01*
X125033221Y-63685579D01*
X125037511Y-63595620D01*
X125106879Y-63535132D01*
X125196935Y-63542969D01*
X125253920Y-63601071D01*
X125316902Y-63670726D01*
X125420291Y-63685657D01*
X125507656Y-63672972D01*
X125539919Y-63645102D01*
X125564091Y-63574485D01*
X125619160Y-63400043D01*
X125672696Y-63227951D01*
X125692266Y-63164385D01*
X125696283Y-63129474D01*
X125693537Y-63080899D01*
X125670553Y-63032522D01*
X125618656Y-62991682D01*
X125399293Y-62891144D01*
X125264049Y-62828078D01*
X125212686Y-62806754D01*
X125168905Y-62802979D01*
X125121656Y-62828239D01*
X125076386Y-62899966D01*
X125053007Y-62973579D01*
X125063378Y-63021768D01*
X125092255Y-63051874D01*
X125138008Y-63075836D01*
X125389792Y-63193244D01*
X125353190Y-63309300D01*
X125304176Y-63282941D01*
X125210762Y-63253297D01*
X125112762Y-63249345D01*
X125010177Y-63271087D01*
X124915064Y-63316457D01*
X124839479Y-63383388D01*
X124783422Y-63471882D01*
X124750802Y-63571888D01*
X124745525Y-63673356D01*
X123484435Y-63673356D01*
X122386601Y-63161427D01*
G37*
%TD*%
%LPC*%
D14*
%TO.C,U1*%
X108335000Y-66770000D03*
D15*
X108335000Y-64230000D03*
X116465000Y-63595000D03*
X116465000Y-65500000D03*
X116465000Y-67405000D03*
%TD*%
D16*
%TO.C,*%
X122000000Y-65500000D03*
%TD*%
D17*
%TO.C,J1*%
X107800000Y-60200000D03*
%TD*%
%TO.C,J2*%
X112400000Y-60200000D03*
%TD*%
D16*
%TO.C,*%
X102750000Y-65500000D03*
%TD*%
D17*
%TO.C,J3*%
X117000000Y-60200000D03*
%TD*%
M02*
