%TF.GenerationSoftware,KiCad,Pcbnew,(7.0.0-0)*%
%TF.CreationDate,2023-03-02T14:10:56-08:00*%
%TF.ProjectId,Tap_Photosensor_PCB,5461705f-5068-46f7-946f-73656e736f72,rev?*%
%TF.SameCoordinates,Original*%
%TF.FileFunction,Legend,Bot*%
%TF.FilePolarity,Positive*%
%FSLAX46Y46*%
G04 Gerber Fmt 4.6, Leading zero omitted, Abs format (unit mm)*
G04 Created by KiCad (PCBNEW (7.0.0-0)) date 2023-03-02 14:10:56*
%MOMM*%
%LPD*%
G01*
G04 APERTURE LIST*
G04 Aperture macros list*
%AMHorizOval*
0 Thick line with rounded ends*
0 $1 width*
0 $2 $3 position (X,Y) of the first rounded end (center of the circle)*
0 $4 $5 position (X,Y) of the second rounded end (center of the circle)*
0 Add line between two ends*
20,1,$1,$2,$3,$4,$5,0*
0 Add two circle primitives to create the rounded ends*
1,1,$1,$2,$3*
1,1,$1,$4,$5*%
G04 Aperture macros list end*
%ADD10C,0.100000*%
%ADD11C,0.200000*%
%ADD12C,0.150000*%
%ADD13C,0.120000*%
%ADD14C,0.127000*%
%ADD15C,3.200000*%
%ADD16R,1.700000X1.700000*%
%ADD17R,1.782000X0.958000*%
%ADD18O,1.782000X0.958000*%
%ADD19HorizOval,0.955000X0.279101X-0.263011X-0.279101X0.263011X0*%
%ADD20HorizOval,0.955000X0.279101X0.263011X-0.279101X-0.263011X0*%
G04 APERTURE END LIST*
D10*
X104876579Y-61996866D02*
X104651183Y-61513502D01*
X104715582Y-61651606D02*
X104648856Y-61598654D01*
X104648856Y-61598654D02*
X104598230Y-61580228D01*
X104598230Y-61580228D02*
X104513079Y-61577901D01*
X104513079Y-61577901D02*
X104444026Y-61610101D01*
X104135433Y-62300435D02*
X104220585Y-62302761D01*
X104220585Y-62302761D02*
X104358689Y-62238363D01*
X104358689Y-62238363D02*
X104411641Y-62171637D01*
X104411641Y-62171637D02*
X104413968Y-62086485D01*
X104413968Y-62086485D02*
X104285170Y-61810277D01*
X104285170Y-61810277D02*
X104218444Y-61757325D01*
X104218444Y-61757325D02*
X104133292Y-61754998D01*
X104133292Y-61754998D02*
X103995188Y-61819397D01*
X103995188Y-61819397D02*
X103942236Y-61886123D01*
X103942236Y-61886123D02*
X103939910Y-61971275D01*
X103939910Y-61971275D02*
X103972109Y-62040327D01*
X103972109Y-62040327D02*
X104349569Y-61948381D01*
X103649929Y-61980395D02*
X103702695Y-62544258D01*
X103702695Y-62544258D02*
X103304668Y-62141392D01*
X102439043Y-63133508D02*
X102853355Y-62940311D01*
X102646199Y-63036910D02*
X102308104Y-62311863D01*
X102308104Y-62311863D02*
X102425455Y-62383242D01*
X102425455Y-62383242D02*
X102526707Y-62420095D01*
X102526707Y-62420095D02*
X102611859Y-62422421D01*
X102096109Y-63209354D02*
X102077683Y-63259980D01*
X102077683Y-63259980D02*
X102128308Y-63278406D01*
X102128308Y-63278406D02*
X102146735Y-63227780D01*
X102146735Y-63227780D02*
X102096109Y-63209354D01*
X102096109Y-63209354D02*
X102128308Y-63278406D01*
X101514006Y-62682158D02*
X101065168Y-62891454D01*
X101065168Y-62891454D02*
X101435648Y-63054964D01*
X101435648Y-63054964D02*
X101332070Y-63103263D01*
X101332070Y-63103263D02*
X101279118Y-63169989D01*
X101279118Y-63169989D02*
X101260691Y-63220615D01*
X101260691Y-63220615D02*
X101258365Y-63305766D01*
X101258365Y-63305766D02*
X101338864Y-63478396D01*
X101338864Y-63478396D02*
X101405589Y-63531349D01*
X101405589Y-63531349D02*
X101456215Y-63549775D01*
X101456215Y-63549775D02*
X101541367Y-63552101D01*
X101541367Y-63552101D02*
X101748523Y-63455503D01*
X101748523Y-63455503D02*
X101801475Y-63388777D01*
X101801475Y-63388777D02*
X101819901Y-63338152D01*
X112603571Y-62005809D02*
X112489285Y-62043904D01*
X112489285Y-62043904D02*
X112298809Y-62043904D01*
X112298809Y-62043904D02*
X112222618Y-62005809D01*
X112222618Y-62005809D02*
X112184523Y-61967714D01*
X112184523Y-61967714D02*
X112146428Y-61891523D01*
X112146428Y-61891523D02*
X112146428Y-61815333D01*
X112146428Y-61815333D02*
X112184523Y-61739142D01*
X112184523Y-61739142D02*
X112222618Y-61701047D01*
X112222618Y-61701047D02*
X112298809Y-61662952D01*
X112298809Y-61662952D02*
X112451190Y-61624857D01*
X112451190Y-61624857D02*
X112527380Y-61586761D01*
X112527380Y-61586761D02*
X112565475Y-61548666D01*
X112565475Y-61548666D02*
X112603571Y-61472476D01*
X112603571Y-61472476D02*
X112603571Y-61396285D01*
X112603571Y-61396285D02*
X112565475Y-61320095D01*
X112565475Y-61320095D02*
X112527380Y-61282000D01*
X112527380Y-61282000D02*
X112451190Y-61243904D01*
X112451190Y-61243904D02*
X112260713Y-61243904D01*
X112260713Y-61243904D02*
X112146428Y-61282000D01*
D11*
X105288071Y-59179329D02*
X105080915Y-59275927D01*
X105080915Y-59275927D02*
X105001486Y-59376016D01*
X105001486Y-59376016D02*
X104946207Y-59527893D01*
X104946207Y-59527893D02*
X104991017Y-59759199D01*
X104991017Y-59759199D02*
X105160064Y-60121722D01*
X105160064Y-60121722D02*
X105308452Y-60304728D01*
X105308452Y-60304728D02*
X105460329Y-60360007D01*
X105460329Y-60360007D02*
X105588057Y-60363497D01*
X105588057Y-60363497D02*
X105795213Y-60266898D01*
X105795213Y-60266898D02*
X105874641Y-60166810D01*
X105874641Y-60166810D02*
X105929920Y-60014933D01*
X105929920Y-60014933D02*
X105885110Y-59783627D01*
X105885110Y-59783627D02*
X105716063Y-59421104D01*
X105716063Y-59421104D02*
X105567676Y-59238098D01*
X105567676Y-59238098D02*
X105415798Y-59182819D01*
X105415798Y-59182819D02*
X105288071Y-59179329D01*
X104524916Y-59976545D02*
X105032058Y-61064115D01*
X104549065Y-60028334D02*
X104421338Y-60024844D01*
X104421338Y-60024844D02*
X104214181Y-60121443D01*
X104214181Y-60121443D02*
X104134753Y-60221531D01*
X104134753Y-60221531D02*
X104107114Y-60297470D01*
X104107114Y-60297470D02*
X104103624Y-60425197D01*
X104103624Y-60425197D02*
X104248522Y-60735932D01*
X104248522Y-60735932D02*
X104348610Y-60815360D01*
X104348610Y-60815360D02*
X104424548Y-60842999D01*
X104424548Y-60842999D02*
X104552276Y-60846489D01*
X104552276Y-60846489D02*
X104759432Y-60749891D01*
X104759432Y-60749891D02*
X104838861Y-60649802D01*
X103696292Y-60362939D02*
X103281979Y-60556136D01*
X103371877Y-60072865D02*
X103806570Y-61005067D01*
X103806570Y-61005067D02*
X103803081Y-61132795D01*
X103803081Y-61132795D02*
X103723652Y-61232883D01*
X103723652Y-61232883D02*
X103620074Y-61281182D01*
X103102184Y-61522678D02*
X103181613Y-61422590D01*
X103181613Y-61422590D02*
X103209252Y-61346651D01*
X103209252Y-61346651D02*
X103212742Y-61218924D01*
X103212742Y-61218924D02*
X103067844Y-60908189D01*
X103067844Y-60908189D02*
X102967756Y-60828761D01*
X102967756Y-60828761D02*
X102891817Y-60801122D01*
X102891817Y-60801122D02*
X102764090Y-60797632D01*
X102764090Y-60797632D02*
X102608723Y-60870081D01*
X102608723Y-60870081D02*
X102529294Y-60970169D01*
X102529294Y-60970169D02*
X102501655Y-61046108D01*
X102501655Y-61046108D02*
X102498165Y-61173835D01*
X102498165Y-61173835D02*
X102643063Y-61484569D01*
X102643063Y-61484569D02*
X102743151Y-61563998D01*
X102743151Y-61563998D02*
X102819089Y-61591637D01*
X102819089Y-61591637D02*
X102946817Y-61595127D01*
X102946817Y-61595127D02*
X103102184Y-61522678D01*
X101921785Y-60749054D02*
X101300317Y-61038849D01*
X102118193Y-61981521D02*
X101611051Y-60893951D01*
X100978834Y-62512812D02*
X100713189Y-61943133D01*
X100713189Y-61943133D02*
X100716679Y-61815405D01*
X100716679Y-61815405D02*
X100796107Y-61715317D01*
X100796107Y-61715317D02*
X101003263Y-61618719D01*
X101003263Y-61618719D02*
X101130991Y-61622209D01*
X100954685Y-62461023D02*
X101082413Y-62464513D01*
X101082413Y-62464513D02*
X101341358Y-62343765D01*
X101341358Y-62343765D02*
X101420786Y-62243677D01*
X101420786Y-62243677D02*
X101424276Y-62115949D01*
X101424276Y-62115949D02*
X101375977Y-62012371D01*
X101375977Y-62012371D02*
X101275888Y-61932943D01*
X101275888Y-61932943D02*
X101148161Y-61929453D01*
X101148161Y-61929453D02*
X100889216Y-62050201D01*
X100889216Y-62050201D02*
X100761488Y-62046711D01*
X100122850Y-62029262D02*
X100629992Y-63116831D01*
X100147000Y-62081051D02*
X100019272Y-62077561D01*
X100019272Y-62077561D02*
X99812116Y-62174160D01*
X99812116Y-62174160D02*
X99732687Y-62274248D01*
X99732687Y-62274248D02*
X99705048Y-62350187D01*
X99705048Y-62350187D02*
X99701558Y-62477914D01*
X99701558Y-62477914D02*
X99846456Y-62788648D01*
X99846456Y-62788648D02*
X99946544Y-62868077D01*
X99946544Y-62868077D02*
X100022483Y-62895716D01*
X100022483Y-62895716D02*
X100150210Y-62899206D01*
X100150210Y-62899206D02*
X100357367Y-62802608D01*
X100357367Y-62802608D02*
X100436795Y-62702519D01*
D10*
X117177380Y-61243904D02*
X117558332Y-61243904D01*
X117558332Y-61243904D02*
X117596428Y-61624857D01*
X117596428Y-61624857D02*
X117558332Y-61586761D01*
X117558332Y-61586761D02*
X117482142Y-61548666D01*
X117482142Y-61548666D02*
X117291666Y-61548666D01*
X117291666Y-61548666D02*
X117215475Y-61586761D01*
X117215475Y-61586761D02*
X117177380Y-61624857D01*
X117177380Y-61624857D02*
X117139285Y-61701047D01*
X117139285Y-61701047D02*
X117139285Y-61891523D01*
X117139285Y-61891523D02*
X117177380Y-61967714D01*
X117177380Y-61967714D02*
X117215475Y-62005809D01*
X117215475Y-62005809D02*
X117291666Y-62043904D01*
X117291666Y-62043904D02*
X117482142Y-62043904D01*
X117482142Y-62043904D02*
X117558332Y-62005809D01*
X117558332Y-62005809D02*
X117596428Y-61967714D01*
X116910713Y-61243904D02*
X116644046Y-62043904D01*
X116644046Y-62043904D02*
X116377380Y-61243904D01*
X107640476Y-61282000D02*
X107716666Y-61243904D01*
X107716666Y-61243904D02*
X107830952Y-61243904D01*
X107830952Y-61243904D02*
X107945238Y-61282000D01*
X107945238Y-61282000D02*
X108021428Y-61358190D01*
X108021428Y-61358190D02*
X108059523Y-61434380D01*
X108059523Y-61434380D02*
X108097619Y-61586761D01*
X108097619Y-61586761D02*
X108097619Y-61701047D01*
X108097619Y-61701047D02*
X108059523Y-61853428D01*
X108059523Y-61853428D02*
X108021428Y-61929619D01*
X108021428Y-61929619D02*
X107945238Y-62005809D01*
X107945238Y-62005809D02*
X107830952Y-62043904D01*
X107830952Y-62043904D02*
X107754761Y-62043904D01*
X107754761Y-62043904D02*
X107640476Y-62005809D01*
X107640476Y-62005809D02*
X107602380Y-61967714D01*
X107602380Y-61967714D02*
X107602380Y-61701047D01*
X107602380Y-61701047D02*
X107754761Y-61701047D01*
D12*
%TO.C,U1*%
X113161904Y-63467380D02*
X113161904Y-64276904D01*
X113161904Y-64276904D02*
X113114285Y-64372142D01*
X113114285Y-64372142D02*
X113066666Y-64419761D01*
X113066666Y-64419761D02*
X112971428Y-64467380D01*
X112971428Y-64467380D02*
X112780952Y-64467380D01*
X112780952Y-64467380D02*
X112685714Y-64419761D01*
X112685714Y-64419761D02*
X112638095Y-64372142D01*
X112638095Y-64372142D02*
X112590476Y-64276904D01*
X112590476Y-64276904D02*
X112590476Y-63467380D01*
X111590476Y-64467380D02*
X112161904Y-64467380D01*
X111876190Y-64467380D02*
X111876190Y-63467380D01*
X111876190Y-63467380D02*
X111971428Y-63610238D01*
X111971428Y-63610238D02*
X112066666Y-63705476D01*
X112066666Y-63705476D02*
X112161904Y-63753095D01*
D10*
X114966667Y-67213964D02*
X114783334Y-67213964D01*
X114704762Y-67502059D02*
X114966667Y-67502059D01*
X114966667Y-67502059D02*
X114966667Y-66952059D01*
X114966667Y-66952059D02*
X114704762Y-66952059D01*
X114469048Y-67213964D02*
X114285715Y-67213964D01*
X114207143Y-67502059D02*
X114469048Y-67502059D01*
X114469048Y-67502059D02*
X114469048Y-66952059D01*
X114469048Y-66952059D02*
X114207143Y-66952059D01*
X113971429Y-67292535D02*
X113552382Y-67292535D01*
X113316668Y-67475869D02*
X113238096Y-67502059D01*
X113238096Y-67502059D02*
X113107144Y-67502059D01*
X113107144Y-67502059D02*
X113054763Y-67475869D01*
X113054763Y-67475869D02*
X113028572Y-67449678D01*
X113028572Y-67449678D02*
X113002382Y-67397297D01*
X113002382Y-67397297D02*
X113002382Y-67344916D01*
X113002382Y-67344916D02*
X113028572Y-67292535D01*
X113028572Y-67292535D02*
X113054763Y-67266345D01*
X113054763Y-67266345D02*
X113107144Y-67240154D01*
X113107144Y-67240154D02*
X113211906Y-67213964D01*
X113211906Y-67213964D02*
X113264287Y-67187773D01*
X113264287Y-67187773D02*
X113290477Y-67161583D01*
X113290477Y-67161583D02*
X113316668Y-67109202D01*
X113316668Y-67109202D02*
X113316668Y-67056821D01*
X113316668Y-67056821D02*
X113290477Y-67004440D01*
X113290477Y-67004440D02*
X113264287Y-66978250D01*
X113264287Y-66978250D02*
X113211906Y-66952059D01*
X113211906Y-66952059D02*
X113080953Y-66952059D01*
X113080953Y-66952059D02*
X113002382Y-66978250D01*
X112819048Y-66952059D02*
X112452381Y-67502059D01*
X112452381Y-66952059D02*
X112819048Y-67502059D01*
X112295238Y-66952059D02*
X111954762Y-66952059D01*
X111954762Y-66952059D02*
X112138095Y-67161583D01*
X112138095Y-67161583D02*
X112059524Y-67161583D01*
X112059524Y-67161583D02*
X112007143Y-67187773D01*
X112007143Y-67187773D02*
X111980952Y-67213964D01*
X111980952Y-67213964D02*
X111954762Y-67266345D01*
X111954762Y-67266345D02*
X111954762Y-67397297D01*
X111954762Y-67397297D02*
X111980952Y-67449678D01*
X111980952Y-67449678D02*
X112007143Y-67475869D01*
X112007143Y-67475869D02*
X112059524Y-67502059D01*
X112059524Y-67502059D02*
X112216667Y-67502059D01*
X112216667Y-67502059D02*
X112269048Y-67475869D01*
X112269048Y-67475869D02*
X112295238Y-67449678D01*
X111326190Y-66925869D02*
X111797619Y-67633011D01*
X110907143Y-67135392D02*
X110907143Y-67502059D01*
X111038095Y-66925869D02*
X111169048Y-67318726D01*
X111169048Y-67318726D02*
X110828571Y-67318726D01*
X110592857Y-67502059D02*
X110488095Y-67502059D01*
X110488095Y-67502059D02*
X110435714Y-67475869D01*
X110435714Y-67475869D02*
X110409523Y-67449678D01*
X110409523Y-67449678D02*
X110357142Y-67371107D01*
X110357142Y-67371107D02*
X110330952Y-67266345D01*
X110330952Y-67266345D02*
X110330952Y-67056821D01*
X110330952Y-67056821D02*
X110357142Y-67004440D01*
X110357142Y-67004440D02*
X110383333Y-66978250D01*
X110383333Y-66978250D02*
X110435714Y-66952059D01*
X110435714Y-66952059D02*
X110540476Y-66952059D01*
X110540476Y-66952059D02*
X110592857Y-66978250D01*
X110592857Y-66978250D02*
X110619047Y-67004440D01*
X110619047Y-67004440D02*
X110645238Y-67056821D01*
X110645238Y-67056821D02*
X110645238Y-67187773D01*
X110645238Y-67187773D02*
X110619047Y-67240154D01*
X110619047Y-67240154D02*
X110592857Y-67266345D01*
X110592857Y-67266345D02*
X110540476Y-67292535D01*
X110540476Y-67292535D02*
X110435714Y-67292535D01*
X110435714Y-67292535D02*
X110383333Y-67266345D01*
X110383333Y-67266345D02*
X110357142Y-67240154D01*
X110357142Y-67240154D02*
X110330952Y-67187773D01*
X110016666Y-67187773D02*
X110069047Y-67161583D01*
X110069047Y-67161583D02*
X110095237Y-67135392D01*
X110095237Y-67135392D02*
X110121428Y-67083011D01*
X110121428Y-67083011D02*
X110121428Y-67056821D01*
X110121428Y-67056821D02*
X110095237Y-67004440D01*
X110095237Y-67004440D02*
X110069047Y-66978250D01*
X110069047Y-66978250D02*
X110016666Y-66952059D01*
X110016666Y-66952059D02*
X109911904Y-66952059D01*
X109911904Y-66952059D02*
X109859523Y-66978250D01*
X109859523Y-66978250D02*
X109833332Y-67004440D01*
X109833332Y-67004440D02*
X109807142Y-67056821D01*
X109807142Y-67056821D02*
X109807142Y-67083011D01*
X109807142Y-67083011D02*
X109833332Y-67135392D01*
X109833332Y-67135392D02*
X109859523Y-67161583D01*
X109859523Y-67161583D02*
X109911904Y-67187773D01*
X109911904Y-67187773D02*
X110016666Y-67187773D01*
X110016666Y-67187773D02*
X110069047Y-67213964D01*
X110069047Y-67213964D02*
X110095237Y-67240154D01*
X110095237Y-67240154D02*
X110121428Y-67292535D01*
X110121428Y-67292535D02*
X110121428Y-67397297D01*
X110121428Y-67397297D02*
X110095237Y-67449678D01*
X110095237Y-67449678D02*
X110069047Y-67475869D01*
X110069047Y-67475869D02*
X110016666Y-67502059D01*
X110016666Y-67502059D02*
X109911904Y-67502059D01*
X109911904Y-67502059D02*
X109859523Y-67475869D01*
X109859523Y-67475869D02*
X109833332Y-67449678D01*
X109833332Y-67449678D02*
X109807142Y-67397297D01*
X109807142Y-67397297D02*
X109807142Y-67292535D01*
X109807142Y-67292535D02*
X109833332Y-67240154D01*
X109833332Y-67240154D02*
X109859523Y-67213964D01*
X109859523Y-67213964D02*
X109911904Y-67187773D01*
X114259523Y-68152059D02*
X114154761Y-68152059D01*
X114154761Y-68152059D02*
X114102380Y-68178250D01*
X114102380Y-68178250D02*
X114049999Y-68230630D01*
X114049999Y-68230630D02*
X114023809Y-68335392D01*
X114023809Y-68335392D02*
X114023809Y-68518726D01*
X114023809Y-68518726D02*
X114049999Y-68623488D01*
X114049999Y-68623488D02*
X114102380Y-68675869D01*
X114102380Y-68675869D02*
X114154761Y-68702059D01*
X114154761Y-68702059D02*
X114259523Y-68702059D01*
X114259523Y-68702059D02*
X114311904Y-68675869D01*
X114311904Y-68675869D02*
X114364285Y-68623488D01*
X114364285Y-68623488D02*
X114390476Y-68518726D01*
X114390476Y-68518726D02*
X114390476Y-68335392D01*
X114390476Y-68335392D02*
X114364285Y-68230630D01*
X114364285Y-68230630D02*
X114311904Y-68178250D01*
X114311904Y-68178250D02*
X114259523Y-68152059D01*
X113788095Y-68702059D02*
X113788095Y-68152059D01*
X113788095Y-68152059D02*
X113578571Y-68152059D01*
X113578571Y-68152059D02*
X113526190Y-68178250D01*
X113526190Y-68178250D02*
X113500000Y-68204440D01*
X113500000Y-68204440D02*
X113473809Y-68256821D01*
X113473809Y-68256821D02*
X113473809Y-68335392D01*
X113473809Y-68335392D02*
X113500000Y-68387773D01*
X113500000Y-68387773D02*
X113526190Y-68413964D01*
X113526190Y-68413964D02*
X113578571Y-68440154D01*
X113578571Y-68440154D02*
X113788095Y-68440154D01*
X113054762Y-68413964D02*
X112976190Y-68440154D01*
X112976190Y-68440154D02*
X112950000Y-68466345D01*
X112950000Y-68466345D02*
X112923809Y-68518726D01*
X112923809Y-68518726D02*
X112923809Y-68597297D01*
X112923809Y-68597297D02*
X112950000Y-68649678D01*
X112950000Y-68649678D02*
X112976190Y-68675869D01*
X112976190Y-68675869D02*
X113028571Y-68702059D01*
X113028571Y-68702059D02*
X113238095Y-68702059D01*
X113238095Y-68702059D02*
X113238095Y-68152059D01*
X113238095Y-68152059D02*
X113054762Y-68152059D01*
X113054762Y-68152059D02*
X113002381Y-68178250D01*
X113002381Y-68178250D02*
X112976190Y-68204440D01*
X112976190Y-68204440D02*
X112950000Y-68256821D01*
X112950000Y-68256821D02*
X112950000Y-68309202D01*
X112950000Y-68309202D02*
X112976190Y-68361583D01*
X112976190Y-68361583D02*
X113002381Y-68387773D01*
X113002381Y-68387773D02*
X113054762Y-68413964D01*
X113054762Y-68413964D02*
X113238095Y-68413964D01*
X112452381Y-68152059D02*
X112557143Y-68152059D01*
X112557143Y-68152059D02*
X112609524Y-68178250D01*
X112609524Y-68178250D02*
X112635714Y-68204440D01*
X112635714Y-68204440D02*
X112688095Y-68283011D01*
X112688095Y-68283011D02*
X112714286Y-68387773D01*
X112714286Y-68387773D02*
X112714286Y-68597297D01*
X112714286Y-68597297D02*
X112688095Y-68649678D01*
X112688095Y-68649678D02*
X112661905Y-68675869D01*
X112661905Y-68675869D02*
X112609524Y-68702059D01*
X112609524Y-68702059D02*
X112504762Y-68702059D01*
X112504762Y-68702059D02*
X112452381Y-68675869D01*
X112452381Y-68675869D02*
X112426190Y-68649678D01*
X112426190Y-68649678D02*
X112400000Y-68597297D01*
X112400000Y-68597297D02*
X112400000Y-68466345D01*
X112400000Y-68466345D02*
X112426190Y-68413964D01*
X112426190Y-68413964D02*
X112452381Y-68387773D01*
X112452381Y-68387773D02*
X112504762Y-68361583D01*
X112504762Y-68361583D02*
X112609524Y-68361583D01*
X112609524Y-68361583D02*
X112661905Y-68387773D01*
X112661905Y-68387773D02*
X112688095Y-68413964D01*
X112688095Y-68413964D02*
X112714286Y-68466345D01*
X111771428Y-68125869D02*
X112242857Y-68833011D01*
X111561905Y-68702059D02*
X111457143Y-68702059D01*
X111457143Y-68702059D02*
X111404762Y-68675869D01*
X111404762Y-68675869D02*
X111378571Y-68649678D01*
X111378571Y-68649678D02*
X111326190Y-68571107D01*
X111326190Y-68571107D02*
X111300000Y-68466345D01*
X111300000Y-68466345D02*
X111300000Y-68256821D01*
X111300000Y-68256821D02*
X111326190Y-68204440D01*
X111326190Y-68204440D02*
X111352381Y-68178250D01*
X111352381Y-68178250D02*
X111404762Y-68152059D01*
X111404762Y-68152059D02*
X111509524Y-68152059D01*
X111509524Y-68152059D02*
X111561905Y-68178250D01*
X111561905Y-68178250D02*
X111588095Y-68204440D01*
X111588095Y-68204440D02*
X111614286Y-68256821D01*
X111614286Y-68256821D02*
X111614286Y-68387773D01*
X111614286Y-68387773D02*
X111588095Y-68440154D01*
X111588095Y-68440154D02*
X111561905Y-68466345D01*
X111561905Y-68466345D02*
X111509524Y-68492535D01*
X111509524Y-68492535D02*
X111404762Y-68492535D01*
X111404762Y-68492535D02*
X111352381Y-68466345D01*
X111352381Y-68466345D02*
X111326190Y-68440154D01*
X111326190Y-68440154D02*
X111300000Y-68387773D01*
X111116666Y-68702059D02*
X110828571Y-68335392D01*
X111116666Y-68335392D02*
X110828571Y-68702059D01*
X110671428Y-68702059D02*
X110383333Y-68335392D01*
X110671428Y-68335392D02*
X110383333Y-68702059D01*
%TO.C,kibuzzard-6366BF75*%
G36*
X122919144Y-62030653D02*
G01*
X123006952Y-62095902D01*
X123066070Y-62196380D01*
X123084310Y-62276215D01*
X123079332Y-62358263D01*
X123051134Y-62442523D01*
X123004632Y-62518249D01*
X122944741Y-62574690D01*
X122871459Y-62611848D01*
X122755948Y-62630894D01*
X122649343Y-62605487D01*
X122561284Y-62540778D01*
X122501410Y-62441918D01*
X122482760Y-62362963D01*
X122487851Y-62280675D01*
X122516681Y-62195056D01*
X122563892Y-62117812D01*
X122624119Y-62060652D01*
X122697363Y-62023574D01*
X122812623Y-62005066D01*
X122919144Y-62030653D01*
G37*
G36*
X118638621Y-61413715D02*
G01*
X118583361Y-61387947D01*
X119512430Y-61387947D01*
X119537188Y-61436276D01*
X119606539Y-61479125D01*
X119683942Y-61504709D01*
X119737213Y-61491889D01*
X119768996Y-61459417D01*
X119794971Y-61409347D01*
X119921773Y-61137420D01*
X120449248Y-60817616D01*
X120517898Y-60756791D01*
X120523121Y-60704270D01*
X120495853Y-60638788D01*
X120425003Y-60554077D01*
X120376473Y-60545460D01*
X120297170Y-60580297D01*
X119907776Y-60833119D01*
X119851153Y-60372316D01*
X119830174Y-60293345D01*
X119789789Y-60257872D01*
X119688848Y-60254593D01*
X119613498Y-60278135D01*
X119574069Y-60316677D01*
X119571602Y-60408363D01*
X119665673Y-61017999D01*
X119537529Y-61292803D01*
X119516541Y-61343446D01*
X119512430Y-61387947D01*
X118583361Y-61387947D01*
X118338879Y-61273943D01*
X118306320Y-61060925D01*
X118822398Y-61060925D01*
X118846832Y-61110417D01*
X118913008Y-61153973D01*
X118988576Y-61180673D01*
X119041191Y-61179590D01*
X119081438Y-61148218D01*
X119119900Y-61084046D01*
X119144761Y-60993169D01*
X119118657Y-60934579D01*
X119046975Y-60891095D01*
X119031273Y-60881570D01*
X118927884Y-60866640D01*
X118859573Y-60939882D01*
X118848838Y-60962903D01*
X118827180Y-61014985D01*
X118822398Y-61060925D01*
X118306320Y-61060925D01*
X118249987Y-60692359D01*
X119003022Y-60692359D01*
X119030127Y-60735652D01*
X119100149Y-60777062D01*
X119176881Y-60804084D01*
X119227085Y-60795966D01*
X119255464Y-60768913D01*
X119278421Y-60725317D01*
X119491098Y-60269229D01*
X119510073Y-60222901D01*
X119512171Y-60182717D01*
X119485736Y-60137985D01*
X119416050Y-60095856D01*
X119338982Y-60069552D01*
X119288108Y-60079111D01*
X119259057Y-60107603D01*
X119235766Y-60151917D01*
X119023088Y-60608006D01*
X119004448Y-60653613D01*
X119003022Y-60692359D01*
X118249987Y-60692359D01*
X118169569Y-60166212D01*
X119126970Y-59583875D01*
X119426713Y-59723647D01*
X125967332Y-62773588D01*
X126267075Y-62913361D01*
X126830431Y-63176058D01*
X125873029Y-63758395D01*
X126042339Y-64866126D01*
X125478984Y-64603429D01*
X125179240Y-64463656D01*
X124835376Y-64303310D01*
X123867088Y-63851790D01*
X123484435Y-63673356D01*
X124745525Y-63673356D01*
X124767593Y-63776287D01*
X124814480Y-63870649D01*
X124883665Y-63946409D01*
X124975148Y-64003568D01*
X125064978Y-64036308D01*
X125156060Y-64051338D01*
X125248394Y-64048658D01*
X125297109Y-64038094D01*
X125313316Y-64033389D01*
X125408243Y-63972558D01*
X125398618Y-63854216D01*
X125337310Y-63767823D01*
X125219443Y-63768913D01*
X125115432Y-63757196D01*
X125033221Y-63685579D01*
X125037511Y-63595620D01*
X125106879Y-63535132D01*
X125196935Y-63542969D01*
X125253920Y-63601071D01*
X125316902Y-63670726D01*
X125420291Y-63685657D01*
X125507656Y-63672972D01*
X125539919Y-63645102D01*
X125564091Y-63574485D01*
X125619160Y-63400043D01*
X125672696Y-63227951D01*
X125692266Y-63164385D01*
X125696283Y-63129474D01*
X125693537Y-63080899D01*
X125670553Y-63032522D01*
X125618656Y-62991682D01*
X125399293Y-62891144D01*
X125264049Y-62828078D01*
X125212686Y-62806754D01*
X125168905Y-62802979D01*
X125121656Y-62828239D01*
X125076386Y-62899966D01*
X125053007Y-62973579D01*
X125063378Y-63021768D01*
X125092255Y-63051874D01*
X125138008Y-63075836D01*
X125389792Y-63193244D01*
X125353190Y-63309300D01*
X125304176Y-63282941D01*
X125210762Y-63253297D01*
X125112762Y-63249345D01*
X125010177Y-63271087D01*
X124915064Y-63316457D01*
X124839479Y-63383388D01*
X124783422Y-63471882D01*
X124750802Y-63571888D01*
X124745525Y-63673356D01*
X123484435Y-63673356D01*
X122386601Y-63161427D01*
X120982367Y-62506622D01*
X120100841Y-62095560D01*
X121037423Y-62095560D01*
X121061965Y-62142474D01*
X121131532Y-62186737D01*
X121213251Y-62214334D01*
X121261967Y-62203769D01*
X121426934Y-62115654D01*
X121571839Y-62038424D01*
X121696681Y-61972080D01*
X121801462Y-61916622D01*
X121886181Y-61872050D01*
X121950836Y-61838362D01*
X121730108Y-62311716D01*
X121708785Y-62363079D01*
X121705010Y-62406860D01*
X121729551Y-62453774D01*
X121799118Y-62498038D01*
X121875585Y-62521871D01*
X121926579Y-62510180D01*
X121958361Y-62477707D01*
X121984001Y-62428356D01*
X122045265Y-62296974D01*
X122204663Y-62296974D01*
X122208108Y-62411669D01*
X122234197Y-62526632D01*
X122280601Y-62633717D01*
X122344989Y-62724774D01*
X122427360Y-62799804D01*
X122527715Y-62858807D01*
X122637582Y-62897996D01*
X122748491Y-62913587D01*
X122860442Y-62905579D01*
X122973435Y-62873973D01*
X123079133Y-62822323D01*
X123169200Y-62754190D01*
X123243637Y-62669571D01*
X123302440Y-62568468D01*
X123345574Y-62447795D01*
X123350313Y-62415416D01*
X123913306Y-62415416D01*
X123934697Y-63406294D01*
X123959079Y-63479846D01*
X124016924Y-63530465D01*
X124031311Y-63537175D01*
X124108711Y-63549620D01*
X124180726Y-63521019D01*
X124953532Y-62900482D01*
X125007317Y-62841485D01*
X125008571Y-62783390D01*
X124965368Y-62709820D01*
X124904116Y-62651480D01*
X124863305Y-62639456D01*
X124829454Y-62648193D01*
X124787935Y-62675251D01*
X124749906Y-62706563D01*
X124676857Y-62768838D01*
X124583255Y-62848898D01*
X124483563Y-62933564D01*
X124383691Y-63018145D01*
X124289549Y-63097953D01*
X124218309Y-63158226D01*
X124187148Y-63184201D01*
X124193253Y-62419840D01*
X124193237Y-62367286D01*
X124148046Y-62298919D01*
X124051753Y-62283795D01*
X123967626Y-62297989D01*
X123923928Y-62336292D01*
X123913306Y-62415416D01*
X123350313Y-62415416D01*
X123363603Y-62324612D01*
X123357946Y-62205273D01*
X123330017Y-62096130D01*
X123282036Y-61997123D01*
X123216220Y-61908192D01*
X123135350Y-61833697D01*
X123042211Y-61778005D01*
X122934763Y-61739615D01*
X122825355Y-61723738D01*
X122713988Y-61730377D01*
X122600661Y-61759529D01*
X122493998Y-61809140D01*
X122402617Y-61877155D01*
X122326522Y-61963572D01*
X122265711Y-62068392D01*
X122223864Y-62182549D01*
X122204663Y-62296974D01*
X122045265Y-62296974D01*
X122358367Y-61625526D01*
X122381934Y-61539301D01*
X122356696Y-61486370D01*
X122290222Y-61444862D01*
X122218191Y-61420908D01*
X122174555Y-61422456D01*
X122124019Y-61444432D01*
X121967873Y-61529702D01*
X121830185Y-61604604D01*
X121710954Y-61669137D01*
X121610183Y-61723304D01*
X121527869Y-61767100D01*
X121464014Y-61800528D01*
X121690781Y-61314226D01*
X121714348Y-61228001D01*
X121689109Y-61175069D01*
X121624794Y-61134568D01*
X121555256Y-61110900D01*
X121509797Y-61110722D01*
X121477723Y-61132550D01*
X121434875Y-61201901D01*
X121062522Y-62000415D01*
X121041199Y-62051778D01*
X121037423Y-62095560D01*
X120100841Y-62095560D01*
X120094650Y-62092673D01*
X119458716Y-61796132D01*
X119210646Y-61680455D01*
X120166009Y-61680455D01*
X120175708Y-61723513D01*
X120243815Y-61772788D01*
X120761769Y-62014314D01*
X120847995Y-62037881D01*
X120905243Y-62014656D01*
X120948092Y-61945304D01*
X121321116Y-61145351D01*
X121342104Y-61094707D01*
X121346215Y-61050207D01*
X121321673Y-61003293D01*
X121252106Y-60959029D01*
X121165689Y-60934935D01*
X121107865Y-60956578D01*
X121065784Y-61028040D01*
X120733014Y-61741667D01*
X120341670Y-61559180D01*
X120267578Y-61537767D01*
X120223037Y-61558160D01*
X120187329Y-61615953D01*
X120166009Y-61680455D01*
X119210646Y-61680455D01*
X118764513Y-61472420D01*
X118638621Y-61413715D01*
G37*
D13*
%TO.C,U1*%
X118700000Y-69000000D02*
X106100000Y-69000000D01*
X118700000Y-62000000D02*
X118700000Y-69000000D01*
X118700000Y-62000000D02*
X106100000Y-62000000D01*
D14*
X118500000Y-63000000D02*
X118500000Y-68000000D01*
X106300000Y-68000000D02*
X118500000Y-68000000D01*
X106300000Y-68000000D02*
X106300000Y-63000000D01*
X106300000Y-63000000D02*
X118500000Y-63000000D01*
D13*
X106100000Y-62000000D02*
X106100000Y-69000000D01*
D11*
X105600000Y-66800000D02*
G75*
G03*
X105600000Y-66800000I-100000J0D01*
G01*
%TD*%
%LPC*%
D15*
%TO.C,*%
X122000000Y-65500000D03*
%TD*%
D16*
%TO.C,J1*%
X107799999Y-60199999D03*
%TD*%
%TO.C,J2*%
X112399999Y-60199999D03*
%TD*%
D15*
%TO.C,*%
X102750000Y-65500000D03*
%TD*%
D16*
%TO.C,J3*%
X116999999Y-60199999D03*
%TD*%
D17*
%TO.C,U1*%
X108067999Y-66769999D03*
D18*
X108067999Y-64229999D03*
D19*
X116731999Y-63846999D03*
D18*
X116731999Y-65499999D03*
D20*
X116731999Y-67152999D03*
%TD*%
M02*
